<svg xmlns="http://www.w3.org/2000/svg" xmlns:xlink="http://www.w3.org/1999/xlink" xmlns:lucid="lucid" width="1500" height="440"><g transform="translate(-140 -180)" lucid:page-tab-id="9qQYJec3W1iC"><path d="M0 0h1760v1360H0z" fill="#fff"/><path d="M160 200h1460v400H160z" stroke="#000" stroke-width="2" fill="#e5e5e5" fill-opacity=".45"/><path d="M762 224.2h240v60H762z" stroke="#000" stroke-width="2" fill="#ffeca9"/><use xlink:href="#a" transform="matrix(1,0,0,1,767,229.21052631578948) translate(9.637037037037032 17.06666666666667)"/><use xlink:href="#b" transform="matrix(1,0,0,1,767,229.21052631578948) translate(73.51851851851852 17.06666666666667)"/><use xlink:href="#c" transform="matrix(1,0,0,1,767,229.21052631578948) translate(143.3851851851852 17.06666666666667)"/><use xlink:href="#d" transform="matrix(1,0,0,1,767,229.21052631578948) translate(196.65925925925927 17.06666666666667)"/><use xlink:href="#e" transform="matrix(1,0,0,1,767,229.21052631578948) translate(35.77037037037036 42.66666666666667)"/><use xlink:href="#f" transform="matrix(1,0,0,1,767,229.21052631578948) translate(96.09629629629629 42.66666666666667)"/><use xlink:href="#g" transform="matrix(1,0,0,1,767,229.21052631578948) translate(157.6074074074074 42.66666666666667)"/><path d="M200 401.8h480v97.5H200z" stroke="#000" stroke-width="2" fill="#ffdf71" fill-opacity=".6"/><path d="M220 415.37h120v55.72H220z" stroke="#000" stroke-width="2" fill="#f5b5c8" fill-opacity=".7"/><path d="M240.8 415.37l-.42 56.72" stroke="#000" stroke-width="2" fill="none"/><path/><path d="M264.8 415.37v56.42M288.8 415.37v56.42M312.8 415.37v56.42" stroke="#000" stroke-width="2" fill="none"/><path d="M380 415.37h120v55.72H380z" stroke="#000" stroke-width="2" fill="#f5b5c8" fill-opacity=".7"/><path d="M400.8 415.37l-.42 56.72" stroke="#000" stroke-width="2" fill="none"/><path/><path d="M424.8 415.37v56.42M448.8 415.37v56.42M472.8 415.37v56.42M362.05 400.8v99.5" stroke="#000" stroke-width="2" fill="none"/><path/><path/><path d="M523.17 400.8l-.5 99.2" stroke="#000" stroke-width="2" fill="none"/><path/><path d="M540 415.37h120v55.72H540z" stroke="#000" stroke-width="2" fill="#f5b5c8" fill-opacity=".7"/><path d="M560.8 415.37l-.42 56.72" stroke="#000" stroke-width="2" fill="none"/><path/><path d="M584.8 415.37v56.42M608.8 415.37v56.42M632.8 415.37v56.42" stroke="#000" stroke-width="2" fill="none"/><path d="M240 360h380v28.28H240z" stroke="#000" stroke-width="2" fill="#c1e4f7" fill-opacity=".58"/><use xlink:href="#h" transform="matrix(1,0,0,1,245.00000000000003,365) translate(4.585185185185196 17.06666666666667)"/><use xlink:href="#f" transform="matrix(1,0,0,1,245.00000000000003,365) translate(73.26666666666668 17.06666666666667)"/><use xlink:href="#i" transform="matrix(1,0,0,1,245.00000000000003,365) translate(134.7777777777778 17.06666666666667)"/><use xlink:href="#j" transform="matrix(1,0,0,1,245.00000000000003,365) translate(177.32592592592596 17.06666666666667)"/><use xlink:href="#e" transform="matrix(1,0,0,1,245.00000000000003,365) translate(206.95555555555558 17.06666666666667)"/><use xlink:href="#f" transform="matrix(1,0,0,1,245.00000000000003,365) translate(267.2814814814815 17.06666666666667)"/><use xlink:href="#g" transform="matrix(1,0,0,1,245.00000000000003,365) translate(328.7925925925926 17.06666666666667)"/><path d="M300 485.37h21.76" stroke="#000" stroke-width="2" fill="none"/><path d="M336.76 485.37L322.5 490v-9.26z" stroke="#000" stroke-width="2"/><path d="M460 485.37h21.76" stroke="#000" stroke-width="2" fill="none"/><path d="M496.76 485.37L482.5 490v-9.26z" stroke="#000" stroke-width="2"/><path d="M620 485.37h21.76" stroke="#000" stroke-width="2" fill="none"/><path d="M656.76 485.37L642.5 490v-9.26z" stroke="#000" stroke-width="2"/><path d="M238.24 485.37H260" stroke="#000" stroke-width="2" fill="none"/><path d="M223.24 485.37l14.26-4.63V490z" stroke="#000" stroke-width="2"/><path d="M398.24 485.37H420" stroke="#000" stroke-width="2" fill="none"/><path d="M383.24 485.37l14.26-4.63V490z" stroke="#000" stroke-width="2"/><path d="M558.24 485.37H580" stroke="#000" stroke-width="2" fill="none"/><path d="M543.24 485.37l14.26-4.63V490z" stroke="#000" stroke-width="2"/><path d="M945.26 363.16c0 34.88-28.27 63.16-63.15 63.16-34.88 0-63.15-28.28-63.15-63.16 0-34.88 28.27-63.16 63.16-63.16 34.9 0 63.16 28.28 63.16 63.16zM866.32 505.26c0 34.88-28.28 63.16-63.16 63.16-34.88 0-63.16-28.28-63.16-63.16 0-34.88 28.28-63.15 63.16-63.15 34.88 0 63.16 28.28 63.16 63.16zM1040 505.26c0 34.88-28.28 63.16-63.16 63.16-34.88 0-63.16-28.28-63.16-63.16 0-34.88 28.28-63.15 63.16-63.15 34.88 0 63.16 28.28 63.16 63.16z" stroke="#000" stroke-width="2" fill="#c7e8ac" fill-opacity=".6"/><path d="M882.1 427.32l-32.08 34.2" stroke="#000" stroke-width="2" fill="none"/><path d="M882.83 428l-1.45-1.37.3-.33.43.02 2.4-.08zM850.75 462.2l-.74.78-1.35-1.48.64-.68z"/><path d="M926.02 466.17l-43.9-38.85" stroke="#000" stroke-width="2" fill="none"/><path d="M927.4 466.05l-1.26 1.57-.8-.7 1.34-1.5zM882.1 426.32l.37-.02.3.27-1.33 1.5-2.1-1.86z"/><path d="M840.2 334.8h83.6v55.72h-83.6z" stroke="#000" stroke-width="2" fill="#fff"/><path d="M854.7 334.8l-.3 56.72" stroke="#000" stroke-width="2" fill="none"/><path/><path d="M871.4 334.8v56.4M888.13 334.8v56.4M904.85 334.8v56.4" stroke="#000" stroke-width="2" fill="none"/><path d="M761.2 476.8h83.6v55.72h-83.6z" stroke="#000" stroke-width="2" fill="#fff"/><path d="M775.7 476.8l-.3 56.72" stroke="#000" stroke-width="2" fill="none"/><path/><path d="M792.4 476.8v56.4M809.13 476.8v56.4M825.85 476.8v56.4" stroke="#000" stroke-width="2" fill="none"/><path d="M935.2 477h83.6v55.73h-83.6z" stroke="#000" stroke-width="2" fill="#fff"/><path d="M949.7 477l-.3 56.73" stroke="#000" stroke-width="2" fill="none"/><path/><path d="M966.4 477v56.43M983.13 477v56.43M999.85 477v56.43" stroke="#000" stroke-width="2" fill="none"/><path d="M1080 402.9h480V500h-480z" stroke="#000" stroke-width="2" fill="#ffdf71" fill-opacity=".6"/><path d="M1100 417.18h120v58.55h-120z" stroke="#000" stroke-width="2" fill="#ffbbb1" fill-opacity=".7"/><path d="M1120.8 417.18l-.35 59.55" stroke="#000" stroke-width="2" fill="none"/><path/><path d="M1144.8 417.18v59.28M1168.8 417.18v59.28M1192.8 417.18v59.28" stroke="#000" stroke-width="2" fill="none"/><path d="M1260 417.18h120v58.55h-120z" stroke="#000" stroke-width="2" fill="#ffbbb1" fill-opacity=".7"/><path d="M1280.8 417.18l-.35 59.55" stroke="#000" stroke-width="2" fill="none"/><path/><path d="M1304.8 417.18v59.28M1328.8 417.18v59.28M1352.8 417.18v59.28M1242.05 401.9V501" stroke="#000" stroke-width="2" fill="none"/><path/><path/><path d="M1403.18 401.9l-.5 99.1" stroke="#000" stroke-width="2" fill="none"/><path/><path/><path d="M1420 417.18h120v58.55h-120z" stroke="#000" stroke-width="2" fill="#ffbbb1" fill-opacity=".7"/><path d="M1440.8 417.18l-.35 59.55" stroke="#000" stroke-width="2" fill="none"/><path/><path d="M1464.8 417.18v59.28M1488.8 417.18v59.28M1512.8 417.18v59.28" stroke="#000" stroke-width="2" fill="none"/><path d="M1120 359h380v29.7h-380z" stroke="#000" stroke-width="2" fill="#c1e4f7" fill-opacity=".58"/><use xlink:href="#k" transform="matrix(1,0,0,1,1125,364) translate(4.585185185185196 17.06666666666667)"/><use xlink:href="#f" transform="matrix(1,0,0,1,1125,364) translate(64.91111111111113 17.06666666666667)"/><use xlink:href="#i" transform="matrix(1,0,0,1,1125,364) translate(126.42222222222225 17.06666666666667)"/><use xlink:href="#j" transform="matrix(1,0,0,1,1125,364) translate(168.9703703703704 17.06666666666667)"/><use xlink:href="#l" transform="matrix(1,0,0,1,1125,364) translate(198.60000000000002 17.06666666666667)"/><use xlink:href="#f" transform="matrix(1,0,0,1,1125,364) translate(267.2814814814815 17.06666666666667)"/><use xlink:href="#g" transform="matrix(1,0,0,1,1125,364) translate(328.7925925925926 17.06666666666667)"/><path d="M1180 520h21.76" stroke="#000" stroke-width="2" fill="none"/><path d="M1216.76 520l-14.26 4.64v-9.28z" stroke="#000" stroke-width="2"/><path d="M1340 520h21.76" stroke="#000" stroke-width="2" fill="none"/><path d="M1376.76 520l-14.26 4.64v-9.28z" stroke="#000" stroke-width="2"/><path d="M1500 520h21.76" stroke="#000" stroke-width="2" fill="none"/><path d="M1536.76 520l-14.26 4.64v-9.28z" stroke="#000" stroke-width="2"/><path d="M1118.24 520H1140" stroke="#000" stroke-width="2" fill="none"/><path d="M1103.24 520l14.26-4.64v9.28z" stroke="#000" stroke-width="2"/><path d="M1278.24 520H1300" stroke="#000" stroke-width="2" fill="none"/><path d="M1263.24 520l14.26-4.64v9.28z" stroke="#000" stroke-width="2"/><path d="M1438.24 520H1460" stroke="#000" stroke-width="2" fill="none"/><path d="M1423.24 520l14.26-4.64v9.28z" stroke="#000" stroke-width="2"/><defs><path d="M115-194c53 0 69 39 70 98 0 66-23 100-70 100C84 3 66-7 56-30L54 0H23l1-261h32v101c10-23 28-34 59-34zm-8 174c40 0 45-34 45-75 0-40-5-75-45-74-42 0-51 32-51 76 0 43 10 73 51 73" id="m"/><path d="M24-231v-30h32v30H24zM24 0v-190h32V0H24" id="n"/><path d="M117-194c89-4 53 116 60 194h-32v-121c0-31-8-49-39-48C34-167 62-67 57 0H25l-1-190h30c1 10-1 24 2 32 11-22 29-35 61-36" id="o"/><path d="M141-36C126-15 110 5 73 4 37 3 15-17 15-53c-1-64 63-63 125-63 3-35-9-54-41-54-24 1-41 7-42 31l-33-3c5-37 33-52 76-52 45 0 72 20 72 64v82c-1 20 7 32 28 27v20c-31 9-61-2-59-35zM48-53c0 20 12 33 32 33 41-3 63-29 60-74-43 2-92-5-92 41" id="p"/><path d="M114-163C36-179 61-72 57 0H25l-1-190h30c1 12-1 29 2 39 6-27 23-49 58-41v29" id="q"/><path d="M179-190L93 31C79 59 56 82 12 73V49c39 6 53-20 64-50L1-190h34L92-34l54-156h33" id="r"/><g id="a"><use transform="matrix(0.05925925925925927,0,0,0.05925925925925927,0,0)" xlink:href="#m"/><use transform="matrix(0.05925925925925927,0,0,0.05925925925925927,11.851851851851853,0)" xlink:href="#n"/><use transform="matrix(0.05925925925925927,0,0,0.05925925925925927,16.533333333333335,0)" xlink:href="#o"/><use transform="matrix(0.05925925925925927,0,0,0.05925925925925927,28.385185185185186,0)" xlink:href="#p"/><use transform="matrix(0.05925925925925927,0,0,0.05925925925925927,40.23703703703704,0)" xlink:href="#q"/><use transform="matrix(0.05925925925925927,0,0,0.05925925925925927,47.28888888888889,0)" xlink:href="#r"/></g><path d="M135-143c-3-34-86-38-87 0 15 53 115 12 119 90S17 21 10-45l28-5c4 36 97 45 98 0-10-56-113-15-118-90-4-57 82-63 122-42 12 7 21 19 24 35" id="s"/><path d="M100-194c63 0 86 42 84 106H49c0 40 14 67 53 68 26 1 43-12 49-29l28 8c-11 28-37 45-77 45C44 4 14-33 15-96c1-61 26-98 85-98zm52 81c6-60-76-77-97-28-3 7-6 17-6 28h103" id="t"/><path d="M96-169c-40 0-48 33-48 73s9 75 48 75c24 0 41-14 43-38l32 2c-6 37-31 61-74 61-59 0-76-41-82-99-10-93 101-131 147-64 4 7 5 14 7 22l-32 3c-4-21-16-35-41-35" id="u"/><path d="M106-169C34-169 62-67 57 0H25v-261h32l-1 103c12-21 28-36 61-36 89 0 53 116 60 194h-32v-121c2-32-8-49-39-48" id="v"/><g id="b"><use transform="matrix(0.05925925925925927,0,0,0.05925925925925927,0,0)" xlink:href="#s"/><use transform="matrix(0.05925925925925927,0,0,0.05925925925925927,10.666666666666668,0)" xlink:href="#t"/><use transform="matrix(0.05925925925925927,0,0,0.05925925925925927,22.51851851851852,0)" xlink:href="#p"/><use transform="matrix(0.05925925925925927,0,0,0.05925925925925927,34.370370370370374,0)" xlink:href="#q"/><use transform="matrix(0.05925925925925927,0,0,0.05925925925925927,41.422222222222224,0)" xlink:href="#u"/><use transform="matrix(0.05925925925925927,0,0,0.05925925925925927,52.08888888888889,0)" xlink:href="#v"/></g><path d="M59-47c-2 24 18 29 38 22v24C64 9 27 4 27-40v-127H5v-23h24l9-43h21v43h35v23H59v120" id="w"/><g id="c"><use transform="matrix(0.05925925925925927,0,0,0.05925925925925927,0,0)" xlink:href="#w"/><use transform="matrix(0.05925925925925927,0,0,0.05925925925925927,5.9259259259259265,0)" xlink:href="#q"/><use transform="matrix(0.05925925925925927,0,0,0.05925925925925927,12.97777777777778,0)" xlink:href="#t"/><use transform="matrix(0.05925925925925927,0,0,0.05925925925925927,24.829629629629633,0)" xlink:href="#t"/><use transform="matrix(0.05925925925925927,0,0,0.05925925925925927,36.681481481481484,0)" xlink:href="#s"/></g><path d="M100-194c62-1 85 37 85 99 1 63-27 99-86 99S16-35 15-95c0-66 28-99 85-99zM99-20c44 1 53-31 53-75 0-43-8-75-51-75s-53 32-53 75 10 74 51 75" id="x"/><g id="d"><use transform="matrix(0.05925925925925927,0,0,0.05925925925925927,0,0)" xlink:href="#x"/><use transform="matrix(0.05925925925925927,0,0,0.05925925925925927,11.851851851851853,0)" xlink:href="#o"/></g><path d="M177-190C167-65 218 103 67 71c-23-6-38-20-44-43l32-5c15 47 100 32 89-28v-30C133-14 115 1 83 1 29 1 15-40 15-95c0-56 16-97 71-98 29-1 48 16 59 35 1-10 0-23 2-32h30zM94-22c36 0 50-32 50-73 0-42-14-75-50-75-39 0-46 34-46 75s6 73 46 73" id="y"/><path d="M24 0v-261h32V0H24" id="z"/><g id="e"><use transform="matrix(0.05925925925925927,0,0,0.05925925925925927,0,0)" xlink:href="#s"/><use transform="matrix(0.05925925925925927,0,0,0.05925925925925927,10.666666666666668,0)" xlink:href="#n"/><use transform="matrix(0.05925925925925927,0,0,0.05925925925925927,15.34814814814815,0)" xlink:href="#o"/><use transform="matrix(0.05925925925925927,0,0,0.05925925925925927,27.200000000000003,0)" xlink:href="#y"/><use transform="matrix(0.05925925925925927,0,0,0.05925925925925927,39.05185185185186,0)" xlink:href="#z"/><use transform="matrix(0.05925925925925927,0,0,0.05925925925925927,43.73333333333334,0)" xlink:href="#r"/></g><path d="M143 0L79-87 56-68V0H24v-261h32v163l83-92h37l-77 82L181 0h-38" id="A"/><path d="M85-194c31 0 48 13 60 33l-1-100h32l1 261h-30c-2-10 0-23-3-31C134-8 116 4 85 4 32 4 16-35 15-94c0-66 23-100 70-100zm9 24c-40 0-46 34-46 75 0 40 6 74 45 74 42 0 51-32 51-76 0-42-9-74-50-73" id="B"/><g id="f"><use transform="matrix(0.05925925925925927,0,0,0.05925925925925927,0,0)" xlink:href="#z"/><use transform="matrix(0.05925925925925927,0,0,0.05925925925925927,4.681481481481482,0)" xlink:href="#n"/><use transform="matrix(0.05925925925925927,0,0,0.05925925925925927,9.362962962962964,0)" xlink:href="#o"/><use transform="matrix(0.05925925925925927,0,0,0.05925925925925927,21.214814814814815,0)" xlink:href="#A"/><use transform="matrix(0.05925925925925927,0,0,0.05925925925925927,31.881481481481487,0)" xlink:href="#t"/><use transform="matrix(0.05925925925925927,0,0,0.05925925925925927,43.733333333333334,0)" xlink:href="#B"/></g><g id="g"><use transform="matrix(0.05925925925925927,0,0,0.05925925925925927,0,0)" xlink:href="#z"/><use transform="matrix(0.05925925925925927,0,0,0.05925925925925927,4.681481481481482,0)" xlink:href="#n"/><use transform="matrix(0.05925925925925927,0,0,0.05925925925925927,9.362962962962964,0)" xlink:href="#s"/><use transform="matrix(0.05925925925925927,0,0,0.05925925925925927,20.029629629629632,0)" xlink:href="#w"/><use transform="matrix(0.05925925925925927,0,0,0.05925925925925927,25.95555555555556,0)" xlink:href="#s"/></g><path d="M84 4C-5 8 30-112 23-190h32v120c0 31 7 50 39 49 72-2 45-101 50-169h31l1 190h-30c-1-10 1-25-2-33-11 22-28 36-60 37" id="C"/><g id="h"><use transform="matrix(0.05925925925925927,0,0,0.05925925925925927,0,0)" xlink:href="#B"/><use transform="matrix(0.05925925925925927,0,0,0.05925925925925927,11.851851851851853,0)" xlink:href="#x"/><use transform="matrix(0.05925925925925927,0,0,0.05925925925925927,23.703703703703706,0)" xlink:href="#C"/><use transform="matrix(0.05925925925925927,0,0,0.05925925925925927,35.55555555555556,0)" xlink:href="#m"/><use transform="matrix(0.05925925925925927,0,0,0.05925925925925927,47.40740740740741,0)" xlink:href="#z"/><use transform="matrix(0.05925925925925927,0,0,0.05925925925925927,52.088888888888896,0)" xlink:href="#r"/></g><g id="i"><use transform="matrix(0.05925925925925927,0,0,0.05925925925925927,0,0)" xlink:href="#z"/><use transform="matrix(0.05925925925925927,0,0,0.05925925925925927,4.681481481481482,0)" xlink:href="#n"/><use transform="matrix(0.05925925925925927,0,0,0.05925925925925927,9.362962962962964,0)" xlink:href="#s"/><use transform="matrix(0.05925925925925927,0,0,0.05925925925925927,20.029629629629632,0)" xlink:href="#w"/><use transform="matrix(0.05925925925925927,0,0,0.05925925925925927,25.95555555555556,0)" xlink:href="#s"/></g><g id="j"><use transform="matrix(0.05925925925925927,0,0,0.05925925925925927,0,0)" xlink:href="#x"/><use transform="matrix(0.05925925925925927,0,0,0.05925925925925927,11.851851851851853,0)" xlink:href="#o"/></g><g id="k"><use transform="matrix(0.05925925925925927,0,0,0.05925925925925927,0,0)" xlink:href="#s"/><use transform="matrix(0.05925925925925927,0,0,0.05925925925925927,10.666666666666668,0)" xlink:href="#n"/><use transform="matrix(0.05925925925925927,0,0,0.05925925925925927,15.34814814814815,0)" xlink:href="#o"/><use transform="matrix(0.05925925925925927,0,0,0.05925925925925927,27.200000000000003,0)" xlink:href="#y"/><use transform="matrix(0.05925925925925927,0,0,0.05925925925925927,39.05185185185186,0)" xlink:href="#z"/><use transform="matrix(0.05925925925925927,0,0,0.05925925925925927,43.73333333333334,0)" xlink:href="#r"/></g><g id="l"><use transform="matrix(0.05925925925925927,0,0,0.05925925925925927,0,0)" xlink:href="#B"/><use transform="matrix(0.05925925925925927,0,0,0.05925925925925927,11.851851851851853,0)" xlink:href="#x"/><use transform="matrix(0.05925925925925927,0,0,0.05925925925925927,23.703703703703706,0)" xlink:href="#C"/><use transform="matrix(0.05925925925925927,0,0,0.05925925925925927,35.55555555555556,0)" xlink:href="#m"/><use transform="matrix(0.05925925925925927,0,0,0.05925925925925927,47.40740740740741,0)" xlink:href="#z"/><use transform="matrix(0.05925925925925927,0,0,0.05925925925925927,52.088888888888896,0)" xlink:href="#r"/></g></defs></g></svg>