<?xml version="1.0" encoding="UTF-8"?>
<svg width="1226px" height="338px" viewBox="0 0 1226 338" version="1.1" xmlns="http://www.w3.org/2000/svg" xmlns:xlink="http://www.w3.org/1999/xlink">
    <!-- Generator: Sketch 43.1 (39012) - http://www.bohemiancoding.com/sketch -->
    <title>thesis</title>
    <desc>Created with Sketch.</desc>
    <defs></defs>
    <g id="Page-1" stroke="none" stroke-width="1" fill="none" fill-rule="evenodd">
        <g id="thesis" transform="translate(1.000000, 1.000000)">
            <polygon id="Shape" stroke="#000000" stroke-width="2" fill-opacity="0.45" fill="#E5E5E5" fill-rule="nonzero" points="0 0 1224 0 1224 335.342466 0 335.342466"></polygon>
            <polygon id="Shape" stroke="#000000" stroke-width="2" fill="#FFECA9" fill-rule="nonzero" points="504.690411 20.2882192 705.89589 20.2882192 705.89589 70.589589 504.690411 70.589589"></polygon>
            <g id="a-link" transform="translate(517.799817, 25.383071)" fill-rule="nonzero" fill="#000000">
                <g id="a">
                    <g id="m-link" transform="translate(0.304292, 0.447123)">
                        <path d="M4.57059361,3.32858447 C7.20365297,3.32858447 7.99853881,5.26611872 8.04821918,8.19726027 C8.04821918,11.4761644 6.90557078,13.1652968 4.57059361,13.1652968 C3.03050228,13.1156164 2.13625571,12.6188128 1.63945205,11.4761644 L1.54009132,12.9665753 L0,12.9665753 L0.0496803653,0 L1.63945205,0 L1.63945205,5.01771689 C2.13625571,3.87506849 3.03050228,3.32858447 4.57059361,3.32858447 Z M4.17315068,11.972968 C6.1603653,11.972968 6.40876712,10.2838356 6.40876712,8.24694064 C6.40876712,6.25972603 6.1603653,4.52091324 4.17315068,4.57059361 C2.08657534,4.57059361 1.63945205,6.1603653 1.63945205,8.34630137 C1.63945205,10.4825571 2.13625571,11.972968 4.17315068,11.972968 L4.17315068,11.972968 Z" id="m"></path>
                    </g>
                    <g id="n-link" transform="translate(10.290046, 0.447123)">
                        <path d="M0,1.49041096 L0,0 L1.58977169,0 L1.58977169,1.49041096 L0,1.49041096 Z M0,12.9665753 L0,3.52730594 L1.58977169,3.52730594 L1.58977169,12.9665753 L0,12.9665753 L0,12.9665753 Z" id="n"></path>
                    </g>
                    <g id="o-link" transform="translate(14.214795, 3.726027)">
                        <path d="M4.62027397,0.0496803653 C9.04182648,-0.149041096 7.25333333,5.81260274 7.60109589,9.68767123 L6.0113242,9.68767123 L6.0113242,3.67634703 C6.0113242,2.13625571 5.61388128,1.24200913 4.07378995,1.2916895 C0.496803653,1.39105023 1.88785388,6.35908676 1.63945205,9.68767123 L0.0496803653,9.68767123 L0,0.248401826 L1.49041096,0.248401826 C1.54009132,0.745205479 1.44073059,1.44073059 1.58977169,1.83817352 C2.13625571,0.745205479 3.03050228,0.0993607306 4.62027397,0.0496803653" id="o"></path>
                    </g>
                    <g id="p-link" transform="translate(23.654064, 3.775708)">
                        <path d="M6.30940639,7.84949772 C5.56420091,8.89278539 4.76931507,9.88639269 2.93114155,9.83671233 C1.1426484,9.78703196 0.0496803653,8.79342466 0.0496803653,7.00493151 C6.24500451e-17,3.82538813 3.17954338,3.87506849 6.25972603,3.87506849 C6.40876712,2.13625571 5.81260274,1.19232877 4.22283105,1.19232877 C3.03050228,1.24200913 2.18593607,1.54009132 2.13625571,2.73242009 L0.496803653,2.583379 C0.745205479,0.745205479 2.13625571,0 4.27251142,0 C6.50812785,0 7.84949772,0.993607306 7.84949772,3.17954338 L7.84949772,7.25333333 C7.79981735,8.24694064 8.19726027,8.84310502 9.24054795,8.5947032 L9.24054795,9.5883105 C7.70045662,10.0354338 6.21004566,9.48894977 6.30940639,7.84949772 Z M1.68913242,7.00493151 C1.68913242,7.99853881 2.2852968,8.64438356 3.27890411,8.64438356 C5.31579909,8.49534247 6.40876712,7.20365297 6.25972603,4.96803653 C4.12347032,5.06739726 1.68913242,4.7196347 1.68913242,7.00493151 L1.68913242,7.00493151 Z" id="p"></path>
                    </g>
                    <g id="q-link" transform="translate(34.086941, 3.775708)">
                        <path d="M4.47123288,1.54009132 C0.596164384,0.745205479 1.83817352,6.06100457 1.63945205,9.63799087 L0.0496803653,9.63799087 L0,0.198721461 L1.49041096,0.198721461 C1.54009132,0.794885845 1.44073059,1.63945205 1.58977169,2.13625571 C1.88785388,0.794885845 2.73242009,-0.298082192 4.47123288,0.0993607306 L4.47123288,1.54009132" id="q"></path>
                    </g>
                    <g id="r-link" transform="translate(38.856256, 3.974429)">
                        <path d="M8.84310502,0 L4.57059361,10.9793607 C3.87506849,12.370411 2.73242009,13.5130594 0.546484018,13.0659361 L0.546484018,11.8736073 C2.48401826,12.1716895 3.17954338,10.88 3.7260274,9.38958904 L0,0 L1.68913242,0 L4.52091324,7.75013699 L7.20365297,0 L8.84310502,0" id="r"></path>
                    </g>
                </g>
            </g>
            <g id="b-link" transform="translate(570.516895, 25.383071)" fill-rule="nonzero" fill="#000000">
                <g id="b">
                    <g id="s-link" transform="translate(0.496804, 3.775708)">
                        <path d="M6.21004566,2.53369863 C6.06100457,0.84456621 1.93753425,0.645844749 1.88785388,2.53369863 C2.63305936,5.16675799 7.60109589,3.12986301 7.79981735,7.00493151 C7.99853881,10.88 0.347762557,10.6812785 0,7.40237443 L1.39105023,7.1539726 C1.58977169,8.94246575 6.21004566,9.38958904 6.25972603,7.1539726 C5.76292237,4.37187215 0.645844749,6.40876712 0.397442922,2.68273973 C0.198721461,-0.149041096 4.47123288,-0.447123288 6.45844749,0.596164384 C7.05461187,0.943926941 7.50173516,1.54009132 7.65077626,2.33497717" id="s"></path>
                    </g>
                    <g id="t-link" transform="translate(9.637991, 3.775708)">
                        <path d="M4.27251142,0 C7.40237443,0 8.54502283,2.08657534 8.4456621,5.26611872 L1.73881279,5.26611872 C1.73881279,7.25333333 2.4343379,8.5947032 4.37187215,8.64438356 C5.66356164,8.69406393 6.50812785,8.04821918 6.80621005,7.20365297 L8.19726027,7.60109589 C7.65077626,8.99214612 6.35908676,9.83671233 4.37187215,9.83671233 C1.49041096,9.83671233 -6.9388939e-18,7.99853881 0.0496803653,4.8686758 C0.0993607306,1.83817352 1.34136986,0 4.27251142,0 Z M6.85589041,4.02410959 C7.1539726,1.04328767 3.08018265,0.198721461 2.03689498,2.63305936 C1.88785388,2.98082192 1.73881279,3.47762557 1.73881279,4.02410959 L6.85589041,4.02410959 L6.85589041,4.02410959 Z" id="t"></path>
                    </g>
                    <g id="p-link" transform="translate(19.574064, 3.775708)">
                        <path d="M6.30940639,7.84949772 C5.56420091,8.89278539 4.76931507,9.88639269 2.93114155,9.83671233 C1.1426484,9.78703196 0.0496803653,8.79342466 0.0496803653,7.00493151 C5.55111512e-17,3.82538813 3.17954338,3.87506849 6.25972603,3.87506849 C6.40876712,2.13625571 5.81260274,1.19232877 4.22283105,1.19232877 C3.03050228,1.24200913 2.18593607,1.54009132 2.13625571,2.73242009 L0.496803653,2.583379 C0.745205479,0.745205479 2.13625571,0 4.27251142,0 C6.50812785,0 7.84949772,0.993607306 7.84949772,3.17954338 L7.84949772,7.25333333 C7.79981735,8.24694064 8.19726027,8.84310502 9.24054795,8.5947032 L9.24054795,9.5883105 C7.70045662,10.0354338 6.21004566,9.48894977 6.30940639,7.84949772 Z M1.68913242,7.00493151 C1.68913242,7.99853881 2.2852968,8.64438356 3.27890411,8.64438356 C5.31579909,8.49534247 6.40876712,7.20365297 6.25972603,4.96803653 C4.12347032,5.06739726 1.68913242,4.7196347 1.68913242,7.00493151 L1.68913242,7.00493151 Z" id="p"></path>
                    </g>
                    <g id="q-link" transform="translate(30.006941, 3.775708)">
                        <path d="M4.47123288,1.54009132 C0.596164384,0.745205479 1.83817352,6.06100457 1.63945205,9.63799087 L0.0496803653,9.63799087 L0,0.198721461 L1.49041096,0.198721461 C1.54009132,0.794885845 1.44073059,1.63945205 1.58977169,2.13625571 C1.88785388,0.794885845 2.73242009,-0.298082192 4.47123288,0.0993607306 L4.47123288,1.54009132" id="q"></path>
                    </g>
                    <g id="u-link" transform="translate(35.422100, 3.825388)">
                        <path d="M4.07378995,1.19232877 C2.08657534,1.19232877 1.68913242,2.83178082 1.68913242,4.81899543 C1.68913242,6.80621005 2.13625571,8.54502283 4.07378995,8.54502283 C5.26611872,8.54502283 6.11068493,7.84949772 6.21004566,6.65716895 L7.79981735,6.75652968 C7.50173516,8.5947032 6.25972603,9.78703196 4.12347032,9.78703196 C1.19232877,9.78703196 0.347762557,7.75013699 0.0496803653,4.8686758 C-0.447123288,0.248401826 5.06739726,-1.63945205 7.35269406,1.68913242 C7.55141553,2.03689498 7.60109589,2.38465753 7.70045662,2.78210046 L6.11068493,2.93114155 C5.91196347,1.88785388 5.31579909,1.19232877 4.07378995,1.19232877" id="u"></path>
                    </g>
                    <g id="v-link" transform="translate(44.911050, 0.447123)">
                        <path d="M4.02410959,4.57059361 C0.447123288,4.57059361 1.83817352,9.63799087 1.58977169,12.9665753 L0,12.9665753 L0,0 L1.58977169,0 L1.54009132,5.11707763 C2.13625571,4.07378995 2.93114155,3.32858447 4.57059361,3.32858447 C8.99214612,3.32858447 7.20365297,9.09150685 7.55141553,12.9665753 L5.96164384,12.9665753 L5.96164384,6.95525114 C6.06100457,5.36547945 5.56420091,4.52091324 4.02410959,4.57059361" id="v"></path>
                    </g>
                </g>
            </g>
            <g id="c-link" transform="translate(629.090046, 27.059784)" fill-rule="nonzero" fill="#000000">
                <g id="c">
                    <g id="w-link" transform="translate(0.248402, 0.161461)">
                        <path d="M2.68273973,9.24054795 C2.583379,10.4328767 3.5769863,10.6812785 4.57059361,10.333516 L4.57059361,11.5258447 C2.93114155,12.0226484 1.09296804,11.7742466 1.09296804,9.5883105 L1.09296804,3.27890411 L0,3.27890411 L0,2.13625571 L1.19232877,2.13625571 L1.63945205,0 L2.68273973,0 L2.68273973,2.13625571 L4.42155251,2.13625571 L4.42155251,3.27890411 L2.68273973,3.27890411 L2.68273973,9.24054795" id="w"></path>
                    </g>
                    <g id="q-link" transform="translate(6.160365, 2.098995)">
                        <path d="M4.47123288,1.54009132 C0.596164384,0.745205479 1.83817352,6.06100457 1.63945205,9.63799087 L0.0496803653,9.63799087 L0,0.198721461 L1.49041096,0.198721461 C1.54009132,0.794885845 1.44073059,1.63945205 1.58977169,2.13625571 C1.88785388,0.794885845 2.73242009,-0.298082192 4.47123288,0.0993607306 L4.47123288,1.54009132" id="q"></path>
                    </g>
                    <g id="t-link" transform="translate(11.575525, 2.098995)">
                        <path d="M4.27251142,0 C7.40237443,0 8.54502283,2.08657534 8.4456621,5.26611872 L1.73881279,5.26611872 C1.73881279,7.25333333 2.4343379,8.5947032 4.37187215,8.64438356 C5.66356164,8.69406393 6.50812785,8.04821918 6.80621005,7.20365297 L8.19726027,7.60109589 C7.65077626,8.99214612 6.35908676,9.83671233 4.37187215,9.83671233 C1.49041096,9.83671233 0,7.99853881 0.0496803653,4.8686758 C0.0993607306,1.83817352 1.34136986,0 4.27251142,0 Z M6.85589041,4.02410959 C7.1539726,1.04328767 3.08018265,0.198721461 2.03689498,2.63305936 C1.88785388,2.98082192 1.73881279,3.47762557 1.73881279,4.02410959 L6.85589041,4.02410959 L6.85589041,4.02410959 Z" id="t"></path>
                    </g>
                    <g id="t-link" transform="translate(21.511598, 2.098995)">
                        <path d="M4.27251142,0 C7.40237443,0 8.54502283,2.08657534 8.4456621,5.26611872 L1.73881279,5.26611872 C1.73881279,7.25333333 2.4343379,8.5947032 4.37187215,8.64438356 C5.66356164,8.69406393 6.50812785,8.04821918 6.80621005,7.20365297 L8.19726027,7.60109589 C7.65077626,8.99214612 6.35908676,9.83671233 4.37187215,9.83671233 C1.49041096,9.83671233 -6.9388939e-18,7.99853881 0.0496803653,4.8686758 C0.0993607306,1.83817352 1.34136986,0 4.27251142,0 Z M6.85589041,4.02410959 C7.1539726,1.04328767 3.08018265,0.198721461 2.03689498,2.63305936 C1.88785388,2.98082192 1.73881279,3.47762557 1.73881279,4.02410959 L6.85589041,4.02410959 L6.85589041,4.02410959 Z" id="t"></path>
                    </g>
                    <g id="s-link" transform="translate(31.248950, 2.098995)">
                        <path d="M6.21004566,2.53369863 C6.06100457,0.84456621 1.93753425,0.645844749 1.88785388,2.53369863 C2.63305936,5.16675799 7.60109589,3.12986301 7.79981735,7.00493151 C7.99853881,10.88 0.347762557,10.6812785 0,7.40237443 L1.39105023,7.1539726 C1.58977169,8.94246575 6.21004566,9.38958904 6.25972603,7.1539726 C5.76292237,4.37187215 0.645844749,6.40876712 0.397442922,2.68273973 C0.198721461,-0.149041096 4.47123288,-0.447123288 6.45844749,0.596164384 C7.05461187,0.943926941 7.50173516,1.54009132 7.65077626,2.33497717" id="s"></path>
                    </g>
                </g>
            </g>
            <g id="d-link" transform="translate(673.752694, 28.736496)" fill-rule="nonzero" fill="#000000">
                <g id="d">
                    <g id="x-link" transform="translate(0.745205, 0.372603)">
                        <path d="M4.22283105,0.0496803653 C7.3030137,-6.66133815e-16 8.4456621,1.88785388 8.4456621,4.96803653 C8.49534247,8.09789954 7.10429224,9.88639269 4.17315068,9.88639269 C1.24200913,9.88639269 0.0496803653,7.94885845 0,4.96803653 C0,1.68913242 1.39105023,0.0496803653 4.22283105,0.0496803653 Z M4.17315068,8.69406393 C6.35908676,8.74374429 6.80621005,7.1539726 6.80621005,4.96803653 C6.80621005,2.83178082 6.40876712,1.24200913 4.27251142,1.24200913 C2.13625571,1.24200913 1.63945205,2.83178082 1.63945205,4.96803653 C1.63945205,7.10429224 2.13625571,8.64438356 4.17315068,8.69406393 L4.17315068,8.69406393 Z" id="x"></path>
                    </g>
                    <g id="o-link" transform="translate(11.128402, 0.372603)">
                        <path d="M4.62027397,0.0496803653 C9.04182648,-0.149041096 7.25333333,5.81260274 7.60109589,9.68767123 L6.0113242,9.68767123 L6.0113242,3.67634703 C6.0113242,2.13625571 5.61388128,1.24200913 4.07378995,1.2916895 C0.496803653,1.39105023 1.88785388,6.35908676 1.63945205,9.68767123 L0.0496803653,9.68767123 L0,0.248401826 L1.49041096,0.248401826 C1.54009132,0.745205479 1.44073059,1.44073059 1.58977169,1.83817352 C2.13625571,0.745205479 3.03050228,0.0993607306 4.62027397,0.0496803653" id="o"></path>
                    </g>
                </g>
            </g>
            <g id="e-link" transform="translate(538.870502, 46.844989)" fill-rule="nonzero" fill="#000000">
                <g id="e">
                    <g id="s-link" transform="translate(0.496804, 3.775708)">
                        <path d="M6.21004566,2.53369863 C6.06100457,0.84456621 1.93753425,0.645844749 1.88785388,2.53369863 C2.63305936,5.16675799 7.60109589,3.12986301 7.79981735,7.00493151 C7.99853881,10.88 0.347762557,10.6812785 0,7.40237443 L1.39105023,7.1539726 C1.58977169,8.94246575 6.21004566,9.38958904 6.25972603,7.1539726 C5.76292237,4.37187215 0.645844749,6.40876712 0.397442922,2.68273973 C0.198721461,-0.149041096 4.47123288,-0.447123288 6.45844749,0.596164384 C7.05461187,0.943926941 7.50173516,1.54009132 7.65077626,2.33497717" id="s"></path>
                    </g>
                    <g id="n-link" transform="translate(10.134795, 0.447123)">
                        <path d="M0,1.49041096 L0,0 L1.58977169,0 L1.58977169,1.49041096 L0,1.49041096 Z M0,12.9665753 L0,3.52730594 L1.58977169,3.52730594 L1.58977169,12.9665753 L0,12.9665753 L0,12.9665753 Z" id="n"></path>
                    </g>
                    <g id="o-link" transform="translate(14.059543, 3.726027)">
                        <path d="M4.62027397,0.0496803653 C9.04182648,-0.149041096 7.25333333,5.81260274 7.60109589,9.68767123 L6.0113242,9.68767123 L6.0113242,3.67634703 C6.0113242,2.13625571 5.61388128,1.24200913 4.07378995,1.2916895 C0.496803653,1.39105023 1.88785388,6.35908676 1.63945205,9.68767123 L0.0496803653,9.68767123 L0,0.248401826 L1.49041096,0.248401826 C1.54009132,0.745205479 1.44073059,1.44073059 1.58977169,1.83817352 C2.13625571,0.745205479 3.03050228,0.0993607306 4.62027397,0.0496803653" id="o"></path>
                    </g>
                    <g id="y-link" transform="translate(23.548493, 3.775708)">
                        <path d="M8.04821918,0.198721461 C7.55141553,6.40876712 10.0851142,14.7550685 2.583379,13.1652968 C1.44073059,12.8672146 0.695525114,12.1716895 0.397442922,11.0290411 L1.98721461,10.7806393 C2.73242009,13.1156164 6.95525114,12.370411 6.40876712,9.38958904 L6.40876712,7.89917808 C5.86228311,8.94246575 4.96803653,9.68767123 3.37826484,9.68767123 C0.695525114,9.68767123 0,7.65077626 0,4.91835616 C0,2.13625571 0.794885845,0.0993607306 3.52730594,0.0496803653 C4.96803653,2.49800181e-16 5.91196347,0.84456621 6.45844749,1.78849315 C6.50812785,1.2916895 6.45844749,0.645844749 6.55780822,0.198721461 L8.04821918,0.198721461 Z M3.92474886,8.54502283 C5.71324201,8.54502283 6.40876712,6.95525114 6.40876712,4.91835616 C6.40876712,2.83178082 5.71324201,1.19232877 3.92474886,1.19232877 C1.98721461,1.19232877 1.63945205,2.88146119 1.63945205,4.91835616 C1.63945205,6.95525114 1.93753425,8.54502283 3.92474886,8.54502283 L3.92474886,8.54502283 Z" id="y"></path>
                    </g>
                    <g id="z-link" transform="translate(33.931689, 0.447123)">
                        <polyline id="z" points="0 12.9665753 0 0 1.58977169 0 1.58977169 12.9665753 0 12.9665753"></polyline>
                    </g>
                    <g id="r-link" transform="translate(36.713790, 3.974429)">
                        <path d="M8.84310502,0 L4.57059361,10.9793607 C3.87506849,12.370411 2.73242009,13.5130594 0.546484018,13.0659361 L0.546484018,11.8736073 C2.48401826,12.1716895 3.17954338,10.88 3.7260274,9.38958904 L0,0 L1.68913242,0 L4.52091324,7.75013699 L7.20365297,0 L8.84310502,0" id="r"></path>
                    </g>
                </g>
            </g>
            <g id="f-link" transform="translate(590.283470, 46.844989)" fill-rule="nonzero" fill="#000000">
                <g id="f">
                    <g id="z-link" transform="translate(0.353973, 0.447123)">
                        <polyline id="z" points="0 12.9665753 0 0 1.58977169 0 1.58977169 12.9665753 0 12.9665753"></polyline>
                    </g>
                    <g id="n-link" transform="translate(4.278721, 0.447123)">
                        <path d="M0,1.49041096 L0,0 L1.58977169,0 L1.58977169,1.49041096 L0,1.49041096 Z M0,12.9665753 L0,3.52730594 L1.58977169,3.52730594 L1.58977169,12.9665753 L0,12.9665753 L0,12.9665753 Z" id="n"></path>
                    </g>
                    <g id="o-link" transform="translate(8.203470, 3.726027)">
                        <path d="M4.62027397,0.0496803653 C9.04182648,-0.149041096 7.25333333,5.81260274 7.60109589,9.68767123 L6.0113242,9.68767123 L6.0113242,3.67634703 C6.0113242,2.13625571 5.61388128,1.24200913 4.07378995,1.2916895 C0.496803653,1.39105023 1.88785388,6.35908676 1.63945205,9.68767123 L0.0496803653,9.68767123 L0,0.248401826 L1.49041096,0.248401826 C1.54009132,0.745205479 1.44073059,1.44073059 1.58977169,1.83817352 C2.13625571,0.745205479 3.03050228,0.0993607306 4.62027397,0.0496803653" id="o"></path>
                    </g>
                    <g id="A-link" transform="translate(18.139543, 0.447123)">
                        <polyline id="A" points="5.91196347 12.9665753 2.73242009 8.64438356 1.58977169 9.5883105 1.58977169 12.9665753 0 12.9665753 0 0 1.58977169 0 1.58977169 8.09789954 5.71324201 3.52730594 7.55141553 3.52730594 3.7260274 7.60109589 7.79981735 12.9665753 5.91196347 12.9665753"></polyline>
                    </g>
                    <g id="t-link" transform="translate(26.585205, 3.775708)">
                        <path d="M4.27251142,0 C7.40237443,0 8.54502283,2.08657534 8.4456621,5.26611872 L1.73881279,5.26611872 C1.73881279,7.25333333 2.4343379,8.5947032 4.37187215,8.64438356 C5.66356164,8.69406393 6.50812785,8.04821918 6.80621005,7.20365297 L8.19726027,7.60109589 C7.65077626,8.99214612 6.35908676,9.83671233 4.37187215,9.83671233 C1.49041096,9.83671233 0,7.99853881 0.0496803653,4.8686758 C0.0993607306,1.83817352 1.34136986,0 4.27251142,0 Z M6.85589041,4.02410959 C7.1539726,1.04328767 3.08018265,0.198721461 2.03689498,2.63305936 C1.88785388,2.98082192 1.73881279,3.47762557 1.73881279,4.02410959 L6.85589041,4.02410959 L6.85589041,4.02410959 Z" id="t"></path>
                    </g>
                    <g id="B-link" transform="translate(36.570959, 0.447123)">
                        <path d="M3.47762557,3.32858447 C5.01771689,3.32858447 5.86228311,3.97442922 6.45844749,4.96803653 L6.40876712,0 L7.99853881,0 L8.04821918,12.9665753 L6.55780822,12.9665753 C6.45844749,12.4697717 6.55780822,11.8239269 6.40876712,11.426484 C5.91196347,12.5691324 5.01771689,13.1652968 3.47762557,13.1652968 C0.84456621,13.1652968 0.0496803653,11.2277626 0,8.296621 C0,5.01771689 1.1426484,3.32858447 3.47762557,3.32858447 Z M3.92474886,4.52091324 C1.93753425,4.52091324 1.63945205,6.21004566 1.63945205,8.24694064 C1.63945205,10.2341553 1.93753425,11.9232877 3.87506849,11.9232877 C5.96164384,11.9232877 6.40876712,10.333516 6.40876712,8.14757991 C6.40876712,6.06100457 5.96164384,4.47123288 3.92474886,4.52091324 L3.92474886,4.52091324 Z" id="B"></path>
                    </g>
                </g>
            </g>
            <g id="g-link" transform="translate(641.851689, 46.844989)" fill-rule="nonzero" fill="#000000">
                <g id="g">
                    <g id="z-link" transform="translate(0.353973, 0.447123)">
                        <polyline id="z" points="0 12.9665753 0 0 1.58977169 0 1.58977169 12.9665753 0 12.9665753"></polyline>
                    </g>
                    <g id="n-link" transform="translate(4.278721, 0.447123)">
                        <path d="M0,1.49041096 L0,0 L1.58977169,0 L1.58977169,1.49041096 L0,1.49041096 Z M0,12.9665753 L0,3.52730594 L1.58977169,3.52730594 L1.58977169,12.9665753 L0,12.9665753 L0,12.9665753 Z" id="n"></path>
                    </g>
                    <g id="s-link" transform="translate(7.507945, 3.775708)">
                        <path d="M6.21004566,2.53369863 C6.06100457,0.84456621 1.93753425,0.645844749 1.88785388,2.53369863 C2.63305936,5.16675799 7.60109589,3.12986301 7.79981735,7.00493151 C7.99853881,10.88 0.347762557,10.6812785 0,7.40237443 L1.39105023,7.1539726 C1.58977169,8.94246575 6.21004566,9.38958904 6.25972603,7.1539726 C5.76292237,4.37187215 0.645844749,6.40876712 0.397442922,2.68273973 C0.198721461,-0.149041096 4.47123288,-0.447123288 6.45844749,0.596164384 C7.05461187,0.943926941 7.50173516,1.54009132 7.65077626,2.33497717" id="s"></path>
                    </g>
                    <g id="w-link" transform="translate(16.202009, 1.838174)">
                        <path d="M2.68273973,9.24054795 C2.583379,10.4328767 3.5769863,10.6812785 4.57059361,10.333516 L4.57059361,11.5258447 C2.93114155,12.0226484 1.09296804,11.7742466 1.09296804,9.5883105 L1.09296804,3.27890411 L0,3.27890411 L0,2.13625571 L1.19232877,2.13625571 L1.63945205,0 L2.68273973,0 L2.68273973,2.13625571 L4.42155251,2.13625571 L4.42155251,3.27890411 L2.68273973,3.27890411 L2.68273973,9.24054795" id="w"></path>
                    </g>
                    <g id="s-link" transform="translate(21.418447, 3.775708)">
                        <path d="M6.21004566,2.53369863 C6.06100457,0.84456621 1.93753425,0.645844749 1.88785388,2.53369863 C2.63305936,5.16675799 7.60109589,3.12986301 7.79981735,7.00493151 C7.99853881,10.88 0.347762557,10.6812785 0,7.40237443 L1.39105023,7.1539726 C1.58977169,8.94246575 6.21004566,9.38958904 6.25972603,7.1539726 C5.76292237,4.37187215 0.645844749,6.40876712 0.397442922,2.68273973 C0.198721461,-0.149041096 4.47123288,-0.447123288 6.45844749,0.596164384 C7.05461187,0.943926941 7.50173516,1.54009132 7.65077626,2.33497717" id="s"></path>
                    </g>
                </g>
            </g>
            <polygon id="Shape" stroke="#000000" stroke-width="2" fill-opacity="0.6" fill="#FFDF71" fill-rule="nonzero" points="33.5342466 169.180274 435.945205 169.180274 435.945205 250.92 33.5342466 250.92"></polygon>
            <polygon id="Shape" stroke="#000000" stroke-width="2" fill-opacity="0.7" fill="#F5B5C8" fill-rule="nonzero" points="50.3013699 180.556767 150.90411 180.556767 150.90411 227.269973 50.3013699 227.269973"></polygon>
            <path d="M67.7391781,180.556767 L67.7391781,227.856822" id="Shape" stroke="#000000" stroke-width="2"></path>
            <path d="M87.859726,180.556767 L87.859726,227.856822 M107.980274,180.556767 L107.980274,227.856822 M128.100822,180.556767 L128.100822,227.856822" id="Shape" stroke="#000000" stroke-width="2"></path>
            <polygon id="Shape" stroke="#000000" stroke-width="2" fill-opacity="0.7" fill="#F5B5C8" fill-rule="nonzero" points="184.438356 180.556767 285.041096 180.556767 285.041096 227.269973 184.438356 227.269973"></polygon>
            <path d="M201.876164,180.556767 L201.876164,227.856822" id="Shape" stroke="#000000" stroke-width="2"></path>
            <path d="M221.996712,180.556767 L221.996712,227.856822 M242.11726,180.556767 L242.11726,227.856822 M262.237808,180.556767 L262.237808,227.856822 M169.909644,168.660493 L169.909644,251.431397" id="Shape" stroke="#000000" stroke-width="2"></path>
            <path d="M304.04663,168.593425 L304.04663,251.506849" id="Shape" stroke="#000000" stroke-width="2"></path>
            <polygon id="Shape" stroke="#000000" stroke-width="2" fill-opacity="0.7" fill="#F5B5C8" fill-rule="nonzero" points="318.575342 180.556767 419.178082 180.556767 419.178082 227.269973 318.575342 227.269973"></polygon>
            <path d="M336.013151,180.556767 L336.013151,227.856822" id="Shape" stroke="#000000" stroke-width="2"></path>
            <path d="M356.133699,180.556767 L356.133699,227.856822 M376.254247,180.556767 L376.254247,227.856822 M396.374795,180.556767 L396.374795,227.856822" id="Shape" stroke="#000000" stroke-width="2"></path>
            <polygon id="Shape" stroke="#000000" stroke-width="2" fill-opacity="0.58" fill="#C1E4F7" fill-rule="nonzero" points="67.0684932 134.136986 385.643836 134.136986 385.643836 157.845699 67.0684932 157.845699"></polygon>
            <g id="h-link" transform="translate(75.104292, 139.223014)" fill-rule="nonzero" fill="#000000">
                <g id="h">
                    <g id="B-link" transform="translate(0.745205, 0.447123)">
                        <path d="M3.47762557,3.32858447 C5.01771689,3.32858447 5.86228311,3.97442922 6.45844749,4.96803653 L6.40876712,0 L7.99853881,0 L8.04821918,12.9665753 L6.55780822,12.9665753 C6.45844749,12.4697717 6.55780822,11.8239269 6.40876712,11.426484 C5.91196347,12.5691324 5.01771689,13.1652968 3.47762557,13.1652968 C0.84456621,13.1652968 0.0496803653,11.2277626 0,8.296621 C0,5.01771689 1.1426484,3.32858447 3.47762557,3.32858447 Z M3.92474886,4.52091324 C1.93753425,4.52091324 1.63945205,6.21004566 1.63945205,8.24694064 C1.63945205,10.2341553 1.93753425,11.9232877 3.87506849,11.9232877 C5.96164384,11.9232877 6.40876712,10.333516 6.40876712,8.14757991 C6.40876712,6.06100457 5.96164384,4.47123288 3.92474886,4.52091324 L3.92474886,4.52091324 Z" id="B"></path>
                    </g>
                    <g id="x-link" transform="translate(10.681279, 3.726027)">
                        <path d="M4.22283105,0.0496803653 C7.3030137,-6.66133815e-16 8.4456621,1.88785388 8.4456621,4.96803653 C8.49534247,8.09789954 7.10429224,9.88639269 4.17315068,9.88639269 C1.24200913,9.88639269 0.0496803653,7.94885845 0,4.96803653 C0,1.68913242 1.39105023,0.0496803653 4.22283105,0.0496803653 Z M4.17315068,8.69406393 C6.35908676,8.74374429 6.80621005,7.1539726 6.80621005,4.96803653 C6.80621005,2.83178082 6.40876712,1.24200913 4.27251142,1.24200913 C2.13625571,1.24200913 1.63945205,2.83178082 1.63945205,4.96803653 C1.63945205,7.10429224 2.13625571,8.64438356 4.17315068,8.69406393 L4.17315068,8.69406393 Z" id="x"></path>
                    </g>
                    <g id="C-link" transform="translate(20.915434, 3.974429)">
                        <path d="M3.12986301,9.63799087 C-1.2916895,9.83671233 0.447123288,3.87506849 0.0993607306,0 L1.68913242,0 L1.68913242,5.96164384 C1.68913242,7.50173516 2.03689498,8.4456621 3.62666667,8.39598174 C7.20365297,8.296621 5.86228311,3.37826484 6.11068493,0 L7.65077626,0 L7.70045662,9.43926941 L6.21004566,9.43926941 C6.1603653,8.94246575 6.25972603,8.19726027 6.11068493,7.79981735 C5.56420091,8.89278539 4.7196347,9.5883105 3.12986301,9.63799087" id="C"></path>
                    </g>
                    <g id="m-link" transform="translate(30.950868, 0.447123)">
                        <path d="M4.57059361,3.32858447 C7.20365297,3.32858447 7.99853881,5.26611872 8.04821918,8.19726027 C8.04821918,11.4761644 6.90557078,13.1652968 4.57059361,13.1652968 C3.03050228,13.1156164 2.13625571,12.6188128 1.63945205,11.4761644 L1.54009132,12.9665753 L0,12.9665753 L0.0496803653,0 L1.63945205,0 L1.63945205,5.01771689 C2.13625571,3.87506849 3.03050228,3.32858447 4.57059361,3.32858447 Z M4.17315068,11.972968 C6.1603653,11.972968 6.40876712,10.2838356 6.40876712,8.24694064 C6.40876712,6.25972603 6.1603653,4.52091324 4.17315068,4.57059361 C2.08657534,4.57059361 1.63945205,6.1603653 1.63945205,8.34630137 C1.63945205,10.4825571 2.13625571,11.972968 4.17315068,11.972968 L4.17315068,11.972968 Z" id="m"></path>
                    </g>
                    <g id="z-link" transform="translate(40.936621, 0.447123)">
                        <polyline id="z" points="0 12.9665753 0 0 1.58977169 0 1.58977169 12.9665753 0 12.9665753"></polyline>
                    </g>
                    <g id="r-link" transform="translate(43.718721, 3.974429)">
                        <path d="M8.84310502,0 L4.57059361,10.9793607 C3.87506849,12.370411 2.73242009,13.5130594 0.546484018,13.0659361 L0.546484018,11.8736073 C2.48401826,12.1716895 3.17954338,10.88 3.7260274,9.38958904 L0,0 L1.68913242,0 L4.52091324,7.75013699 L7.20365297,0 L8.84310502,0" id="r"></path>
                    </g>
                </g>
            </g>
            <g id="f-link" transform="translate(133.522192, 139.223014)" fill-rule="nonzero" fill="#000000">
                <g id="f">
                    <g id="z-link" transform="translate(0.353973, 0.447123)">
                        <polyline id="z" points="0 12.9665753 0 0 1.58977169 0 1.58977169 12.9665753 0 12.9665753"></polyline>
                    </g>
                    <g id="n-link" transform="translate(4.278721, 0.447123)">
                        <path d="M0,1.49041096 L0,0 L1.58977169,0 L1.58977169,1.49041096 L0,1.49041096 Z M0,12.9665753 L0,3.52730594 L1.58977169,3.52730594 L1.58977169,12.9665753 L0,12.9665753 L0,12.9665753 Z" id="n"></path>
                    </g>
                    <g id="o-link" transform="translate(8.203470, 3.726027)">
                        <path d="M4.62027397,0.0496803653 C9.04182648,-0.149041096 7.25333333,5.81260274 7.60109589,9.68767123 L6.0113242,9.68767123 L6.0113242,3.67634703 C6.0113242,2.13625571 5.61388128,1.24200913 4.07378995,1.2916895 C0.496803653,1.39105023 1.88785388,6.35908676 1.63945205,9.68767123 L0.0496803653,9.68767123 L0,0.248401826 L1.49041096,0.248401826 C1.54009132,0.745205479 1.44073059,1.44073059 1.58977169,1.83817352 C2.13625571,0.745205479 3.03050228,0.0993607306 4.62027397,0.0496803653" id="o"></path>
                    </g>
                    <g id="A-link" transform="translate(18.139543, 0.447123)">
                        <polyline id="A" points="5.91196347 12.9665753 2.73242009 8.64438356 1.58977169 9.5883105 1.58977169 12.9665753 0 12.9665753 0 0 1.58977169 0 1.58977169 8.09789954 5.71324201 3.52730594 7.55141553 3.52730594 3.7260274 7.60109589 7.79981735 12.9665753 5.91196347 12.9665753"></polyline>
                    </g>
                    <g id="t-link" transform="translate(26.585205, 3.775708)">
                        <path d="M4.27251142,0 C7.40237443,0 8.54502283,2.08657534 8.4456621,5.26611872 L1.73881279,5.26611872 C1.73881279,7.25333333 2.4343379,8.5947032 4.37187215,8.64438356 C5.66356164,8.69406393 6.50812785,8.04821918 6.80621005,7.20365297 L8.19726027,7.60109589 C7.65077626,8.99214612 6.35908676,9.83671233 4.37187215,9.83671233 C1.49041096,9.83671233 0,7.99853881 0.0496803653,4.8686758 C0.0993607306,1.83817352 1.34136986,0 4.27251142,0 Z M6.85589041,4.02410959 C7.1539726,1.04328767 3.08018265,0.198721461 2.03689498,2.63305936 C1.88785388,2.98082192 1.73881279,3.47762557 1.73881279,4.02410959 L6.85589041,4.02410959 L6.85589041,4.02410959 Z" id="t"></path>
                    </g>
                    <g id="B-link" transform="translate(36.570959, 0.447123)">
                        <path d="M3.47762557,3.32858447 C5.01771689,3.32858447 5.86228311,3.97442922 6.45844749,4.96803653 L6.40876712,0 L7.99853881,0 L8.04821918,12.9665753 L6.55780822,12.9665753 C6.45844749,12.4697717 6.55780822,11.8239269 6.40876712,11.426484 C5.91196347,12.5691324 5.01771689,13.1652968 3.47762557,13.1652968 C0.84456621,13.1652968 0.0496803653,11.2277626 0,8.296621 C0,5.01771689 1.1426484,3.32858447 3.47762557,3.32858447 Z M3.92474886,4.52091324 C1.93753425,4.52091324 1.63945205,6.21004566 1.63945205,8.24694064 C1.63945205,10.2341553 1.93753425,11.9232877 3.87506849,11.9232877 C5.96164384,11.9232877 6.40876712,10.333516 6.40876712,8.14757991 C6.40876712,6.06100457 5.96164384,4.47123288 3.92474886,4.52091324 L3.92474886,4.52091324 Z" id="B"></path>
                    </g>
                </g>
            </g>
            <g id="i-link" transform="translate(185.090411, 139.223014)" fill-rule="nonzero" fill="#000000">
                <g id="i">
                    <g id="z-link" transform="translate(0.353973, 0.447123)">
                        <polyline id="z" points="0 12.9665753 0 0 1.58977169 0 1.58977169 12.9665753 0 12.9665753"></polyline>
                    </g>
                    <g id="n-link" transform="translate(4.278721, 0.447123)">
                        <path d="M0,1.49041096 L0,0 L1.58977169,0 L1.58977169,1.49041096 L0,1.49041096 Z M0,12.9665753 L0,3.52730594 L1.58977169,3.52730594 L1.58977169,12.9665753 L0,12.9665753 L0,12.9665753 Z" id="n"></path>
                    </g>
                    <g id="s-link" transform="translate(7.507945, 3.775708)">
                        <path d="M6.21004566,2.53369863 C6.06100457,0.84456621 1.93753425,0.645844749 1.88785388,2.53369863 C2.63305936,5.16675799 7.60109589,3.12986301 7.79981735,7.00493151 C7.99853881,10.88 0.347762557,10.6812785 0,7.40237443 L1.39105023,7.1539726 C1.58977169,8.94246575 6.21004566,9.38958904 6.25972603,7.1539726 C5.76292237,4.37187215 0.645844749,6.40876712 0.397442922,2.68273973 C0.198721461,-0.149041096 4.47123288,-0.447123288 6.45844749,0.596164384 C7.05461187,0.943926941 7.50173516,1.54009132 7.65077626,2.33497717" id="s"></path>
                    </g>
                    <g id="w-link" transform="translate(16.202009, 1.838174)">
                        <path d="M2.68273973,9.24054795 C2.583379,10.4328767 3.5769863,10.6812785 4.57059361,10.333516 L4.57059361,11.5258447 C2.93114155,12.0226484 1.09296804,11.7742466 1.09296804,9.5883105 L1.09296804,3.27890411 L0,3.27890411 L0,2.13625571 L1.19232877,2.13625571 L1.63945205,0 L2.68273973,0 L2.68273973,2.13625571 L4.42155251,2.13625571 L4.42155251,3.27890411 L2.68273973,3.27890411 L2.68273973,9.24054795" id="w"></path>
                    </g>
                    <g id="s-link" transform="translate(21.418447, 3.775708)">
                        <path d="M6.21004566,2.53369863 C6.06100457,0.84456621 1.93753425,0.645844749 1.88785388,2.53369863 C2.63305936,5.16675799 7.60109589,3.12986301 7.79981735,7.00493151 C7.99853881,10.88 0.347762557,10.6812785 0,7.40237443 L1.39105023,7.1539726 C1.58977169,8.94246575 6.21004566,9.38958904 6.25972603,7.1539726 C5.76292237,4.37187215 0.645844749,6.40876712 0.397442922,2.68273973 C0.198721461,-0.149041096 4.47123288,-0.447123288 6.45844749,0.596164384 C7.05461187,0.943926941 7.50173516,1.54009132 7.65077626,2.33497717" id="s"></path>
                    </g>
                </g>
            </g>
            <g id="j-link" transform="translate(219.922557, 142.576438)" fill-rule="nonzero" fill="#000000">
                <g id="j">
                    <g id="x-link" transform="translate(0.745205, 0.372603)">
                        <path d="M4.22283105,0.0496803653 C7.3030137,-6.59194921e-16 8.4456621,1.88785388 8.4456621,4.96803653 C8.49534247,8.09789954 7.10429224,9.88639269 4.17315068,9.88639269 C1.24200913,9.88639269 0.0496803653,7.94885845 0,4.96803653 C0,1.68913242 1.39105023,0.0496803653 4.22283105,0.0496803653 Z M4.17315068,8.69406393 C6.35908676,8.74374429 6.80621005,7.1539726 6.80621005,4.96803653 C6.80621005,2.83178082 6.40876712,1.24200913 4.27251142,1.24200913 C2.13625571,1.24200913 1.63945205,2.83178082 1.63945205,4.96803653 C1.63945205,7.10429224 2.13625571,8.64438356 4.17315068,8.69406393 L4.17315068,8.69406393 Z" id="x"></path>
                    </g>
                    <g id="o-link" transform="translate(11.128402, 0.372603)">
                        <path d="M4.62027397,0.0496803653 C9.04182648,-0.149041096 7.25333333,5.81260274 7.60109589,9.68767123 L6.0113242,9.68767123 L6.0113242,3.67634703 C6.0113242,2.13625571 5.61388128,1.24200913 4.07378995,1.2916895 C0.496803653,1.39105023 1.88785388,6.35908676 1.63945205,9.68767123 L0.0496803653,9.68767123 L0,0.248401826 L1.49041096,0.248401826 C1.54009132,0.745205479 1.44073059,1.44073059 1.58977169,1.83817352 C2.13625571,0.745205479 3.03050228,0.0993607306 4.62027397,0.0496803653" id="o"></path>
                    </g>
                </g>
            </g>
            <g id="e-link" transform="translate(244.762740, 139.223014)" fill-rule="nonzero" fill="#000000">
                <g id="e">
                    <g id="s-link" transform="translate(0.496804, 3.775708)">
                        <path d="M6.21004566,2.53369863 C6.06100457,0.84456621 1.93753425,0.645844749 1.88785388,2.53369863 C2.63305936,5.16675799 7.60109589,3.12986301 7.79981735,7.00493151 C7.99853881,10.88 0.347762557,10.6812785 0,7.40237443 L1.39105023,7.1539726 C1.58977169,8.94246575 6.21004566,9.38958904 6.25972603,7.1539726 C5.76292237,4.37187215 0.645844749,6.40876712 0.397442922,2.68273973 C0.198721461,-0.149041096 4.47123288,-0.447123288 6.45844749,0.596164384 C7.05461187,0.943926941 7.50173516,1.54009132 7.65077626,2.33497717" id="s"></path>
                    </g>
                    <g id="n-link" transform="translate(10.134795, 0.447123)">
                        <path d="M0,1.49041096 L0,0 L1.58977169,0 L1.58977169,1.49041096 L0,1.49041096 Z M0,12.9665753 L0,3.52730594 L1.58977169,3.52730594 L1.58977169,12.9665753 L0,12.9665753 L0,12.9665753 Z" id="n"></path>
                    </g>
                    <g id="o-link" transform="translate(14.059543, 3.726027)">
                        <path d="M4.62027397,0.0496803653 C9.04182648,-0.149041096 7.25333333,5.81260274 7.60109589,9.68767123 L6.0113242,9.68767123 L6.0113242,3.67634703 C6.0113242,2.13625571 5.61388128,1.24200913 4.07378995,1.2916895 C0.496803653,1.39105023 1.88785388,6.35908676 1.63945205,9.68767123 L0.0496803653,9.68767123 L0,0.248401826 L1.49041096,0.248401826 C1.54009132,0.745205479 1.44073059,1.44073059 1.58977169,1.83817352 C2.13625571,0.745205479 3.03050228,0.0993607306 4.62027397,0.0496803653" id="o"></path>
                    </g>
                    <g id="y-link" transform="translate(23.548493, 3.775708)">
                        <path d="M8.04821918,0.198721461 C7.55141553,6.40876712 10.0851142,14.7550685 2.583379,13.1652968 C1.44073059,12.8672146 0.695525114,12.1716895 0.397442922,11.0290411 L1.98721461,10.7806393 C2.73242009,13.1156164 6.95525114,12.370411 6.40876712,9.38958904 L6.40876712,7.89917808 C5.86228311,8.94246575 4.96803653,9.68767123 3.37826484,9.68767123 C0.695525114,9.68767123 0,7.65077626 0,4.91835616 C0,2.13625571 0.794885845,0.0993607306 3.52730594,0.0496803653 C4.96803653,2.49800181e-16 5.91196347,0.84456621 6.45844749,1.78849315 C6.50812785,1.2916895 6.45844749,0.645844749 6.55780822,0.198721461 L8.04821918,0.198721461 Z M3.92474886,8.54502283 C5.71324201,8.54502283 6.40876712,6.95525114 6.40876712,4.91835616 C6.40876712,2.83178082 5.71324201,1.19232877 3.92474886,1.19232877 C1.98721461,1.19232877 1.63945205,2.88146119 1.63945205,4.91835616 C1.63945205,6.95525114 1.93753425,8.54502283 3.92474886,8.54502283 L3.92474886,8.54502283 Z" id="y"></path>
                    </g>
                    <g id="z-link" transform="translate(33.931689, 0.447123)">
                        <polyline id="z" points="0 12.9665753 0 0 1.58977169 0 1.58977169 12.9665753 0 12.9665753"></polyline>
                    </g>
                    <g id="r-link" transform="translate(36.713790, 3.974429)">
                        <path d="M8.84310502,0 L4.57059361,10.9793607 C3.87506849,12.370411 2.73242009,13.5130594 0.546484018,13.0659361 L0.546484018,11.8736073 C2.48401826,12.1716895 3.17954338,10.88 3.7260274,9.38958904 L0,0 L1.68913242,0 L4.52091324,7.75013699 L7.20365297,0 L8.84310502,0" id="r"></path>
                    </g>
                </g>
            </g>
            <g id="f-link" transform="translate(296.175708, 139.223014)" fill-rule="nonzero" fill="#000000">
                <g id="f">
                    <g id="z-link" transform="translate(0.353973, 0.447123)">
                        <polyline id="z" points="0 12.9665753 0 0 1.58977169 0 1.58977169 12.9665753 0 12.9665753"></polyline>
                    </g>
                    <g id="n-link" transform="translate(4.278721, 0.447123)">
                        <path d="M0,1.49041096 L0,0 L1.58977169,0 L1.58977169,1.49041096 L0,1.49041096 Z M0,12.9665753 L0,3.52730594 L1.58977169,3.52730594 L1.58977169,12.9665753 L0,12.9665753 L0,12.9665753 Z" id="n"></path>
                    </g>
                    <g id="o-link" transform="translate(8.203470, 3.726027)">
                        <path d="M4.62027397,0.0496803653 C9.04182648,-0.149041096 7.25333333,5.81260274 7.60109589,9.68767123 L6.0113242,9.68767123 L6.0113242,3.67634703 C6.0113242,2.13625571 5.61388128,1.24200913 4.07378995,1.2916895 C0.496803653,1.39105023 1.88785388,6.35908676 1.63945205,9.68767123 L0.0496803653,9.68767123 L0,0.248401826 L1.49041096,0.248401826 C1.54009132,0.745205479 1.44073059,1.44073059 1.58977169,1.83817352 C2.13625571,0.745205479 3.03050228,0.0993607306 4.62027397,0.0496803653" id="o"></path>
                    </g>
                    <g id="A-link" transform="translate(18.139543, 0.447123)">
                        <polyline id="A" points="5.91196347 12.9665753 2.73242009 8.64438356 1.58977169 9.5883105 1.58977169 12.9665753 0 12.9665753 0 0 1.58977169 0 1.58977169 8.09789954 5.71324201 3.52730594 7.55141553 3.52730594 3.7260274 7.60109589 7.79981735 12.9665753 5.91196347 12.9665753"></polyline>
                    </g>
                    <g id="t-link" transform="translate(26.585205, 3.775708)">
                        <path d="M4.27251142,0 C7.40237443,0 8.54502283,2.08657534 8.4456621,5.26611872 L1.73881279,5.26611872 C1.73881279,7.25333333 2.4343379,8.5947032 4.37187215,8.64438356 C5.66356164,8.69406393 6.50812785,8.04821918 6.80621005,7.20365297 L8.19726027,7.60109589 C7.65077626,8.99214612 6.35908676,9.83671233 4.37187215,9.83671233 C1.49041096,9.83671233 -6.9388939e-18,7.99853881 0.0496803653,4.8686758 C0.0993607306,1.83817352 1.34136986,0 4.27251142,0 Z M6.85589041,4.02410959 C7.1539726,1.04328767 3.08018265,0.198721461 2.03689498,2.63305936 C1.88785388,2.98082192 1.73881279,3.47762557 1.73881279,4.02410959 L6.85589041,4.02410959 L6.85589041,4.02410959 Z" id="t"></path>
                    </g>
                    <g id="B-link" transform="translate(36.570959, 0.447123)">
                        <path d="M3.47762557,3.32858447 C5.01771689,3.32858447 5.86228311,3.97442922 6.45844749,4.96803653 L6.40876712,0 L7.99853881,0 L8.04821918,12.9665753 L6.55780822,12.9665753 C6.45844749,12.4697717 6.55780822,11.8239269 6.40876712,11.426484 C5.91196347,12.5691324 5.01771689,13.1652968 3.47762557,13.1652968 C0.84456621,13.1652968 0.0496803653,11.2277626 0,8.296621 C0,5.01771689 1.1426484,3.32858447 3.47762557,3.32858447 Z M3.92474886,4.52091324 C1.93753425,4.52091324 1.63945205,6.21004566 1.63945205,8.24694064 C1.63945205,10.2341553 1.93753425,11.9232877 3.87506849,11.9232877 C5.96164384,11.9232877 6.40876712,10.333516 6.40876712,8.14757991 C6.40876712,6.06100457 5.96164384,4.47123288 3.92474886,4.52091324 L3.92474886,4.52091324 Z" id="B"></path>
                    </g>
                </g>
            </g>
            <g id="g-link" transform="translate(347.743927, 139.223014)" fill-rule="nonzero" fill="#000000">
                <g id="g">
                    <g id="z-link" transform="translate(0.353973, 0.447123)">
                        <polyline id="z" points="0 12.9665753 0 0 1.58977169 0 1.58977169 12.9665753 0 12.9665753"></polyline>
                    </g>
                    <g id="n-link" transform="translate(4.278721, 0.447123)">
                        <path d="M0,1.49041096 L0,0 L1.58977169,0 L1.58977169,1.49041096 L0,1.49041096 Z M0,12.9665753 L0,3.52730594 L1.58977169,3.52730594 L1.58977169,12.9665753 L0,12.9665753 L0,12.9665753 Z" id="n"></path>
                    </g>
                    <g id="s-link" transform="translate(7.507945, 3.775708)">
                        <path d="M6.21004566,2.53369863 C6.06100457,0.84456621 1.93753425,0.645844749 1.88785388,2.53369863 C2.63305936,5.16675799 7.60109589,3.12986301 7.79981735,7.00493151 C7.99853881,10.88 0.347762557,10.6812785 0,7.40237443 L1.39105023,7.1539726 C1.58977169,8.94246575 6.21004566,9.38958904 6.25972603,7.1539726 C5.76292237,4.37187215 0.645844749,6.40876712 0.397442922,2.68273973 C0.198721461,-0.149041096 4.47123288,-0.447123288 6.45844749,0.596164384 C7.05461187,0.943926941 7.50173516,1.54009132 7.65077626,2.33497717" id="s"></path>
                    </g>
                    <g id="w-link" transform="translate(16.202009, 1.838174)">
                        <path d="M2.68273973,9.24054795 C2.583379,10.4328767 3.5769863,10.6812785 4.57059361,10.333516 L4.57059361,11.5258447 C2.93114155,12.0226484 1.09296804,11.7742466 1.09296804,9.5883105 L1.09296804,3.27890411 L0,3.27890411 L0,2.13625571 L1.19232877,2.13625571 L1.63945205,0 L2.68273973,0 L2.68273973,2.13625571 L4.42155251,2.13625571 L4.42155251,3.27890411 L2.68273973,3.27890411 L2.68273973,9.24054795" id="w"></path>
                    </g>
                    <g id="s-link" transform="translate(21.418447, 3.775708)">
                        <path d="M6.21004566,2.53369863 C6.06100457,0.84456621 1.93753425,0.645844749 1.88785388,2.53369863 C2.63305936,5.16675799 7.60109589,3.12986301 7.79981735,7.00493151 C7.99853881,10.88 0.347762557,10.6812785 0,7.40237443 L1.39105023,7.1539726 C1.58977169,8.94246575 6.21004566,9.38958904 6.25972603,7.1539726 C5.76292237,4.37187215 0.645844749,6.40876712 0.397442922,2.68273973 C0.198721461,-0.149041096 4.47123288,-0.447123288 6.45844749,0.596164384 C7.05461187,0.943926941 7.50173516,1.54009132 7.65077626,2.33497717" id="s"></path>
                    </g>
                </g>
            </g>
            <path d="M117.369863,239.241699 L150.90411,239.241699" id="Shape" stroke="#000000" stroke-width="2"></path>
            <polygon id="Shape" stroke="#000000" stroke-width="2" fill="#000000" fill-rule="nonzero" points="150.90411 239.241699 138.940767 243.123288 138.940767 235.36011"></polygon>
            <path d="M251.506849,239.241699 L285.041096,239.241699" id="Shape" stroke="#000000" stroke-width="2"></path>
            <polygon id="Shape" stroke="#000000" stroke-width="2" fill="#000000" fill-rule="nonzero" points="285.041096 239.241699 273.077753 243.123288 273.077753 235.36011"></polygon>
            <path d="M385.643836,239.241699 L419.178082,239.241699" id="Shape" stroke="#000000" stroke-width="2"></path>
            <polygon id="Shape" stroke="#000000" stroke-width="2" fill="#000000" fill-rule="nonzero" points="419.178082 239.241699 407.21474 243.123288 407.21474 235.36011"></polygon>
            <path d="M50.3013699,239.241699 L83.8356164,239.241699" id="Shape" stroke="#000000" stroke-width="2"></path>
            <polygon id="Shape" stroke="#000000" stroke-width="2" fill="#000000" fill-rule="nonzero" points="50.3013699 239.241699 62.2647123 235.36011 62.2647123 243.123288"></polygon>
            <path d="M184.438356,239.241699 L217.972603,239.241699" id="Shape" stroke="#000000" stroke-width="2"></path>
            <polygon id="Shape" stroke="#000000" stroke-width="2" fill="#000000" fill-rule="nonzero" points="184.438356 239.241699 196.401699 235.36011 196.401699 243.123288"></polygon>
            <path d="M318.575342,239.241699 L352.109589,239.241699" id="Shape" stroke="#000000" stroke-width="2"></path>
            <polygon id="Shape" stroke="#000000" stroke-width="2" fill="#000000" fill-rule="nonzero" points="318.575342 239.241699 330.538685 235.36011 330.538685 243.123288"></polygon>
            <path d="M658.327562,136.786192 C658.327562,166.028055 634.627233,189.736767 605.38537,189.736767 C576.143507,189.736767 552.443178,166.028055 552.443178,136.786192 C552.443178,107.544329 576.143507,83.8356164 605.393753,83.8356164 C634.652384,83.8356164 658.344329,107.544329 658.344329,136.786192 L658.327562,136.786192 Z M592.147726,255.916603 C592.147726,285.158466 568.439014,308.867178 539.197151,308.867178 C509.955288,308.867178 486.246575,285.158466 486.246575,255.916603 C486.246575,226.67474 509.955288,202.974411 539.197151,202.974411 C568.439014,202.974411 592.147726,226.683123 592.147726,255.924986 L592.147726,255.916603 Z M737.753425,255.916603 C737.753425,285.158466 714.044712,308.867178 684.802849,308.867178 C655.560986,308.867178 631.852274,285.158466 631.852274,255.916603 C631.852274,226.67474 655.560986,202.974411 684.802849,202.974411 C714.044712,202.974411 737.753425,226.683123 737.753425,255.924986 L737.753425,255.916603 Z" id="Shape" stroke="#000000" stroke-width="2" fill-opacity="0.6" fill="#C7E8AC" fill-rule="nonzero"></path>
            <path d="M605.376986,189.736767 L578.381918,219.33074" id="Shape" stroke="#000000" stroke-width="2"></path>
            <path d="M605.99737,190.306849 L605.38537,189.736767 L606.559068,189.694849 L605.99737,190.306849 Z M578.993918,219.900822 L578.474137,220.470904 L577.342356,219.230137 L577.761534,218.769041 L578.993918,219.900822 Z" id="Shape" fill="#000000" fill-rule="nonzero"></path>
            <path d="M642.331726,223.254247 L605.376986,189.72" id="Shape" stroke="#000000" stroke-width="2"></path>
            <path d="M643.354521,223.044658 L642.298192,224.352493 L641.761644,223.87463 L642.893425,222.633863 L643.354521,223.044658 Z M605.376986,189.736767 L604.815288,190.357151 L604.077534,189.686466 L605.376986,189.736767 Z" id="Shape" fill="#000000" fill-rule="nonzero"></path>
            <polygon id="Shape" stroke="#000000" stroke-width="2" fill="#FFFFFF" fill-rule="nonzero" points="570.249863 113.010411 640.336438 113.010411 640.336438 159.723616 570.249863 159.723616"></polygon>
            <path d="M582.406027,113.010411 L582.406027,160.293699" id="Shape" stroke="#000000" stroke-width="2"></path>
            <path d="M596.406575,113.010411 L596.406575,160.293699 M610.432274,113.010411 L610.432274,160.293699 M624.449589,113.010411 L624.449589,160.293699" id="Shape" stroke="#000000" stroke-width="2"></path>
            <polygon id="Shape" stroke="#000000" stroke-width="2" fill="#FFFFFF" fill-rule="nonzero" points="504.019726 232.056986 574.106301 232.056986 574.106301 278.770192 504.019726 278.770192"></polygon>
            <path d="M516.17589,232.056986 L516.17589,279.340274" id="Shape" stroke="#000000" stroke-width="2"></path>
            <path d="M530.176438,232.056986 L530.176438,279.340274 M544.202137,232.056986 L544.202137,279.340274 M558.219452,232.056986 L558.219452,279.340274" id="Shape" stroke="#000000" stroke-width="2"></path>
            <polygon id="Shape" stroke="#000000" stroke-width="2" fill="#FFFFFF" fill-rule="nonzero" points="649.893699 232.224658 719.980274 232.224658 719.980274 278.946247 649.893699 278.946247"></polygon>
            <path d="M662.049863,232.224658 L662.049863,279.533096" id="Shape" stroke="#000000" stroke-width="2"></path>
            <path d="M676.050411,232.224658 L676.050411,279.533096 M690.07611,232.224658 L690.07611,279.533096 M704.093425,232.224658 L704.093425,279.533096" id="Shape" stroke="#000000" stroke-width="2"></path>
            <polygon id="Shape" stroke="#000000" stroke-width="2" fill-opacity="0.6" fill="#FFDF71" fill-rule="nonzero" points="771.287671 170.102466 1173.69863 170.102466 1173.69863 251.506849 771.287671 251.506849"></polygon>
            <polygon id="Shape" stroke="#000000" stroke-width="2" fill-opacity="0.7" fill="#FFBBB1" fill-rule="nonzero" points="788.054795 182.074192 888.657534 182.074192 888.657534 231.159945 788.054795 231.159945"></polygon>
            <path d="M805.492603,182.074192 L805.492603,231.771945" id="Shape" stroke="#000000" stroke-width="2"></path>
            <path d="M825.613151,182.074192 L825.613151,231.771945 M845.733699,182.074192 L845.733699,231.771945 M865.854247,182.074192 L865.854247,231.771945" id="Shape" stroke="#000000" stroke-width="2"></path>
            <polygon id="Shape" stroke="#000000" stroke-width="2" fill-opacity="0.7" fill="#FFBBB1" fill-rule="nonzero" points="922.191781 182.074192 1022.79452 182.074192 1022.79452 231.159945 922.191781 231.159945"></polygon>
            <path d="M939.629589,182.074192 L939.629589,231.771945" id="Shape" stroke="#000000" stroke-width="2"></path>
            <path d="M959.750137,182.074192 L959.750137,231.771945 M979.870685,182.074192 L979.870685,231.771945 M999.991233,182.074192 L999.991233,231.771945 M907.663068,169.599452 L907.663068,252.009863" id="Shape" stroke="#000000" stroke-width="2"></path>
            <path d="M1041.80005,169.532384 L1041.80005,252.345205" id="Shape" stroke="#000000" stroke-width="2"></path>
            <polygon id="Shape" stroke="#000000" stroke-width="2" fill-opacity="0.7" fill="#FFBBB1" fill-rule="nonzero" points="1056.32877 182.074192 1156.93151 182.074192 1156.93151 231.159945 1056.32877 231.159945"></polygon>
            <path d="M1073.76658,182.074192 L1073.76658,231.771945" id="Shape" stroke="#000000" stroke-width="2"></path>
            <path d="M1093.88712,182.074192 L1093.88712,231.771945 M1114.00767,182.074192 L1114.00767,231.771945 M1134.12822,182.074192 L1134.12822,231.771945" id="Shape" stroke="#000000" stroke-width="2"></path>
            <polygon id="Shape" stroke="#000000" stroke-width="2" fill-opacity="0.58" fill="#C1E4F7" fill-rule="nonzero" points="804.821918 133.29863 1123.39726 133.29863 1123.39726 158.197808 804.821918 158.197808"></polygon>
            <g id="k-link" transform="translate(812.857717, 138.384658)" fill-rule="nonzero" fill="#000000">
                <g id="k">
                    <g id="s-link" transform="translate(0.496804, 3.775708)">
                        <path d="M6.21004566,2.53369863 C6.06100457,0.84456621 1.93753425,0.645844749 1.88785388,2.53369863 C2.63305936,5.16675799 7.60109589,3.12986301 7.79981735,7.00493151 C7.99853881,10.88 0.347762557,10.6812785 0,7.40237443 L1.39105023,7.1539726 C1.58977169,8.94246575 6.21004566,9.38958904 6.25972603,7.1539726 C5.76292237,4.37187215 0.645844749,6.40876712 0.397442922,2.68273973 C0.198721461,-0.149041096 4.47123288,-0.447123288 6.45844749,0.596164384 C7.05461187,0.943926941 7.50173516,1.54009132 7.65077626,2.33497717" id="s"></path>
                    </g>
                    <g id="n-link" transform="translate(10.134795, 0.447123)">
                        <path d="M0,1.49041096 L0,0 L1.58977169,0 L1.58977169,1.49041096 L0,1.49041096 Z M0,12.9665753 L0,3.52730594 L1.58977169,3.52730594 L1.58977169,12.9665753 L0,12.9665753 L0,12.9665753 Z" id="n"></path>
                    </g>
                    <g id="o-link" transform="translate(14.059543, 3.726027)">
                        <path d="M4.62027397,0.0496803653 C9.04182648,-0.149041096 7.25333333,5.81260274 7.60109589,9.68767123 L6.0113242,9.68767123 L6.0113242,3.67634703 C6.0113242,2.13625571 5.61388128,1.24200913 4.07378995,1.2916895 C0.496803653,1.39105023 1.88785388,6.35908676 1.63945205,9.68767123 L0.0496803653,9.68767123 L0,0.248401826 L1.49041096,0.248401826 C1.54009132,0.745205479 1.44073059,1.44073059 1.58977169,1.83817352 C2.13625571,0.745205479 3.03050228,0.0993607306 4.62027397,0.0496803653" id="o"></path>
                    </g>
                    <g id="y-link" transform="translate(23.548493, 3.775708)">
                        <path d="M8.04821918,0.198721461 C7.55141553,6.40876712 10.0851142,14.7550685 2.583379,13.1652968 C1.44073059,12.8672146 0.695525114,12.1716895 0.397442922,11.0290411 L1.98721461,10.7806393 C2.73242009,13.1156164 6.95525114,12.370411 6.40876712,9.38958904 L6.40876712,7.89917808 C5.86228311,8.94246575 4.96803653,9.68767123 3.37826484,9.68767123 C0.695525114,9.68767123 0,7.65077626 0,4.91835616 C0,2.13625571 0.794885845,0.0993607306 3.52730594,0.0496803653 C4.96803653,2.49800181e-16 5.91196347,0.84456621 6.45844749,1.78849315 C6.50812785,1.2916895 6.45844749,0.645844749 6.55780822,0.198721461 L8.04821918,0.198721461 Z M3.92474886,8.54502283 C5.71324201,8.54502283 6.40876712,6.95525114 6.40876712,4.91835616 C6.40876712,2.83178082 5.71324201,1.19232877 3.92474886,1.19232877 C1.98721461,1.19232877 1.63945205,2.88146119 1.63945205,4.91835616 C1.63945205,6.95525114 1.93753425,8.54502283 3.92474886,8.54502283 L3.92474886,8.54502283 Z" id="y"></path>
                    </g>
                    <g id="z-link" transform="translate(33.931689, 0.447123)">
                        <polyline id="z" points="0 12.9665753 0 0 1.58977169 0 1.58977169 12.9665753 0 12.9665753"></polyline>
                    </g>
                    <g id="r-link" transform="translate(36.713790, 3.974429)">
                        <path d="M8.84310502,0 L4.57059361,10.9793607 C3.87506849,12.370411 2.73242009,13.5130594 0.546484018,13.0659361 L0.546484018,11.8736073 C2.48401826,12.1716895 3.17954338,10.88 3.7260274,9.38958904 L0,0 L1.68913242,0 L4.52091324,7.75013699 L7.20365297,0 L8.84310502,0" id="r"></path>
                    </g>
                </g>
            </g>
            <g id="f-link" transform="translate(864.270685, 138.384658)" fill-rule="nonzero" fill="#000000">
                <g id="f">
                    <g id="z-link" transform="translate(0.353973, 0.447123)">
                        <polyline id="z" points="0 12.9665753 0 0 1.58977169 0 1.58977169 12.9665753 0 12.9665753"></polyline>
                    </g>
                    <g id="n-link" transform="translate(4.278721, 0.447123)">
                        <path d="M0,1.49041096 L0,0 L1.58977169,0 L1.58977169,1.49041096 L0,1.49041096 Z M0,12.9665753 L0,3.52730594 L1.58977169,3.52730594 L1.58977169,12.9665753 L0,12.9665753 L0,12.9665753 Z" id="n"></path>
                    </g>
                    <g id="o-link" transform="translate(8.203470, 3.726027)">
                        <path d="M4.62027397,0.0496803653 C9.04182648,-0.149041096 7.25333333,5.81260274 7.60109589,9.68767123 L6.0113242,9.68767123 L6.0113242,3.67634703 C6.0113242,2.13625571 5.61388128,1.24200913 4.07378995,1.2916895 C0.496803653,1.39105023 1.88785388,6.35908676 1.63945205,9.68767123 L0.0496803653,9.68767123 L0,0.248401826 L1.49041096,0.248401826 C1.54009132,0.745205479 1.44073059,1.44073059 1.58977169,1.83817352 C2.13625571,0.745205479 3.03050228,0.0993607306 4.62027397,0.0496803653" id="o"></path>
                    </g>
                    <g id="A-link" transform="translate(18.139543, 0.447123)">
                        <polyline id="A" points="5.91196347 12.9665753 2.73242009 8.64438356 1.58977169 9.5883105 1.58977169 12.9665753 0 12.9665753 0 0 1.58977169 0 1.58977169 8.09789954 5.71324201 3.52730594 7.55141553 3.52730594 3.7260274 7.60109589 7.79981735 12.9665753 5.91196347 12.9665753"></polyline>
                    </g>
                    <g id="t-link" transform="translate(26.585205, 3.775708)">
                        <path d="M4.27251142,0 C7.40237443,0 8.54502283,2.08657534 8.4456621,5.26611872 L1.73881279,5.26611872 C1.73881279,7.25333333 2.4343379,8.5947032 4.37187215,8.64438356 C5.66356164,8.69406393 6.50812785,8.04821918 6.80621005,7.20365297 L8.19726027,7.60109589 C7.65077626,8.99214612 6.35908676,9.83671233 4.37187215,9.83671233 C1.49041096,9.83671233 0,7.99853881 0.0496803653,4.8686758 C0.0993607306,1.83817352 1.34136986,0 4.27251142,0 Z M6.85589041,4.02410959 C7.1539726,1.04328767 3.08018265,0.198721461 2.03689498,2.63305936 C1.88785388,2.98082192 1.73881279,3.47762557 1.73881279,4.02410959 L6.85589041,4.02410959 L6.85589041,4.02410959 Z" id="t"></path>
                    </g>
                    <g id="B-link" transform="translate(36.570959, 0.447123)">
                        <path d="M3.47762557,3.32858447 C5.01771689,3.32858447 5.86228311,3.97442922 6.45844749,4.96803653 L6.40876712,0 L7.99853881,0 L8.04821918,12.9665753 L6.55780822,12.9665753 C6.45844749,12.4697717 6.55780822,11.8239269 6.40876712,11.426484 C5.91196347,12.5691324 5.01771689,13.1652968 3.47762557,13.1652968 C0.84456621,13.1652968 0.0496803653,11.2277626 0,8.296621 C0,5.01771689 1.1426484,3.32858447 3.47762557,3.32858447 Z M3.92474886,4.52091324 C1.93753425,4.52091324 1.63945205,6.21004566 1.63945205,8.24694064 C1.63945205,10.2341553 1.93753425,11.9232877 3.87506849,11.9232877 C5.96164384,11.9232877 6.40876712,10.333516 6.40876712,8.14757991 C6.40876712,6.06100457 5.96164384,4.47123288 3.92474886,4.52091324 L3.92474886,4.52091324 Z" id="B"></path>
                    </g>
                </g>
            </g>
            <g id="i-link" transform="translate(915.838904, 138.384658)" fill-rule="nonzero" fill="#000000">
                <g id="i">
                    <g id="z-link" transform="translate(0.353973, 0.447123)">
                        <polyline id="z" points="0 12.9665753 0 0 1.58977169 0 1.58977169 12.9665753 0 12.9665753"></polyline>
                    </g>
                    <g id="n-link" transform="translate(4.278721, 0.447123)">
                        <path d="M0,1.49041096 L0,0 L1.58977169,0 L1.58977169,1.49041096 L0,1.49041096 Z M0,12.9665753 L0,3.52730594 L1.58977169,3.52730594 L1.58977169,12.9665753 L0,12.9665753 L0,12.9665753 Z" id="n"></path>
                    </g>
                    <g id="s-link" transform="translate(7.507945, 3.775708)">
                        <path d="M6.21004566,2.53369863 C6.06100457,0.84456621 1.93753425,0.645844749 1.88785388,2.53369863 C2.63305936,5.16675799 7.60109589,3.12986301 7.79981735,7.00493151 C7.99853881,10.88 0.347762557,10.6812785 0,7.40237443 L1.39105023,7.1539726 C1.58977169,8.94246575 6.21004566,9.38958904 6.25972603,7.1539726 C5.76292237,4.37187215 0.645844749,6.40876712 0.397442922,2.68273973 C0.198721461,-0.149041096 4.47123288,-0.447123288 6.45844749,0.596164384 C7.05461187,0.943926941 7.50173516,1.54009132 7.65077626,2.33497717" id="s"></path>
                    </g>
                    <g id="w-link" transform="translate(16.202009, 1.838174)">
                        <path d="M2.68273973,9.24054795 C2.583379,10.4328767 3.5769863,10.6812785 4.57059361,10.333516 L4.57059361,11.5258447 C2.93114155,12.0226484 1.09296804,11.7742466 1.09296804,9.5883105 L1.09296804,3.27890411 L0,3.27890411 L0,2.13625571 L1.19232877,2.13625571 L1.63945205,0 L2.68273973,0 L2.68273973,2.13625571 L4.42155251,2.13625571 L4.42155251,3.27890411 L2.68273973,3.27890411 L2.68273973,9.24054795" id="w"></path>
                    </g>
                    <g id="s-link" transform="translate(21.418447, 3.775708)">
                        <path d="M6.21004566,2.53369863 C6.06100457,0.84456621 1.93753425,0.645844749 1.88785388,2.53369863 C2.63305936,5.16675799 7.60109589,3.12986301 7.79981735,7.00493151 C7.99853881,10.88 0.347762557,10.6812785 0,7.40237443 L1.39105023,7.1539726 C1.58977169,8.94246575 6.21004566,9.38958904 6.25972603,7.1539726 C5.76292237,4.37187215 0.645844749,6.40876712 0.397442922,2.68273973 C0.198721461,-0.149041096 4.47123288,-0.447123288 6.45844749,0.596164384 C7.05461187,0.943926941 7.50173516,1.54009132 7.65077626,2.33497717" id="s"></path>
                    </g>
                </g>
            </g>
            <g id="j-link" transform="translate(950.671050, 141.738082)" fill-rule="nonzero" fill="#000000">
                <g id="j">
                    <g id="x-link" transform="translate(0.745205, 0.372603)">
                        <path d="M4.22283105,0.0496803653 C7.3030137,-6.59194921e-16 8.4456621,1.88785388 8.4456621,4.96803653 C8.49534247,8.09789954 7.10429224,9.88639269 4.17315068,9.88639269 C1.24200913,9.88639269 0.0496803653,7.94885845 0,4.96803653 C0,1.68913242 1.39105023,0.0496803653 4.22283105,0.0496803653 Z M4.17315068,8.69406393 C6.35908676,8.74374429 6.80621005,7.1539726 6.80621005,4.96803653 C6.80621005,2.83178082 6.40876712,1.24200913 4.27251142,1.24200913 C2.13625571,1.24200913 1.63945205,2.83178082 1.63945205,4.96803653 C1.63945205,7.10429224 2.13625571,8.64438356 4.17315068,8.69406393 L4.17315068,8.69406393 Z" id="x"></path>
                    </g>
                    <g id="o-link" transform="translate(11.128402, 0.372603)">
                        <path d="M4.62027397,0.0496803653 C9.04182648,-0.149041096 7.25333333,5.81260274 7.60109589,9.68767123 L6.0113242,9.68767123 L6.0113242,3.67634703 C6.0113242,2.13625571 5.61388128,1.24200913 4.07378995,1.2916895 C0.496803653,1.39105023 1.88785388,6.35908676 1.63945205,9.68767123 L0.0496803653,9.68767123 L0,0.248401826 L1.49041096,0.248401826 C1.54009132,0.745205479 1.44073059,1.44073059 1.58977169,1.83817352 C2.13625571,0.745205479 3.03050228,0.0993607306 4.62027397,0.0496803653" id="o"></path>
                    </g>
                </g>
            </g>
            <g id="l-link" transform="translate(975.511233, 138.384658)" fill-rule="nonzero" fill="#000000">
                <g id="l">
                    <g id="B-link" transform="translate(0.745205, 0.447123)">
                        <path d="M3.47762557,3.32858447 C5.01771689,3.32858447 5.86228311,3.97442922 6.45844749,4.96803653 L6.40876712,0 L7.99853881,0 L8.04821918,12.9665753 L6.55780822,12.9665753 C6.45844749,12.4697717 6.55780822,11.8239269 6.40876712,11.426484 C5.91196347,12.5691324 5.01771689,13.1652968 3.47762557,13.1652968 C0.84456621,13.1652968 0.0496803653,11.2277626 0,8.296621 C0,5.01771689 1.1426484,3.32858447 3.47762557,3.32858447 Z M3.92474886,4.52091324 C1.93753425,4.52091324 1.63945205,6.21004566 1.63945205,8.24694064 C1.63945205,10.2341553 1.93753425,11.9232877 3.87506849,11.9232877 C5.96164384,11.9232877 6.40876712,10.333516 6.40876712,8.14757991 C6.40876712,6.06100457 5.96164384,4.47123288 3.92474886,4.52091324 L3.92474886,4.52091324 Z" id="B"></path>
                    </g>
                    <g id="x-link" transform="translate(10.681279, 3.726027)">
                        <path d="M4.22283105,0.0496803653 C7.3030137,-6.66133815e-16 8.4456621,1.88785388 8.4456621,4.96803653 C8.49534247,8.09789954 7.10429224,9.88639269 4.17315068,9.88639269 C1.24200913,9.88639269 0.0496803653,7.94885845 0,4.96803653 C0,1.68913242 1.39105023,0.0496803653 4.22283105,0.0496803653 Z M4.17315068,8.69406393 C6.35908676,8.74374429 6.80621005,7.1539726 6.80621005,4.96803653 C6.80621005,2.83178082 6.40876712,1.24200913 4.27251142,1.24200913 C2.13625571,1.24200913 1.63945205,2.83178082 1.63945205,4.96803653 C1.63945205,7.10429224 2.13625571,8.64438356 4.17315068,8.69406393 L4.17315068,8.69406393 Z" id="x"></path>
                    </g>
                    <g id="C-link" transform="translate(20.915434, 3.974429)">
                        <path d="M3.12986301,9.63799087 C-1.2916895,9.83671233 0.447123288,3.87506849 0.0993607306,0 L1.68913242,0 L1.68913242,5.96164384 C1.68913242,7.50173516 2.03689498,8.4456621 3.62666667,8.39598174 C7.20365297,8.296621 5.86228311,3.37826484 6.11068493,0 L7.65077626,0 L7.70045662,9.43926941 L6.21004566,9.43926941 C6.1603653,8.94246575 6.25972603,8.19726027 6.11068493,7.79981735 C5.56420091,8.89278539 4.7196347,9.5883105 3.12986301,9.63799087" id="C"></path>
                    </g>
                    <g id="m-link" transform="translate(30.950868, 0.447123)">
                        <path d="M4.57059361,3.32858447 C7.20365297,3.32858447 7.99853881,5.26611872 8.04821918,8.19726027 C8.04821918,11.4761644 6.90557078,13.1652968 4.57059361,13.1652968 C3.03050228,13.1156164 2.13625571,12.6188128 1.63945205,11.4761644 L1.54009132,12.9665753 L0,12.9665753 L0.0496803653,0 L1.63945205,0 L1.63945205,5.01771689 C2.13625571,3.87506849 3.03050228,3.32858447 4.57059361,3.32858447 Z M4.17315068,11.972968 C6.1603653,11.972968 6.40876712,10.2838356 6.40876712,8.24694064 C6.40876712,6.25972603 6.1603653,4.52091324 4.17315068,4.57059361 C2.08657534,4.57059361 1.63945205,6.1603653 1.63945205,8.34630137 C1.63945205,10.4825571 2.13625571,11.972968 4.17315068,11.972968 L4.17315068,11.972968 Z" id="m"></path>
                    </g>
                    <g id="z-link" transform="translate(40.936621, 0.447123)">
                        <polyline id="z" points="0 12.9665753 0 0 1.58977169 0 1.58977169 12.9665753 0 12.9665753"></polyline>
                    </g>
                    <g id="r-link" transform="translate(43.718721, 3.974429)">
                        <path d="M8.84310502,0 L4.57059361,10.9793607 C3.87506849,12.370411 2.73242009,13.5130594 0.546484018,13.0659361 L0.546484018,11.8736073 C2.48401826,12.1716895 3.17954338,10.88 3.7260274,9.38958904 L0,0 L1.68913242,0 L4.52091324,7.75013699 L7.20365297,0 L8.84310502,0" id="r"></path>
                    </g>
                </g>
            </g>
            <g id="f-link" transform="translate(1033.929132, 138.384658)" fill-rule="nonzero" fill="#000000">
                <g id="f">
                    <g id="z-link" transform="translate(0.353973, 0.447123)">
                        <polyline id="z" points="0 12.9665753 0 0 1.58977169 0 1.58977169 12.9665753 0 12.9665753"></polyline>
                    </g>
                    <g id="n-link" transform="translate(4.278721, 0.447123)">
                        <path d="M0,1.49041096 L0,0 L1.58977169,0 L1.58977169,1.49041096 L0,1.49041096 Z M0,12.9665753 L0,3.52730594 L1.58977169,3.52730594 L1.58977169,12.9665753 L0,12.9665753 L0,12.9665753 Z" id="n"></path>
                    </g>
                    <g id="o-link" transform="translate(8.203470, 3.726027)">
                        <path d="M4.62027397,0.0496803653 C9.04182648,-0.149041096 7.25333333,5.81260274 7.60109589,9.68767123 L6.0113242,9.68767123 L6.0113242,3.67634703 C6.0113242,2.13625571 5.61388128,1.24200913 4.07378995,1.2916895 C0.496803653,1.39105023 1.88785388,6.35908676 1.63945205,9.68767123 L0.0496803653,9.68767123 L0,0.248401826 L1.49041096,0.248401826 C1.54009132,0.745205479 1.44073059,1.44073059 1.58977169,1.83817352 C2.13625571,0.745205479 3.03050228,0.0993607306 4.62027397,0.0496803653" id="o"></path>
                    </g>
                    <g id="A-link" transform="translate(18.139543, 0.447123)">
                        <polyline id="A" points="5.91196347 12.9665753 2.73242009 8.64438356 1.58977169 9.5883105 1.58977169 12.9665753 0 12.9665753 0 0 1.58977169 0 1.58977169 8.09789954 5.71324201 3.52730594 7.55141553 3.52730594 3.7260274 7.60109589 7.79981735 12.9665753 5.91196347 12.9665753"></polyline>
                    </g>
                    <g id="t-link" transform="translate(26.585205, 3.775708)">
                        <path d="M4.27251142,0 C7.40237443,0 8.54502283,2.08657534 8.4456621,5.26611872 L1.73881279,5.26611872 C1.73881279,7.25333333 2.4343379,8.5947032 4.37187215,8.64438356 C5.66356164,8.69406393 6.50812785,8.04821918 6.80621005,7.20365297 L8.19726027,7.60109589 C7.65077626,8.99214612 6.35908676,9.83671233 4.37187215,9.83671233 C1.49041096,9.83671233 -1.38777878e-17,7.99853881 0.0496803653,4.8686758 C0.0993607306,1.83817352 1.34136986,0 4.27251142,0 Z M6.85589041,4.02410959 C7.1539726,1.04328767 3.08018265,0.198721461 2.03689498,2.63305936 C1.88785388,2.98082192 1.73881279,3.47762557 1.73881279,4.02410959 L6.85589041,4.02410959 L6.85589041,4.02410959 Z" id="t"></path>
                    </g>
                    <g id="B-link" transform="translate(36.570959, 0.447123)">
                        <path d="M3.47762557,3.32858447 C5.01771689,3.32858447 5.86228311,3.97442922 6.45844749,4.96803653 L6.40876712,0 L7.99853881,0 L8.04821918,12.9665753 L6.55780822,12.9665753 C6.45844749,12.4697717 6.55780822,11.8239269 6.40876712,11.426484 C5.91196347,12.5691324 5.01771689,13.1652968 3.47762557,13.1652968 C0.84456621,13.1652968 0.0496803653,11.2277626 0,8.296621 C0,5.01771689 1.1426484,3.32858447 3.47762557,3.32858447 Z M3.92474886,4.52091324 C1.93753425,4.52091324 1.63945205,6.21004566 1.63945205,8.24694064 C1.63945205,10.2341553 1.93753425,11.9232877 3.87506849,11.9232877 C5.96164384,11.9232877 6.40876712,10.333516 6.40876712,8.14757991 C6.40876712,6.06100457 5.96164384,4.47123288 3.92474886,4.52091324 L3.92474886,4.52091324 Z" id="B"></path>
                    </g>
                </g>
            </g>
            <g id="g-link" transform="translate(1085.497352, 138.384658)" fill-rule="nonzero" fill="#000000">
                <g id="g">
                    <g id="z-link" transform="translate(0.353973, 0.447123)">
                        <polyline id="z" points="0 12.9665753 0 0 1.58977169 0 1.58977169 12.9665753 0 12.9665753"></polyline>
                    </g>
                    <g id="n-link" transform="translate(4.278721, 0.447123)">
                        <path d="M0,1.49041096 L0,0 L1.58977169,0 L1.58977169,1.49041096 L0,1.49041096 Z M0,12.9665753 L0,3.52730594 L1.58977169,3.52730594 L1.58977169,12.9665753 L0,12.9665753 L0,12.9665753 Z" id="n"></path>
                    </g>
                    <g id="s-link" transform="translate(7.507945, 3.775708)">
                        <path d="M6.21004566,2.53369863 C6.06100457,0.84456621 1.93753425,0.645844749 1.88785388,2.53369863 C2.63305936,5.16675799 7.60109589,3.12986301 7.79981735,7.00493151 C7.99853881,10.88 0.347762557,10.6812785 0,7.40237443 L1.39105023,7.1539726 C1.58977169,8.94246575 6.21004566,9.38958904 6.25972603,7.1539726 C5.76292237,4.37187215 0.645844749,6.40876712 0.397442922,2.68273973 C0.198721461,-0.149041096 4.47123288,-0.447123288 6.45844749,0.596164384 C7.05461187,0.943926941 7.50173516,1.54009132 7.65077626,2.33497717" id="s"></path>
                    </g>
                    <g id="w-link" transform="translate(16.202009, 1.838174)">
                        <path d="M2.68273973,9.24054795 C2.583379,10.4328767 3.5769863,10.6812785 4.57059361,10.333516 L4.57059361,11.5258447 C2.93114155,12.0226484 1.09296804,11.7742466 1.09296804,9.5883105 L1.09296804,3.27890411 L0,3.27890411 L0,2.13625571 L1.19232877,2.13625571 L1.63945205,0 L2.68273973,0 L2.68273973,2.13625571 L4.42155251,2.13625571 L4.42155251,3.27890411 L2.68273973,3.27890411 L2.68273973,9.24054795" id="w"></path>
                    </g>
                    <g id="s-link" transform="translate(21.418447, 3.775708)">
                        <path d="M6.21004566,2.53369863 C6.06100457,0.84456621 1.93753425,0.645844749 1.88785388,2.53369863 C2.63305936,5.16675799 7.60109589,3.12986301 7.79981735,7.00493151 C7.99853881,10.88 0.347762557,10.6812785 0,7.40237443 L1.39105023,7.1539726 C1.58977169,8.94246575 6.21004566,9.38958904 6.25972603,7.1539726 C5.76292237,4.37187215 0.645844749,6.40876712 0.397442922,2.68273973 C0.198721461,-0.149041096 4.47123288,-0.447123288 6.45844749,0.596164384 C7.05461187,0.943926941 7.50173516,1.54009132 7.65077626,2.33497717" id="s"></path>
                    </g>
                </g>
            </g>
            <path d="M855.123288,268.273973 L888.657534,268.273973" id="Shape" stroke="#000000" stroke-width="2"></path>
            <polygon id="Shape" stroke="#000000" stroke-width="2" fill="#000000" fill-rule="nonzero" points="888.657534 268.273973 876.694192 272.163945 876.694192 264.384"></polygon>
            <path d="M989.260274,268.273973 L1022.79452,268.273973" id="Shape" stroke="#000000" stroke-width="2"></path>
            <polygon id="Shape" stroke="#000000" stroke-width="2" fill="#000000" fill-rule="nonzero" points="1022.79452 268.273973 1010.83118 272.163945 1010.83118 264.384"></polygon>
            <path d="M1123.39726,268.273973 L1156.93151,268.273973" id="Shape" stroke="#000000" stroke-width="2"></path>
            <polygon id="Shape" stroke="#000000" stroke-width="2" fill="#000000" fill-rule="nonzero" points="1156.93151 268.273973 1144.96816 272.163945 1144.96816 264.384"></polygon>
            <path d="M788.054795,268.273973 L821.589041,268.273973" id="Shape" stroke="#000000" stroke-width="2"></path>
            <polygon id="Shape" stroke="#000000" stroke-width="2" fill="#000000" fill-rule="nonzero" points="788.054795 268.273973 800.018137 264.384 800.018137 272.163945"></polygon>
            <path d="M922.191781,268.273973 L955.726027,268.273973" id="Shape" stroke="#000000" stroke-width="2"></path>
            <polygon id="Shape" stroke="#000000" stroke-width="2" fill="#000000" fill-rule="nonzero" points="922.191781 268.273973 934.155123 264.384 934.155123 272.163945"></polygon>
            <path d="M1056.32877,268.273973 L1089.86301,268.273973" id="Shape" stroke="#000000" stroke-width="2"></path>
            <polygon id="Shape" stroke="#000000" stroke-width="2" fill="#000000" fill-rule="nonzero" points="1056.32877 268.273973 1068.29211 264.384 1068.29211 272.163945"></polygon>
        </g>
    </g>
</svg>