<svg xmlns="http://www.w3.org/2000/svg" xmlns:xlink="http://www.w3.org/1999/xlink" xmlns:lucid="lucid" width="1540" height="480"><g transform="translate(-140 -180)" lucid:page-tab-id="iU2jsWX6SvpL"><path d="M0 0h1760v1360H0z" fill="#fff"/><path d="M160 200h1500v440H160z" stroke="#000" stroke-width="2" fill="#e5e5e5" fill-opacity=".45"/><path d="M1340 301.27h280v120h-280z" stroke="#000" stroke-width="2" fill="#ffbbb1" fill-opacity=".81"/><path d="M1060 301.27h280v120h-280z" stroke="#000" stroke-width="2" fill="#ffdba9"/><path d="M780 301.27h280v120H780z" stroke="#000" stroke-width="2" fill="#fae6a4"/><path d="M800 321.27h80v40h-80z" stroke="#000" stroke-width="2" fill="#fff"/><use xlink:href="#a" transform="matrix(1,0,0,1,805,326.2748484848446) translate(30 18.6)"/><path d="M880 321.27h80v40h-80z" stroke="#000" stroke-width="2" fill="#fff"/><use xlink:href="#b" transform="matrix(1,0,0,1,885,326.2748484848446) translate(30 18.6)"/><path d="M960 321.27h80v40h-80z" stroke="#000" stroke-width="2" fill="#fff"/><use xlink:href="#c" transform="matrix(1,0,0,1,965,326.2748484848446) translate(30 18.6)"/><path d="M1080 321.27h80v40h-80z" stroke="#000" stroke-width="2" fill="#fff"/><use xlink:href="#d" transform="matrix(1,0,0,1,1085,326.2748484848446) translate(30 18.6)"/><path d="M1160 321.27h80v40h-80z" stroke="#000" stroke-width="2" fill="#fff"/><use xlink:href="#e" transform="matrix(1,0,0,1,1165,326.2748484848446) translate(30 18.6)"/><path d="M1240 321.27h80v40h-80z" stroke="#000" stroke-width="2" fill="#fff"/><use xlink:href="#f" transform="matrix(1,0,0,1,1245,326.2748484848446) translate(30 18.6)"/><path d="M1360 321.27h80v40h-80z" stroke="#000" stroke-width="2" fill="#fff"/><use xlink:href="#g" transform="matrix(1,0,0,1,1365,326.2748484848446) translate(30 18.6)"/><path d="M1440 321.27h80v40h-80z" stroke="#000" stroke-width="2" fill="#fff"/><use xlink:href="#h" transform="matrix(1,0,0,1,1445,326.2748484848446) translate(30 18.6)"/><path d="M1520 321.27h80v40h-80z" stroke="#000" stroke-width="2" fill="#fff"/><use xlink:href="#i" transform="matrix(1,0,0,1,1525,326.2748484848446) translate(30 18.6)"/><path d="M1080 421.27h240v60h-240z" stroke="#000" stroke-opacity="0" stroke-width="2" fill="#fff" fill-opacity="0"/><use xlink:href="#j" transform="matrix(1,0,0,1,1085,426.2748484848446) translate(58.858024691358025 29.444444444444443)"/><use xlink:href="#k" transform="matrix(1,0,0,1,1085,426.2748484848446) translate(99.53703703703704 29.444444444444443)"/><path d="M800 361.27h240v60H800z" stroke="#000" stroke-opacity="0" stroke-width="2" fill="#fff" fill-opacity="0"/><use xlink:href="#l" transform="matrix(1,0,0,1,805,366.2748484848446) translate(39.16666666666667 29.444444444444443)"/><use xlink:href="#k" transform="matrix(1,0,0,1,805,366.2748484848446) translate(119.22839506172839 29.444444444444443)"/><path d="M1080 361.27h240v60h-240z" stroke="#000" stroke-opacity="0" stroke-width="2" fill="#fff" fill-opacity="0"/><use xlink:href="#l" transform="matrix(1,0,0,1,1085,366.2748484848446) translate(39.16666666666667 29.444444444444443)"/><use xlink:href="#k" transform="matrix(1,0,0,1,1085,366.2748484848446) translate(119.22839506172839 29.444444444444443)"/><path d="M1360 361.27h240v60h-240z" stroke="#000" stroke-opacity="0" stroke-width="2" fill="#fff" fill-opacity="0"/><use xlink:href="#l" transform="matrix(1,0,0,1,1365,366.2748484848446) translate(39.16666666666667 29.444444444444443)"/><use xlink:href="#k" transform="matrix(1,0,0,1,1365,366.2748484848446) translate(119.22839506172839 29.444444444444443)"/><path d="M947 240h500v42.67H947z" stroke="#000" stroke-width="2" fill="#c1e4f7" fill-opacity=".58"/><use xlink:href="#m" transform="matrix(1,0,0,1,952,245.00000000000003) translate(16.555555555555515 20.766666666666666)"/><use xlink:href="#n" transform="matrix(1,0,0,1,952,245.00000000000003) translate(80.437037037037 20.766666666666666)"/><use xlink:href="#o" transform="matrix(1,0,0,1,952,245.00000000000003) translate(149.11851851851847 20.766666666666666)"/><use xlink:href="#p" transform="matrix(1,0,0,1,952,245.00000000000003) translate(198.837037037037 20.766666666666666)"/><use xlink:href="#q" transform="matrix(1,0,0,1,952,245.00000000000003) translate(267.4592592592592 20.766666666666666)"/><use xlink:href="#r" transform="matrix(1,0,0,1,952,245.00000000000003) translate(297.08888888888885 20.766666666666666)"/><use xlink:href="#n" transform="matrix(1,0,0,1,952,245.00000000000003) translate(360.97037037037035 20.766666666666666)"/><use xlink:href="#s" transform="matrix(1,0,0,1,952,245.00000000000003) translate(429.6518518518519 20.766666666666666)"/><path d="M331.43 251.67h240v80h-240z" stroke="#000" stroke-width="2" fill="#c1e4f7"/><use xlink:href="#t" transform="matrix(1,0,0,1,331.432098765432,251.66666666666674) translate(52.25308641975309 44.44444444444444)"/><path d="M331.43 491.67h240v80h-240z" stroke="#000" stroke-width="2" fill="#c7e8ac" fill-opacity=".77"/><use xlink:href="#u" transform="matrix(1,0,0,1,331.432098765432,491.66666666666674) translate(46.111111111111114 31.111111111111114)"/><use xlink:href="#v" transform="matrix(1,0,0,1,331.432098765432,491.66666666666674) translate(145.8641975308642 31.111111111111114)"/><use xlink:href="#w" transform="matrix(1,0,0,1,331.432098765432,491.66666666666674) translate(70.74074074074073 57.77777777777778)"/><path d="M312.2 291.67h-60.77v240" stroke="#000" stroke-width="2" fill="none"/><path d="M327.2 291.67l-14.27 4.63v-9.27z"/><path d="M330.43 291.67l-18.5 6v-12.02zm-16.5 3.26l10.03-3.26-10.03-3.26z"/><path d="M330.43 531.67h-79" stroke="#000" stroke-width="2" fill="none"/><path d="M331.43 532.67h-1v-2h1z"/><path d="M590.67 531.67h60.76v-240" stroke="#000" stroke-width="2" fill="none"/><path d="M589.93 536.3l-14.26-4.63 14.26-4.64z"/><path d="M590.93 537.68l-18.5-6 18.5-6.03zm-12.03-6l10.03 3.25v-6.52z"/><path d="M572.43 291.67h79" stroke="#000" stroke-width="2" fill="none"/><path d="M572.43 292.67h-1v-2h1z"/><path d="M398.86 589h121.8v20h-121.8z" fill="#fff" fill-opacity="0"/><path d="M406.46 607.87v.24c-1.46 0-2.02-.14-2.63-.53-.6-.4-.95-1.28-.95-2.5v-3.84c0-1.5-.4-2-1.85-2.47 1.46-.43 1.85-.93 1.85-2.45v-3.85c0-1.24.32-2.08.95-2.47.63-.4 1.2-.52 2.63-.55v.24c-1.5.4-1.98 1.04-1.98 2.67v3.64c0 1.8-.4 2.37-2.04 2.8 1.63.42 2.04.98 2.04 2.78v3.64c0 1.63.48 2.28 1.98 2.67M419.7 589.37l-1.44 5.25c1 0 1.58.02 2.2.26 1.05.4 1.72 1.2 1.72 2.73 0 2.53-2.36 6.8-6.64 6.82l-1.17 4.2h-1.7l1.18-4.2c-.93 0-1.78-.06-2.32-.24-1.13-.36-1.67-1.38-1.67-2.77 0-2.18 2.43-6.78 6.4-6.78h.33l1.44-5.25h1.67m-1.57 5.7l-2.46 8.9c.55 0 .9-.05 1.5-.35 1.78-.9 3.2-4.73 3.2-6.53 0-.98-.42-1.53-1-1.87-.2-.13-.8-.16-1.24-.16m-4.15 8.9l2.48-8.9c-2.52 0-4.78 3.86-4.78 6.92 0 .9.37 1.53 1.04 1.8.35.12.76.17 1.26.17M424.7 607.24l-.22-.4c1.2-.8 1.8-1.6 1.8-2.33 0-.14-.13-.27-.3-.27-.18 0-.4.08-.63.08-.8 0-1.26-.35-1.26-1.1 0-.73.5-1.23 1.3-1.23.97 0 1.73.76 1.73 1.9 0 1.3-.94 2.66-2.43 3.37M443.85 594.9l-3.08 5.66v.4c0 1.03.26 2.14.74 2.14.3 0 .66-.4 1.1-1.6l.36.15c-.48 1.6-1.15 2.73-2.2 2.73-.8 0-1.07-.96-1.12-2.28-1.08 1.32-2.58 2.32-4.2 2.32-2.1 0-2.9-1.47-2.9-3.3 0-1.75.75-3.6 1.96-4.83.96-1 2.4-1.68 3.75-1.68 1.85 0 2.74 1.3 2.74 2.58l1-2.3h1.85m-4.12 3.38c0-1.47-.28-3.2-1.67-3.2-1.37 0-3.75 2.94-3.75 6.4 0 1.23.4 2.5 1.5 2.5 1.52 0 3-2.94 3.58-4.16.1-.4.35-.95.35-1.54M445.72 607.24l-.22-.4c1.2-.8 1.8-1.6 1.8-2.33 0-.14-.13-.27-.3-.27-.18 0-.4.08-.63.08-.8 0-1.26-.35-1.26-1.1 0-.73.53-1.23 1.3-1.23 1 0 1.75.76 1.75 1.9 0 1.3-.94 2.66-2.43 3.37M452.77 606.94l2.97-10.74c.84-3 2.34-6.72 5.75-6.72 1.14 0 2.6.54 2.6 2.2 0 1.75-1.46 3.33-2.77 3.9v.04c.83.06 1.9.86 1.9 2.4 0 2.02-1.8 4.65-3.83 5.75-.84.48-1.75.65-2.7.65-.44 0-.85-.1-1.42-.37l-.82 2.9c-.26.92-.48 1.36-.67 1.68h-1.7c.2-.3.54-1.24.67-1.7m5.24-13.1l-2.46 9.38c0 .5.44.8 1.04.8 2.48 0 4.73-3.8 4.73-6.7 0-.75-.25-1.27-.86-1.27-.4 0-.7.17-1.08.17-.4 0-.65-.22-.65-.48 0-.23.2-.52.96-.52.18 0 .63.13.94.13.93 0 1.95-2.16 1.95-3.42 0-1.66-.7-1.97-1.46-1.97-1.6 0-2.6 2.1-3.1 3.9M465.93 607.24l-.2-.4c1.18-.8 1.8-1.6 1.8-2.33 0-.14-.14-.27-.32-.27-.16 0-.38.08-.62.08-.8 0-1.26-.35-1.26-1.1 0-.73.53-1.23 1.3-1.23.98 0 1.74.76 1.74 1.9 0 1.3-.93 2.66-2.43 3.37M474.46 592.6l-.35-.4c2.27-2.1 4.35-2.38 6.4-2.38 4.56 0 8.08.42 8.08 2.54 0 .94-.52 1.74-1.48 1.74-.65 0-1.23-.44-1.23-1.02.02-1.2 1.02-.78 1.02-1.37 0-.6-1.95-1-3.92-1-.87 0-1.2.17-1.45 1.06L480.3 596H485l-.28.87h-4.7l-.94 3.24c-1.15 3.87-2.43 4.08-4.62 4.08l.17-.52c.78 0 1.28-.54 1.7-2l2.55-8.78c.1-.3.22-.78.22-1.12 0-.48-.22-.72-1-.72-1.8 0-3.16 1.08-3.66 1.56M490.4 607.24l-.22-.4c1.2-.8 1.8-1.6 1.8-2.33 0-.14-.13-.27-.3-.27-.17 0-.4.08-.63.08-.8 0-1.26-.35-1.26-1.1 0-.73.5-1.23 1.3-1.23.97 0 1.73.76 1.73 1.9 0 1.3-.93 2.66-2.43 3.37M506.86 602.2l-.1-.03c-.98.78-2.3 1.2-3.6 1.2-2.37 0-4.65-1.4-4.65-4.44 0-5.07 4.87-9.3 9.14-9.3 1.57 0 2.58.76 2.58 2.04 0 .7-.73 1.8-1.7 1.8-.64 0-1.14-.5-1.14-1.1 0-1.05 1.1-.96 1.1-1.42 0-.34-.53-.56-1.05-.56-2.26 0-4.56 1.75-5.82 4.6-.53 1.25-.77 2.24-.77 4.04 0 2.43 1.28 3.4 2.82 3.4 2.5 0 5.06-1.94 5.6-5.05l.5-.1c.04.23.04.5.04.75 0 2.4-1.18 6.05-3.54 7.74-1.18.84-2.33 1.23-4.04 1.23-1.54 0-2.7-.48-3.34-1.18l.33-.4c.5.56 1.96.82 2.85.82 2.06 0 4.03-2 4.8-4.06M516.62 592.47v3.84c0 1.53.4 2.03 1.85 2.46-1.46.46-1.85.96-1.85 2.47v3.87c0 1.23-.32 2.08-.95 2.47-.63.4-1.2.52-2.63.54v-.23c1.5-.4 1.98-1.04 1.98-2.67v-3.64c0-1.8.4-2.36 2.04-2.8-1.63-.4-2.04-.95-2.04-2.78v-3.64c0-1.63-.48-2.28-1.98-2.67v-.24c1.46.03 2.02.16 2.63.55.6.4.95 1.28.95 2.5"/><path d="M436.97 225h30.48v19.4h-30.48z" fill="#fff" fill-opacity="0"/><path d="M444.56 243.8v.25c-1.46-.03-2.02-.16-2.63-.55-.6-.4-.95-1.28-.95-2.5v-3.83c0-1.5-.4-2.02-1.85-2.47 1.46-.44 1.85-.94 1.85-2.45v-3.87c0-1.23.32-2.08.95-2.47.63-.38 1.2-.5 2.63-.53v.24c-1.5.4-1.98 1.05-1.98 2.68v3.64c0 1.8-.4 2.36-2.04 2.8 1.63.4 2.04.97 2.04 2.77v3.64c0 1.63.48 2.28 1.98 2.67M454.97 237.8l.35.22c-1.33 1.67-2.48 2.34-4.1 2.34-2.02 0-3.2-1.13-3.2-3.34 0-2.02 1.14-3.9 2.68-5.14 1.06-.85 2.3-1.33 3.62-1.33 1.32 0 2.28.74 2.28 1.76 0 .6-.48 1.05-1.05 1.05-.6 0-.84-.43-.84-.87 0-.4.33-.63.33-1.04 0-.26-.3-.43-.8-.43-.87 0-1.73.4-2.36 1.05-1.22 1.28-1.98 3.12-1.98 5.05 0 1.57.7 2.48 1.92 2.48 1.15 0 1.98-.55 3.15-1.78M463.43 228.4v3.85c0 1.5.4 2 1.84 2.45-1.45.45-1.84.95-1.84 2.47v3.86c0 1.24-.33 2.08-.96 2.47-.63.4-1.2.52-2.62.55v-.24c1.5-.38 1.97-1.03 1.97-2.66v-3.65c0-1.8.42-2.37 2.04-2.8-1.62-.42-2.04-.96-2.04-2.78v-3.64c0-1.63-.47-2.28-1.97-2.67v-.23c1.45.02 2.02.15 2.62.54.6.4.96 1.3.96 2.5"/><path d="M663 371.67h82.67v60H663z" fill="none"/><use xlink:href="#x" transform="matrix(1,0,0,1,663,371.66666666666674) translate(-3.4722222222222285 34)"/><path d="M685.76 415.1h37.34V435h-37.34z" fill="#fff" fill-opacity="0"/><path d="M686.42 432.94l2.97-10.74c.84-3 2.34-6.72 5.74-6.72 1.15 0 2.63.54 2.63 2.2 0 1.75-1.48 3.33-2.78 3.9v.04c.82.06 1.9.86 1.9 2.4 0 2.02-1.82 4.65-3.84 5.75-.85.48-1.76.65-2.7.65-.44 0-.86-.1-1.42-.37l-.82 2.9c-.27.92-.48 1.36-.68 1.68h-1.7c.2-.3.55-1.24.68-1.7m5.25-13.1l-2.47 9.38c0 .5.43.8 1.04.8 2.47 0 4.73-3.8 4.73-6.7 0-.75-.26-1.27-.87-1.27-.4 0-.7.17-1.08.17-.4 0-.65-.22-.65-.48 0-.23.2-.52.95-.52.17 0 .63.13.93.13.94 0 1.96-2.16 1.96-3.42 0-1.66-.7-1.97-1.45-1.97-1.58 0-2.6 2.1-3.08 3.9M704.36 433.68l-.26.34c-3.43-1.95-5.3-5.6-5.3-9.3 0-4 1.9-7.14 5.37-9.2l.2.35c-3.02 2.58-3.7 4.6-3.7 8.78 0 4.04.65 6.5 3.7 9.03M715 427.65l.3.28c-1.48 2.02-2.02 2.45-3.04 2.45-.55 0-1.02-.35-1.02-1.17 0-.2.04-.5.34-1.62l.96-3.5c.17-.7.3-1.47.3-1.73 0-.4-.2-.63-.52-.63-.87 0-1.84 1.07-3.2 3.08-.98 1.46-1.16 1.96-2.18 5.38h-1.62l2.08-7.6c.02-.1.04-.23.04-.36 0-.43-.3-.56-1.4-.58v-.35c1.75-.36 2.36-.44 3.5-.68l.1.04-1.46 4.73c2.17-3.48 3.62-4.78 5-4.78.94 0 1.42.54 1.42 1.32 0 .4-.1.85-.22 1.3l-1.2 4.4c-.23.8-.32 1.16-.32 1.33 0 .2.1.4.35.4.32 0 .7-.36 1.33-1.16.16-.16.3-.36.46-.55M716.5 415.87l.25-.35c3.32 2 5.3 5.62 5.3 9.3 0 4.02-1.92 7.1-5.37 9.2l-.2-.34c3.1-2.54 3.7-4.58 3.7-8.8 0-4.04-.55-6.54-3.7-9"/><path d="M173 371.67h82.67v60H173z" fill="none"/><g><use xlink:href="#y" transform="matrix(1,0,0,1,173,371.66666666666674) translate(13.75 34)"/></g><path d="M195.76 415.1h37.3v19.25h-37.3z" fill="#fff" fill-opacity="0"/><path d="M207.67 420.86l-3.08 5.66v.4c0 1.03.25 2.14.73 2.14.3 0 .65-.42 1.1-1.6l.35.14c-.48 1.6-1.15 2.74-2.2 2.74-.8 0-1.07-.96-1.12-2.28-1.08 1.32-2.58 2.32-4.2 2.32-2.1 0-2.9-1.48-2.9-3.3 0-1.75.75-3.6 1.96-4.83.96-.98 2.4-1.67 3.75-1.67 1.85 0 2.74 1.3 2.74 2.58l1-2.3h1.87m-4.12 3.38c0-1.47-.28-3.2-1.67-3.2-1.37 0-3.75 2.94-3.75 6.4 0 1.23.4 2.48 1.5 2.48 1.5 0 3-2.92 3.57-4.14.1-.4.35-.95.35-1.54M214.33 433.63l-.26.35c-3.43-1.95-5.3-5.62-5.3-9.3 0-4.02 1.9-7.14 5.36-9.2l.2.34c-3.02 2.6-3.7 4.6-3.7 8.8 0 4.02.66 6.48 3.7 9M224.96 427.6l.3.28c-1.47 2.02-2.02 2.46-3.04 2.46-.54 0-1-.35-1-1.18 0-.2.03-.5.33-1.62l.96-3.52c.18-.67.3-1.45.3-1.7 0-.4-.2-.64-.5-.64-.88 0-1.85 1.06-3.22 3.08-.98 1.45-1.15 1.95-2.17 5.38h-1.62l2.1-7.6c0-.1.03-.23.03-.36 0-.43-.3-.56-1.4-.6v-.33c1.76-.35 2.36-.44 3.5-.67l.1.04-1.45 4.73c2.17-3.47 3.62-4.77 5-4.77.94 0 1.42.54 1.42 1.32 0 .4-.1.84-.22 1.3l-1.2 4.4c-.23.78-.32 1.15-.32 1.33 0 .2.1.4.35.4.3 0 .7-.36 1.32-1.16l.46-.57M226.45 415.82l.26-.34c3.33 2 5.3 5.62 5.3 9.3 0 4.02-1.9 7.1-5.35 9.2l-.2-.35c3.08-2.53 3.7-4.57 3.7-8.78 0-4.06-.55-6.55-3.7-9.03"/><path d="M923.8 500.22h540V604h-540z" stroke="#000" stroke-width="2" fill="#f9d2de" fill-opacity=".51"/><g><use xlink:href="#z" transform="matrix(1,0,0,1,928.7972831765935,505.22151515151535) translate(17.6 25.666666666666664)"/><use xlink:href="#A" transform="matrix(1,0,0,1,928.7972831765935,505.22151515151535) translate(42.66666666666667 25.666666666666664)"/><use xlink:href="#B" transform="matrix(1,0,0,1,928.7972831765935,505.22151515151535) translate(214.39999999999998 25.666666666666664)"/><use xlink:href="#C" transform="matrix(1,0,0,1,928.7972831765935,505.22151515151535) translate(332.56296296296296 25.666666666666664)"/><use xlink:href="#z" transform="matrix(1,0,0,1,928.7972831765935,505.22151515151535) translate(17.6 51.26666666666667)"/><use xlink:href="#D" transform="matrix(1,0,0,1,928.7972831765935,505.22151515151535) translate(42.66666666666667 51.26666666666667)"/><use xlink:href="#B" transform="matrix(1,0,0,1,928.7972831765935,505.22151515151535) translate(228.6222222222222 51.26666666666667)"/><use xlink:href="#C" transform="matrix(1,0,0,1,928.7972831765935,505.22151515151535) translate(346.7851851851852 51.26666666666667)"/><use xlink:href="#z" transform="matrix(1,0,0,1,928.7972831765935,505.22151515151535) translate(17.6 76.86666666666667)"/><use xlink:href="#E" transform="matrix(1,0,0,1,928.7972831765935,505.22151515151535) translate(42.66666666666667 76.86666666666667)"/><use xlink:href="#B" transform="matrix(1,0,0,1,928.7972831765935,505.22151515151535) translate(241.60000000000002 76.86666666666667)"/><use xlink:href="#F" transform="matrix(1,0,0,1,928.7972831765935,505.22151515151535) translate(359.762962962963 76.86666666666667)"/></g><defs><path d="M54-142c48-35 137-8 131 61C196 18 31 33 14-55l32-4c7 23 22 37 52 37 35-1 51-22 54-58 4-55-73-65-99-34H22l8-134h141v27H59" id="G"/><use transform="matrix(0.05,0,0,0.05,0,0)" xlink:href="#G" id="a"/><path d="M99-251c64 0 84 50 84 122C183-37 130 33 47-8c-14-7-20-23-25-40l30-5c6 39 69 39 84 7 9-19 16-44 16-74-10 22-31 35-62 35-49 0-73-33-73-83 0-54 28-83 82-83zm-1 141c31-1 51-18 51-49 0-36-14-67-51-67-34 0-49 23-49 58 0 34 15 58 49 58" id="H"/><use transform="matrix(0.05,0,0,0.05,0,0)" xlink:href="#H" id="b"/><path d="M110-160c48 1 74 30 74 79 0 53-28 85-80 85-65 0-83-55-86-122-5-90 50-162 133-122 14 7 22 21 27 39l-31 6c-5-40-67-38-82-6-9 19-15 44-15 74 11-20 30-34 60-33zm-7 138c34 0 49-23 49-58s-16-56-50-56c-29 0-50 16-49 49 1 36 15 65 50 65" id="I"/><use transform="matrix(0.05,0,0,0.05,0,0)" xlink:href="#I" id="c"/><path d="M126-127c33 6 58 20 58 59 0 88-139 92-164 29-3-8-5-16-6-25l32-3c6 27 21 44 54 44 32 0 52-15 52-46 0-38-36-46-79-43v-28c39 1 72-4 72-42 0-27-17-43-46-43-28 0-47 15-49 41l-32-3c6-42 35-63 81-64 48-1 79 21 79 65 0 36-21 52-52 59" id="J"/><use transform="matrix(0.05,0,0,0.05,0,0)" xlink:href="#J" id="d"/><path d="M27 0v-27h64v-190l-56 39v-29l58-41h29v221h61V0H27" id="K"/><use transform="matrix(0.05,0,0,0.05,0,0)" xlink:href="#K" id="e"/><path d="M64 0c3-98 48-159 88-221H18v-27h164v26C143-157 98-101 97 0H64" id="L"/><use transform="matrix(0.05,0,0,0.05,0,0)" xlink:href="#L" id="f"/><path d="M101-251c68 0 85 55 85 127S166 4 100 4C33 4 14-52 14-124c0-73 17-127 87-127zm-1 229c47 0 54-49 54-102s-4-102-53-102c-51 0-55 48-55 102 0 53 5 102 54 102" id="M"/><use transform="matrix(0.05,0,0,0.05,0,0)" xlink:href="#M" id="g"/><path d="M155-56V0h-30v-56H8v-25l114-167h33v167h35v25h-35zm-30-156c-27 46-58 90-88 131h88v-131" id="N"/><use transform="matrix(0.05,0,0,0.05,0,0)" xlink:href="#N" id="h"/><path d="M134-131c28 9 52 24 51 62-1 50-34 73-85 73S17-19 16-69c0-36 21-54 49-61-75-25-45-126 34-121 46 3 78 18 79 63 0 33-17 51-44 57zm-34-11c31 1 46-15 46-44 0-28-17-43-47-42-29 0-46 13-45 42 1 28 16 44 46 44zm1 122c35 0 51-18 51-52 0-30-18-46-53-46-33 0-51 17-51 47 0 34 19 51 53 51" id="O"/><use transform="matrix(0.05,0,0,0.05,0,0)" xlink:href="#O" id="i"/><path d="M30 0v-248h33v221h125V0H30" id="P"/><path d="M24-231v-30h32v30H24zM24 0v-190h32V0H24" id="Q"/><path d="M135-143c-3-34-86-38-87 0 15 53 115 12 119 90S17 21 10-45l28-5c4 36 97 45 98 0-10-56-113-15-118-90-4-57 82-63 122-42 12 7 21 19 24 35" id="R"/><path d="M59-47c-2 24 18 29 38 22v24C64 9 27 4 27-40v-127H5v-23h24l9-43h21v43h35v23H59v120" id="S"/><g id="j"><use transform="matrix(0.06172839506172839,0,0,0.06172839506172839,0,0)" xlink:href="#P"/><use transform="matrix(0.06172839506172839,0,0,0.06172839506172839,12.345679012345679,0)" xlink:href="#Q"/><use transform="matrix(0.06172839506172839,0,0,0.06172839506172839,17.22222222222222,0)" xlink:href="#R"/><use transform="matrix(0.06172839506172839,0,0,0.06172839506172839,28.333333333333332,0)" xlink:href="#S"/></g><path d="M96-169c-40 0-48 33-48 73s9 75 48 75c24 0 41-14 43-38l32 2c-6 37-31 61-74 61-59 0-76-41-82-99-10-93 101-131 147-64 4 7 5 14 7 22l-32 3c-4-21-16-35-41-35" id="T"/><path d="M100-194c62-1 85 37 85 99 1 63-27 99-86 99S16-35 15-95c0-66 28-99 85-99zM99-20c44 1 53-31 53-75 0-43-8-75-51-75s-53 32-53 75 10 74 51 75" id="U"/><path d="M117-194c89-4 53 116 60 194h-32v-121c0-31-8-49-39-48C34-167 62-67 57 0H25l-1-190h30c1 10-1 24 2 32 11-22 29-35 61-36" id="V"/><path d="M100-194c63 0 86 42 84 106H49c0 40 14 67 53 68 26 1 43-12 49-29l28 8c-11 28-37 45-77 45C44 4 14-33 15-96c1-61 26-98 85-98zm52 81c6-60-76-77-97-28-3 7-6 17-6 28h103" id="W"/><path d="M141 0L90-78 38 0H4l68-98-65-92h35l48 74 47-74h35l-64 92 68 98h-35" id="X"/><g id="k"><use transform="matrix(0.06172839506172839,0,0,0.06172839506172839,0,0)" xlink:href="#T"/><use transform="matrix(0.06172839506172839,0,0,0.06172839506172839,11.11111111111111,0)" xlink:href="#U"/><use transform="matrix(0.06172839506172839,0,0,0.06172839506172839,23.45679012345679,0)" xlink:href="#V"/><use transform="matrix(0.06172839506172839,0,0,0.06172839506172839,35.80246913580247,0)" xlink:href="#S"/><use transform="matrix(0.06172839506172839,0,0,0.06172839506172839,41.97530864197531,0)" xlink:href="#W"/><use transform="matrix(0.06172839506172839,0,0,0.06172839506172839,54.32098765432099,0)" xlink:href="#X"/><use transform="matrix(0.06172839506172839,0,0,0.06172839506172839,65.4320987654321,0)" xlink:href="#S"/></g><path d="M185-189c-5-48-123-54-124 2 14 75 158 14 163 119 3 78-121 87-175 55-17-10-28-26-33-46l33-7c5 56 141 63 141-1 0-78-155-14-162-118-5-82 145-84 179-34 5 7 8 16 11 25" id="Y"/><path d="M84 4C-5 8 30-112 23-190h32v120c0 31 7 50 39 49 72-2 45-101 50-169h31l1 190h-30c-1-10 1-25-2-33-11 22-28 36-60 37" id="Z"/><path d="M115-194c53 0 69 39 70 98 0 66-23 100-70 100C84 3 66-7 56-30L54 0H23l1-261h32v101c10-23 28-34 59-34zm-8 174c40 0 45-34 45-75 0-40-5-75-45-74-42 0-51 32-51 76 0 43 10 73 51 73" id="aa"/><path d="M16-82v-28h88v28H16" id="ab"/><path d="M24 0v-261h32V0H24" id="ac"/><g id="l"><use transform="matrix(0.06172839506172839,0,0,0.06172839506172839,0,0)" xlink:href="#Y"/><use transform="matrix(0.06172839506172839,0,0,0.06172839506172839,14.814814814814813,0)" xlink:href="#Z"/><use transform="matrix(0.06172839506172839,0,0,0.06172839506172839,27.160493827160494,0)" xlink:href="#aa"/><use transform="matrix(0.06172839506172839,0,0,0.06172839506172839,39.50617283950617,0)" xlink:href="#ab"/><use transform="matrix(0.06172839506172839,0,0,0.06172839506172839,46.85185185185185,0)" xlink:href="#ac"/><use transform="matrix(0.06172839506172839,0,0,0.06172839506172839,51.72839506172839,0)" xlink:href="#Q"/><use transform="matrix(0.06172839506172839,0,0,0.06172839506172839,56.60493827160494,0)" xlink:href="#R"/><use transform="matrix(0.06172839506172839,0,0,0.06172839506172839,67.71604938271605,0)" xlink:href="#S"/></g><path d="M177-190C167-65 218 103 67 71c-23-6-38-20-44-43l32-5c15 47 100 32 89-28v-30C133-14 115 1 83 1 29 1 15-40 15-95c0-56 16-97 71-98 29-1 48 16 59 35 1-10 0-23 2-32h30zM94-22c36 0 50-32 50-73 0-42-14-75-50-75-39 0-46 34-46 75s6 73 46 73" id="ad"/><path d="M179-190L93 31C79 59 56 82 12 73V49c39 6 53-20 64-50L1-190h34L92-34l54-156h33" id="ae"/><g id="m"><use transform="matrix(0.05925925925925927,0,0,0.05925925925925927,0,0)" xlink:href="#Y"/><use transform="matrix(0.05925925925925927,0,0,0.05925925925925927,14.222222222222225,0)" xlink:href="#Q"/><use transform="matrix(0.05925925925925927,0,0,0.05925925925925927,18.903703703703705,0)" xlink:href="#V"/><use transform="matrix(0.05925925925925927,0,0,0.05925925925925927,30.75555555555556,0)" xlink:href="#ad"/><use transform="matrix(0.05925925925925927,0,0,0.05925925925925927,42.607407407407415,0)" xlink:href="#ac"/><use transform="matrix(0.05925925925925927,0,0,0.05925925925925927,47.2888888888889,0)" xlink:href="#ae"/></g><path d="M143 0L79-87 56-68V0H24v-261h32v163l83-92h37l-77 82L181 0h-38" id="af"/><path d="M85-194c31 0 48 13 60 33l-1-100h32l1 261h-30c-2-10 0-23-3-31C134-8 116 4 85 4 32 4 16-35 15-94c0-66 23-100 70-100zm9 24c-40 0-46 34-46 75 0 40 6 74 45 74 42 0 51-32 51-76 0-42-9-74-50-73" id="ag"/><g id="n"><use transform="matrix(0.05925925925925927,0,0,0.05925925925925927,0,0)" xlink:href="#P"/><use transform="matrix(0.05925925925925927,0,0,0.05925925925925927,11.851851851851853,0)" xlink:href="#Q"/><use transform="matrix(0.05925925925925927,0,0,0.05925925925925927,16.533333333333335,0)" xlink:href="#V"/><use transform="matrix(0.05925925925925927,0,0,0.05925925925925927,28.385185185185186,0)" xlink:href="#af"/><use transform="matrix(0.05925925925925927,0,0,0.05925925925925927,39.05185185185185,0)" xlink:href="#W"/><use transform="matrix(0.05925925925925927,0,0,0.05925925925925927,50.903703703703705,0)" xlink:href="#ag"/></g><g id="o"><use transform="matrix(0.05925925925925927,0,0,0.05925925925925927,0,0)" xlink:href="#P"/><use transform="matrix(0.05925925925925927,0,0,0.05925925925925927,11.851851851851853,0)" xlink:href="#Q"/><use transform="matrix(0.05925925925925927,0,0,0.05925925925925927,16.533333333333335,0)" xlink:href="#R"/><use transform="matrix(0.05925925925925927,0,0,0.05925925925925927,27.200000000000003,0)" xlink:href="#S"/><use transform="matrix(0.05925925925925927,0,0,0.05925925925925927,33.12592592592593,0)" xlink:href="#R"/></g><path d="M87 75C49 33 22-17 22-94c0-76 28-126 65-167h31c-38 41-64 92-64 168S80 34 118 75H87" id="ah"/><path d="M33-261c38 41 65 92 65 168S71 34 33 75H2C39 34 66-17 66-93S39-220 2-261h31" id="ai"/><g id="p"><use transform="matrix(0.05925925925925927,0,0,0.05925925925925927,0,0)" xlink:href="#ah"/><use transform="matrix(0.05925925925925927,0,0,0.05925925925925927,7.051851851851853,0)" xlink:href="#Y"/><use transform="matrix(0.05925925925925927,0,0,0.05925925925925927,21.27407407407408,0)" xlink:href="#P"/><use transform="matrix(0.05925925925925927,0,0,0.05925925925925927,33.125925925925934,0)" xlink:href="#P"/><use transform="matrix(0.05925925925925927,0,0,0.05925925925925927,44.97777777777779,0)" xlink:href="#R"/><use transform="matrix(0.05925925925925927,0,0,0.05925925925925927,55.64444444444446,0)" xlink:href="#ai"/></g><g id="q"><use transform="matrix(0.05925925925925927,0,0,0.05925925925925927,0,0)" xlink:href="#U"/><use transform="matrix(0.05925925925925927,0,0,0.05925925925925927,11.851851851851853,0)" xlink:href="#V"/></g><g id="r"><use transform="matrix(0.05925925925925927,0,0,0.05925925925925927,0,0)" xlink:href="#Y"/><use transform="matrix(0.05925925925925927,0,0,0.05925925925925927,14.222222222222225,0)" xlink:href="#Q"/><use transform="matrix(0.05925925925925927,0,0,0.05925925925925927,18.903703703703705,0)" xlink:href="#V"/><use transform="matrix(0.05925925925925927,0,0,0.05925925925925927,30.75555555555556,0)" xlink:href="#ad"/><use transform="matrix(0.05925925925925927,0,0,0.05925925925925927,42.607407407407415,0)" xlink:href="#ac"/><use transform="matrix(0.05925925925925927,0,0,0.05925925925925927,47.2888888888889,0)" xlink:href="#ae"/></g><g id="s"><use transform="matrix(0.05925925925925927,0,0,0.05925925925925927,0,0)" xlink:href="#P"/><use transform="matrix(0.05925925925925927,0,0,0.05925925925925927,11.851851851851853,0)" xlink:href="#Q"/><use transform="matrix(0.05925925925925927,0,0,0.05925925925925927,16.533333333333335,0)" xlink:href="#R"/><use transform="matrix(0.05925925925925927,0,0,0.05925925925925927,27.200000000000003,0)" xlink:href="#S"/><use transform="matrix(0.05925925925925927,0,0,0.05925925925925927,33.12592592592593,0)" xlink:href="#R"/></g><path d="M24 0v-248h195v40H76v63h132v40H76v65h150V0H24" id="aj"/><path d="M135-194c87-1 58 113 63 194h-50c-7-57 23-157-34-157-59 0-34 97-39 157H25l-1-190h47c2 12-1 28 3 38 12-26 28-41 61-42" id="ak"/><path d="M128 0H69L1-190h53L99-40l48-150h52" id="al"/><path d="M25-224v-37h50v37H25zM25 0v-190h50V0H25" id="am"/><path d="M135-150c-39-12-60 13-60 57V0H25l-1-190h47c2 13-1 29 3 40 6-28 27-53 61-41v41" id="an"/><path d="M110-194c64 0 96 36 96 99 0 64-35 99-97 99-61 0-95-36-95-99 0-62 34-99 96-99zm-1 164c35 0 45-28 45-65 0-40-10-65-43-65-34 0-45 26-45 65 0 36 10 65 43 65" id="ao"/><path d="M220-157c-53 9-28 100-34 157h-49v-107c1-27-5-49-29-50C55-147 81-57 75 0H25l-1-190h47c2 12-1 28 3 38 10-53 101-56 108 0 13-22 24-43 59-42 82 1 51 116 57 194h-49v-107c-1-25-5-48-29-50" id="ap"/><path d="M185-48c-13 30-37 53-82 52C43 2 14-33 14-96s30-98 90-98c62 0 83 45 84 108H66c0 31 8 55 39 56 18 0 30-7 34-22zm-45-69c5-46-57-63-70-21-2 6-4 13-4 21h74" id="aq"/><path d="M115-3C79 11 28 4 28-45v-112H4v-33h27l15-45h31v45h36v33H77v99c-1 23 16 31 38 25v30" id="ar"/><g id="t"><use transform="matrix(0.06172839506172839,0,0,0.06172839506172839,0,0)" xlink:href="#aj"/><use transform="matrix(0.06172839506172839,0,0,0.06172839506172839,14.814814814814813,0)" xlink:href="#ak"/><use transform="matrix(0.06172839506172839,0,0,0.06172839506172839,28.33333333333333,0)" xlink:href="#al"/><use transform="matrix(0.06172839506172839,0,0,0.06172839506172839,40.679012345679006,0)" xlink:href="#am"/><use transform="matrix(0.06172839506172839,0,0,0.06172839506172839,46.85185185185185,0)" xlink:href="#an"/><use transform="matrix(0.06172839506172839,0,0,0.06172839506172839,55.49382716049382,0)" xlink:href="#ao"/><use transform="matrix(0.06172839506172839,0,0,0.06172839506172839,69.01234567901234,0)" xlink:href="#ak"/><use transform="matrix(0.06172839506172839,0,0,0.06172839506172839,82.53086419753086,0)" xlink:href="#ap"/><use transform="matrix(0.06172839506172839,0,0,0.06172839506172839,102.28395061728395,0)" xlink:href="#aq"/><use transform="matrix(0.06172839506172839,0,0,0.06172839506172839,114.62962962962963,0)" xlink:href="#ak"/><use transform="matrix(0.06172839506172839,0,0,0.06172839506172839,128.14814814814815,0)" xlink:href="#ar"/></g><path d="M199 0l-22-63H83L61 0H9l90-248h61L250 0h-51zm-33-102l-36-108c-10 38-24 72-36 108h72" id="as"/><path d="M88-194c31-1 46 15 58 34l-1-101h50l1 261h-48c-2-10 0-23-3-31C134-8 116 4 84 4 32 4 16-41 15-95c0-56 19-97 73-99zm17 164c33 0 40-30 41-66 1-37-9-64-41-64s-38 30-39 65c0 43 13 65 39 65" id="at"/><path d="M133-34C117-15 103 5 69 4 32 3 11-16 11-54c-1-60 55-63 116-61 1-26-3-47-28-47-18 1-26 9-28 27l-52-2c7-38 36-58 82-57s74 22 75 68l1 82c-1 14 12 18 25 15v27c-30 8-71 5-69-32zm-48 3c29 0 43-24 42-57-32 0-66-3-65 30 0 17 8 27 23 27" id="au"/><path d="M135-194c53 0 70 44 70 98 0 56-19 98-73 100-31 1-45-17-59-34 3 33 2 69 2 105H25l-1-265h48c2 10 0 23 3 31 11-24 29-35 60-35zM114-30c33 0 39-31 40-66 0-38-9-64-40-64-56 0-55 130 0 130" id="av"/><g id="u"><use transform="matrix(0.06172839506172839,0,0,0.06172839506172839,0,0)" xlink:href="#as"/><use transform="matrix(0.06172839506172839,0,0,0.06172839506172839,15.987654320987653,0)" xlink:href="#at"/><use transform="matrix(0.06172839506172839,0,0,0.06172839506172839,29.50617283950617,0)" xlink:href="#au"/><use transform="matrix(0.06172839506172839,0,0,0.06172839506172839,41.85185185185185,0)" xlink:href="#av"/><use transform="matrix(0.06172839506172839,0,0,0.06172839506172839,55.37037037037037,0)" xlink:href="#ar"/><use transform="matrix(0.06172839506172839,0,0,0.06172839506172839,62.716049382716044,0)" xlink:href="#am"/><use transform="matrix(0.06172839506172839,0,0,0.06172839506172839,68.88888888888889,0)" xlink:href="#al"/><use transform="matrix(0.06172839506172839,0,0,0.06172839506172839,81.23456790123457,0)" xlink:href="#aq"/></g><path d="M24-248c120-7 223 5 221 122C244-46 201 0 124 0H24v-248zM76-40c74 7 117-18 117-86 0-67-45-88-117-82v168" id="aw"/><g id="v"><use transform="matrix(0.06172839506172839,0,0,0.06172839506172839,0,0)" xlink:href="#aw"/><use transform="matrix(0.06172839506172839,0,0,0.06172839506172839,15.987654320987653,0)" xlink:href="#au"/><use transform="matrix(0.06172839506172839,0,0,0.06172839506172839,28.333333333333332,0)" xlink:href="#ar"/><use transform="matrix(0.06172839506172839,0,0,0.06172839506172839,35.67901234567901,0)" xlink:href="#au"/></g><path d="M169-182c-1-43-94-46-97-3 18 66 151 10 154 114 3 95-165 93-204 36-6-8-10-19-12-30l50-8c3 46 112 56 116 5-17-69-150-10-154-114-4-87 153-88 188-35 5 8 8 18 10 28" id="ax"/><path d="M85 4C-2 5 27-109 22-190h50c7 57-23 150 33 157 60-5 35-97 40-157h50l1 190h-47c-2-12 1-28-3-38-12 25-28 42-61 42" id="ay"/><path d="M190-63c-7 42-38 67-86 67-59 0-84-38-90-98-12-110 154-137 174-36l-49 2c-2-19-15-32-35-32-30 0-35 28-38 64-6 74 65 87 74 30" id="az"/><g id="w"><use transform="matrix(0.06172839506172839,0,0,0.06172839506172839,0,0)" xlink:href="#ax"/><use transform="matrix(0.06172839506172839,0,0,0.06172839506172839,14.814814814814813,0)" xlink:href="#ar"/><use transform="matrix(0.06172839506172839,0,0,0.06172839506172839,22.160493827160494,0)" xlink:href="#an"/><use transform="matrix(0.06172839506172839,0,0,0.06172839506172839,30.80246913580247,0)" xlink:href="#ay"/><use transform="matrix(0.06172839506172839,0,0,0.06172839506172839,44.32098765432099,0)" xlink:href="#az"/><use transform="matrix(0.06172839506172839,0,0,0.06172839506172839,56.666666666666664,0)" xlink:href="#ar"/><use transform="matrix(0.06172839506172839,0,0,0.06172839506172839,64.01234567901234,0)" xlink:href="#ay"/><use transform="matrix(0.06172839506172839,0,0,0.06172839506172839,77.53086419753086,0)" xlink:href="#an"/><use transform="matrix(0.06172839506172839,0,0,0.06172839506172839,86.17283950617283,0)" xlink:href="#aq"/></g><path d="M233-177c-1 41-23 64-60 70L243 0h-38l-65-103H63V0H30v-248c88 3 205-21 203 71zM63-129c60-2 137 13 137-47 0-61-80-42-137-45v92" id="aA"/><path d="M115-194c55 1 70 41 70 98S169 2 115 4C84 4 66-9 55-30l1 105H24l-1-265h31l2 30c10-21 28-34 59-34zm-8 174c40 0 45-34 45-75s-6-73-45-74c-42 0-51 32-51 76 0 43 10 73 51 73" id="aB"/><g id="x"><use transform="matrix(0.05555555555555555,0,0,0.05555555555555555,0,0)" xlink:href="#aA"/><use transform="matrix(0.05555555555555555,0,0,0.05555555555555555,14.388888888888888,0)" xlink:href="#W"/><use transform="matrix(0.05555555555555555,0,0,0.05555555555555555,25.5,0)" xlink:href="#R"/><use transform="matrix(0.05555555555555555,0,0,0.05555555555555555,35.5,0)" xlink:href="#aB"/><use transform="matrix(0.05555555555555555,0,0,0.05555555555555555,46.611111111111114,0)" xlink:href="#U"/><use transform="matrix(0.05555555555555555,0,0,0.05555555555555555,57.72222222222223,0)" xlink:href="#V"/><use transform="matrix(0.05555555555555555,0,0,0.05555555555555555,68.83333333333334,0)" xlink:href="#R"/><use transform="matrix(0.05555555555555555,0,0,0.05555555555555555,78.83333333333334,0)" xlink:href="#W"/></g><path d="M205 0l-28-72H64L36 0H1l101-248h38L239 0h-34zm-38-99l-47-123c-12 45-31 82-46 123h93" id="aC"/><g id="y"><use transform="matrix(0.05555555555555555,0,0,0.05555555555555555,0,0)" xlink:href="#aC"/><use transform="matrix(0.05555555555555555,0,0,0.05555555555555555,13.333333333333332,0)" xlink:href="#T"/><use transform="matrix(0.05555555555555555,0,0,0.05555555555555555,23.333333333333332,0)" xlink:href="#S"/><use transform="matrix(0.05555555555555555,0,0,0.05555555555555555,28.888888888888886,0)" xlink:href="#Q"/><use transform="matrix(0.05555555555555555,0,0,0.05555555555555555,33.27777777777777,0)" xlink:href="#U"/><use transform="matrix(0.05555555555555555,0,0,0.05555555555555555,44.388888888888886,0)" xlink:href="#V"/></g><path d="M62-168c30 0 50 19 50 48S92-70 62-70c-29 0-48-21-48-50s20-48 48-48" id="aD"/><use transform="matrix(0.05925925925925927,0,0,0.05925925925925927,0,0)" xlink:href="#aD" id="z"/><path d="M30 0v-248h187v28H63v79h144v27H63v87h162V0H30" id="aE"/><path d="M140-251c81 0 123 46 123 126C263-46 219 4 140 4 59 4 17-45 17-125s42-126 123-126zm0 227c63 0 89-41 89-101s-29-99-89-99c-61 0-89 39-89 99S79-25 140-24" id="aF"/><path d="M240 0l2-218c-23 76-54 145-80 218h-23L58-218 59 0H30v-248h44l77 211c21-75 51-140 76-211h43V0h-30" id="aG"/><path d="M106-169C34-169 62-67 57 0H25v-261h32l-1 103c12-21 28-36 61-36 89 0 53 116 60 194h-32v-121c2-32-8-49-39-48" id="aH"/><path d="M141-36C126-15 110 5 73 4 37 3 15-17 15-53c-1-64 63-63 125-63 3-35-9-54-41-54-24 1-41 7-42 31l-33-3c5-37 33-52 76-52 45 0 72 20 72 64v82c-1 20 7 32 28 27v20c-31 9-61-2-59-35zM48-53c0 20 12 33 32 33 41-3 63-29 60-74-43 2-92-5-92 41" id="aI"/><g id="A"><use transform="matrix(0.05925925925925927,0,0,0.05925925925925927,0,0)" xlink:href="#aE"/><use transform="matrix(0.05925925925925927,0,0,0.05925925925925927,14.222222222222225,0)" xlink:href="#aF"/><use transform="matrix(0.05925925925925927,0,0,0.05925925925925927,30.81481481481482,0)" xlink:href="#aG"/><use transform="matrix(0.05925925925925927,0,0,0.05925925925925927,48.533333333333346,0)" xlink:href="#aC"/><use transform="matrix(0.05925925925925927,0,0,0.05925925925925927,62.75555555555558,0)" xlink:href="#ab"/><use transform="matrix(0.05925925925925927,0,0,0.05925925925925927,69.80740740740742,0)" xlink:href="#aE"/><use transform="matrix(0.05925925925925927,0,0,0.05925925925925927,84.02962962962965,0)" xlink:href="#V"/><use transform="matrix(0.05925925925925927,0,0,0.05925925925925927,95.8814814814815,0)" xlink:href="#aH"/><use transform="matrix(0.05925925925925927,0,0,0.05925925925925927,107.73333333333335,0)" xlink:href="#aI"/><use transform="matrix(0.05925925925925927,0,0,0.05925925925925927,119.5851851851852,0)" xlink:href="#V"/><use transform="matrix(0.05925925925925927,0,0,0.05925925925925927,131.43703703703704,0)" xlink:href="#T"/><use transform="matrix(0.05925925925925927,0,0,0.05925925925925927,142.1037037037037,0)" xlink:href="#W"/><use transform="matrix(0.05925925925925927,0,0,0.05925925925925927,153.95555555555555,0)" xlink:href="#ag"/></g><path d="M197 0v-115H63V0H30v-248h33v105h134v-105h34V0h-34" id="aJ"/><path d="M114-163C36-179 61-72 57 0H25l-1-190h30c1 12-1 29 2 39 6-27 23-49 58-41v29" id="aK"/><g id="B"><use transform="matrix(0.05925925925925927,0,0,0.05925925925925927,0,0)" xlink:href="#aJ"/><use transform="matrix(0.05925925925925927,0,0,0.05925925925925927,15.34814814814815,0)" xlink:href="#Q"/><use transform="matrix(0.05925925925925927,0,0,0.05925925925925927,20.029629629629632,0)" xlink:href="#W"/><use transform="matrix(0.05925925925925927,0,0,0.05925925925925927,31.881481481481487,0)" xlink:href="#aK"/><use transform="matrix(0.05925925925925927,0,0,0.05925925925925927,38.93333333333334,0)" xlink:href="#aI"/><use transform="matrix(0.05925925925925927,0,0,0.05925925925925927,50.78518518518519,0)" xlink:href="#aK"/><use transform="matrix(0.05925925925925927,0,0,0.05925925925925927,57.83703703703704,0)" xlink:href="#T"/><use transform="matrix(0.05925925925925927,0,0,0.05925925925925927,68.5037037037037,0)" xlink:href="#aH"/><use transform="matrix(0.05925925925925927,0,0,0.05925925925925927,80.35555555555555,0)" xlink:href="#Q"/><use transform="matrix(0.05925925925925927,0,0,0.05925925925925927,85.03703703703704,0)" xlink:href="#T"/><use transform="matrix(0.05925925925925927,0,0,0.05925925925925927,95.70370370370371,0)" xlink:href="#aI"/><use transform="matrix(0.05925925925925927,0,0,0.05925925925925927,107.55555555555556,0)" xlink:href="#ac"/></g><path d="M33 0v-38h34V0H33" id="aL"/><g id="C"><use transform="matrix(0.05925925925925927,0,0,0.05925925925925927,0,0)" xlink:href="#Y"/><use transform="matrix(0.05925925925925927,0,0,0.05925925925925927,14.222222222222225,0)" xlink:href="#P"/><use transform="matrix(0.05925925925925927,0,0,0.05925925925925927,26.074074074074076,0)" xlink:href="#P"/><use transform="matrix(0.05925925925925927,0,0,0.05925925925925927,37.92592592592593,0)" xlink:href="#R"/><use transform="matrix(0.05925925925925927,0,0,0.05925925925925927,48.592592592592595,0)" xlink:href="#ab"/><use transform="matrix(0.05925925925925927,0,0,0.05925925925925927,55.644444444444446,0)" xlink:href="#U"/><use transform="matrix(0.05925925925925927,0,0,0.05925925925925927,67.4962962962963,0)" xlink:href="#V"/><use transform="matrix(0.05925925925925927,0,0,0.05925925925925927,79.34814814814814,0)" xlink:href="#ab"/><use transform="matrix(0.05925925925925927,0,0,0.05925925925925927,86.39999999999999,0)" xlink:href="#Y"/><use transform="matrix(0.05925925925925927,0,0,0.05925925925925927,100.62222222222222,0)" xlink:href="#P"/><use transform="matrix(0.05925925925925927,0,0,0.05925925925925927,112.47407407407407,0)" xlink:href="#P"/><use transform="matrix(0.05925925925925927,0,0,0.05925925925925927,124.32592592592592,0)" xlink:href="#R"/><use transform="matrix(0.05925925925925927,0,0,0.05925925925925927,134.9925925925926,0)" xlink:href="#aL"/></g><path d="M30-248c87 1 191-15 191 75 0 78-77 80-158 76V0H30v-248zm33 125c57 0 124 11 124-50 0-59-68-47-124-48v98" id="aM"/><g id="D"><use transform="matrix(0.05925925925925927,0,0,0.05925925925925927,0,0)" xlink:href="#aM"/><use transform="matrix(0.05925925925925927,0,0,0.05925925925925927,14.222222222222225,0)" xlink:href="#aE"/><use transform="matrix(0.05925925925925927,0,0,0.05925925925925927,28.44444444444445,0)" xlink:href="#aF"/><use transform="matrix(0.05925925925925927,0,0,0.05925925925925927,45.037037037037045,0)" xlink:href="#aG"/><use transform="matrix(0.05925925925925927,0,0,0.05925925925925927,62.75555555555557,0)" xlink:href="#aC"/><use transform="matrix(0.05925925925925927,0,0,0.05925925925925927,76.97777777777779,0)" xlink:href="#ab"/><use transform="matrix(0.05925925925925927,0,0,0.05925925925925927,84.02962962962964,0)" xlink:href="#aE"/><use transform="matrix(0.05925925925925927,0,0,0.05925925925925927,98.25185185185187,0)" xlink:href="#V"/><use transform="matrix(0.05925925925925927,0,0,0.05925925925925927,110.10370370370372,0)" xlink:href="#aH"/><use transform="matrix(0.05925925925925927,0,0,0.05925925925925927,121.95555555555558,0)" xlink:href="#aI"/><use transform="matrix(0.05925925925925927,0,0,0.05925925925925927,133.80740740740742,0)" xlink:href="#V"/><use transform="matrix(0.05925925925925927,0,0,0.05925925925925927,145.65925925925927,0)" xlink:href="#T"/><use transform="matrix(0.05925925925925927,0,0,0.05925925925925927,156.32592592592593,0)" xlink:href="#W"/><use transform="matrix(0.05925925925925927,0,0,0.05925925925925927,168.17777777777778,0)" xlink:href="#ag"/></g><path d="M127-220V0H93v-220H8v-28h204v28h-85" id="aN"/><g id="E"><use transform="matrix(0.05925925925925927,0,0,0.05925925925925927,0,0)" xlink:href="#aN"/><use transform="matrix(0.05925925925925927,0,0,0.05925925925925927,12.97777777777778,0)" xlink:href="#aM"/><use transform="matrix(0.05925925925925927,0,0,0.05925925925925927,27.200000000000003,0)" xlink:href="#aE"/><use transform="matrix(0.05925925925925927,0,0,0.05925925925925927,41.42222222222223,0)" xlink:href="#aF"/><use transform="matrix(0.05925925925925927,0,0,0.05925925925925927,58.01481481481483,0)" xlink:href="#aG"/><use transform="matrix(0.05925925925925927,0,0,0.05925925925925927,75.73333333333335,0)" xlink:href="#aC"/><use transform="matrix(0.05925925925925927,0,0,0.05925925925925927,89.95555555555558,0)" xlink:href="#ab"/><use transform="matrix(0.05925925925925927,0,0,0.05925925925925927,97.00740740740743,0)" xlink:href="#aE"/><use transform="matrix(0.05925925925925927,0,0,0.05925925925925927,111.22962962962966,0)" xlink:href="#V"/><use transform="matrix(0.05925925925925927,0,0,0.05925925925925927,123.0814814814815,0)" xlink:href="#aH"/><use transform="matrix(0.05925925925925927,0,0,0.05925925925925927,134.93333333333337,0)" xlink:href="#aI"/><use transform="matrix(0.05925925925925927,0,0,0.05925925925925927,146.7851851851852,0)" xlink:href="#V"/><use transform="matrix(0.05925925925925927,0,0,0.05925925925925927,158.63703703703706,0)" xlink:href="#T"/><use transform="matrix(0.05925925925925927,0,0,0.05925925925925927,169.30370370370372,0)" xlink:href="#W"/><use transform="matrix(0.05925925925925927,0,0,0.05925925925925927,181.15555555555557,0)" xlink:href="#ag"/></g><g id="F"><use transform="matrix(0.05925925925925927,0,0,0.05925925925925927,0,0)" xlink:href="#Y"/><use transform="matrix(0.05925925925925927,0,0,0.05925925925925927,14.222222222222225,0)" xlink:href="#P"/><use transform="matrix(0.05925925925925927,0,0,0.05925925925925927,26.074074074074076,0)" xlink:href="#P"/><use transform="matrix(0.05925925925925927,0,0,0.05925925925925927,37.92592592592593,0)" xlink:href="#R"/><use transform="matrix(0.05925925925925927,0,0,0.05925925925925927,48.592592592592595,0)" xlink:href="#ab"/><use transform="matrix(0.05925925925925927,0,0,0.05925925925925927,55.644444444444446,0)" xlink:href="#U"/><use transform="matrix(0.05925925925925927,0,0,0.05925925925925927,67.4962962962963,0)" xlink:href="#V"/><use transform="matrix(0.05925925925925927,0,0,0.05925925925925927,79.34814814814814,0)" xlink:href="#ab"/><use transform="matrix(0.05925925925925927,0,0,0.05925925925925927,86.39999999999999,0)" xlink:href="#Y"/><use transform="matrix(0.05925925925925927,0,0,0.05925925925925927,100.62222222222222,0)" xlink:href="#P"/><use transform="matrix(0.05925925925925927,0,0,0.05925925925925927,112.47407407407407,0)" xlink:href="#P"/><use transform="matrix(0.05925925925925927,0,0,0.05925925925925927,124.32592592592592,0)" xlink:href="#R"/><use transform="matrix(0.05925925925925927,0,0,0.05925925925925927,134.9925925925926,0)" xlink:href="#aL"/></g></defs></g></svg>