<svg xmlns="http://www.w3.org/2000/svg" xmlns:xlink="http://www.w3.org/1999/xlink" xmlns:lucid="lucid" width="1589.33" height="572.72"><g transform="translate(-326 -360)" lucid:page-tab-id="1m08yfgLwAwC"><path d="M0 0h1760v1360H0z" fill="#fff"/><path d="M346 380h1549.33v532.72H346z" stroke="#000" stroke-width="2" fill="#0e62c2" fill-opacity=".36"/><path d="M796 536h760v300H796z" stroke="#000" stroke-opacity="0" stroke-width="2" fill="#7ab648"/><use xlink:href="#a" transform="matrix(1,0,0,1,801,541) translate(35.520833333333314 132.890625)"/><use xlink:href="#b" transform="matrix(1,0,0,1,801,541) translate(194.58333333333331 132.890625)"/><use xlink:href="#c" transform="matrix(1,0,0,1,801,541) translate(361.8229166666667 132.890625)"/><use xlink:href="#d" transform="matrix(1,0,0,1,801,541) translate(539.53125 132.890625)"/><use xlink:href="#e" transform="matrix(1,0,0,1,801,541) translate(618.7760416666667 132.890625)"/><use xlink:href="#c" transform="matrix(1,0,0,1,801,541) translate(194.140625 187.65625)"/><use xlink:href="#f" transform="matrix(1,0,0,1,801,541) translate(371.84895833333337 187.65625)"/><use xlink:href="#g" transform="matrix(1,0,0,1,801,541) translate(512.8385416666667 187.65625)"/><path d="M616 416h240v160H616z" stroke="#000" stroke-opacity="0" stroke-width="2" fill="#c92d39"/><use xlink:href="#h" transform="matrix(1,0,0,1,621,421) translate(30.986328125 46.9921875)"/><use xlink:href="#i" transform="matrix(1,0,0,1,621,421) translate(78.994140625 46.9921875)"/><use xlink:href="#j" transform="matrix(1,0,0,1,621,421) translate(30.986328125 86.9921875)"/><use xlink:href="#k" transform="matrix(1,0,0,1,621,421) translate(42.98828125 126.9921875)"/><path d="M836 776h680v100H836z" stroke="#000" stroke-width="2" fill="#fff"/><g><use xlink:href="#l" transform="matrix(1,0,0,1,841,781) translate(45.370370370370324 55.66666666666667)"/><use xlink:href="#m" transform="matrix(1,0,0,1,841,781) translate(243.44444444444443 55.66666666666667)"/><use xlink:href="#n" transform="matrix(1,0,0,1,841,781) translate(408.7777777777778 55.66666666666667)"/></g><path d="M1102.04 542.64c-2.04-3.55-2.04-7.94 0-11.5l26.03-45.4c2.04-3.54 5.8-5.74 9.88-5.74h52.1c4.08 0 7.83 2.2 9.88 5.75l26.03 45.4c2.04 3.55 2.04 7.94 0 11.5l-26.03 45.4c-2.04 3.54-5.8 5.74-9.88 5.74h-52.1c-4.08 0-7.84-2.2-9.88-5.76zm0 0" fill="#0e62c2"/><path d="M1183.12 593.8l-34.42-33.93-11.25-26.97 12.85-20.5 6.43 1.58 8.04-1.58 14.45-1.6 41.02 41.82-20.3 35.42c-2.05 3.55-5.8 5.75-9.9 5.75zm0 0" fill="#0851b0"/><path d="M1170.1 535.76c0-3.25-2.68-5.86-5.98-5.86-3.32 0-6 2.6-6 5.86 0 3.24 2.68 5.86 6 5.86 3.3 0 6-2.62 6-5.86z" fill="#fff"/><path d="M1186.1 521.6l-5.3-9c-.97-1.64-2.73-2.56-4.55-2.56H1152c-1.95 0-3.65 1.04-4.56 2.57l-6.83 11.58 6.08 10.3 8.33-14.15h28.83c.9 0 1.8.46 2.28 1.28H1174l8.34 14.13-9.12 15.46-5.3 8.97c-.44.76-1.3 1.28-2.26 1.28l6.05-10.26H1155l-8.37-14.25-.7-1.2-5.32-9c-.43-.76-.46-1.73 0-2.55l-5.3 9c-.97 1.64-.9 3.6 0 5.13l12.14 20.57c.97 1.65 2.72 2.57 4.54 2.57h13.66c.1 0 .2 0 .3-.02h10.3c1.96 0 3.64-1.03 4.55-2.57l12.13-20.57c.97-1.64.9-3.6 0-5.14zm0 0" fill="#fff"/><defs><path fill="#fff" d="M121-49c-19-67-1-156 58-156 25 0 54 5 86 16 9-242 5-378 5-610 0-191-29-325-29-404l-93 7c-61-27-92-59-92-96 0-71 70-107 209-107 202 0 374 29 517 87 197 79 295 205 295 377 0 99-50 178-149 237 161 81 241 189 241 326 0 142-71 248-212 321C733 66 361 57 121-49zm447-755c127 0 314-41 314-145 0-85-57-151-172-196-79-31-173-50-282-58 3 89 4 222 4 401 42-15 89-2 136-2zm403 435c0-61-48-112-140-157-119-59-224-59-380-95 5 174 10 318-4 464 29 2 56 3 82 3 295 0 442-72 442-215" id="o"/><path fill="#fff" d="M800-724c-3 222-2 446 2 668 1 51-39 90-90 90-53 0-84-27-94-82-63 55-132 82-207 82C174 34 56-189 56-635c0-150 38-225 113-225 56 0 102 41 102 97 0 43-12 196-12 239 0 243 51 364 154 364 106 0 187-142 196-250 5-64-2-333 21-399 87-53 172-58 170 85" id="p"/><path fill="#fff" d="M166-1145c59 0 114 47 114 107 0 55-45 110-101 110S68-983 68-1038c0-54 42-107 98-107zm102 399c0 47 1 108-5 186-18 245-2 393-31 567C152 48 64 53 63-55c-3-213 9-280 9-561 0-147 36-220 109-220 58 0 87 30 87 90" id="q"/><path fill="#fff" d="M253-1232c0 339 47 894 1 1220C165 56 70 64 75-94c7-254-17-925-15-1193 0-75 31-112 92-112 67 0 101 56 101 167" id="r"/><path fill="#fff" d="M555-828c4-155-11-330-11-481 0-60 30-90 89-90 48 0 79 26 94 78 7 24 10 70 10 137 0 363-3 845 29 1153-44 35-82 53-114 53-23 0-40-14-53-42-61 36-127 54-196 54C185 34 15-173 15-393c0-266 251-557 540-435zM215-399c0 121 74 239 189 239 65 0 121-23 166-69-7-86-10-208-10-365-47-42-93-63-138-63-109 0-207 146-207 258" id="s"/><path fill="#fff" d="M432-858c231 0 331 186 331 435 0 67-21 291-19 358 2 50-44 98-94 97-161-3-83-317-83-459 0-161-47-242-140-242-73 0-130 35-171 106v447c0 100-32 150-97 150C98 34 67-4 67-80c-2-279 3-404 3-720 48-30 87-45 116-45 27 0 46 14 56 41 59-36 123-54 190-54" id="t"/><path fill="#fff" d="M783-642c0 71 21 306 21 377 0 460-121 690-364 690-136 0-280-109-327-207-34-72 20-145 90-143 27 0 63 24 107 73C435 286 558 226 587 5 297 130 44-148 44-418c0-291 294-545 577-389 67-39 142-43 157 48 3 17 5 56 5 117zM242-423c0 121 98 257 214 257 26 0 76-21 150-63-1-66-9-190-22-372-40-39-84-59-133-59-116 0-209 122-209 237" id="u"/><g id="a"><use transform="matrix(0.026041666666666668,0,0,0.026041666666666668,0,0)" xlink:href="#o"/><use transform="matrix(0.026041666666666668,0,0,0.026041666666666668,31.588541666666668,0)" xlink:href="#p"/><use transform="matrix(0.026041666666666668,0,0,0.026041666666666668,54.296875,0)" xlink:href="#q"/><use transform="matrix(0.026041666666666668,0,0,0.026041666666666668,63.28125,0)" xlink:href="#r"/><use transform="matrix(0.026041666666666668,0,0,0.026041666666666668,71.90104166666667,0)" xlink:href="#s"/><use transform="matrix(0.026041666666666668,0,0,0.026041666666666668,93.48958333333334,0)" xlink:href="#q"/><use transform="matrix(0.026041666666666668,0,0,0.026041666666666668,102.47395833333334,0)" xlink:href="#t"/><use transform="matrix(0.026041666666666668,0,0,0.026041666666666668,123.90625,0)" xlink:href="#u"/></g><path fill="#fff" d="M174-1391c39 0 103 43 91 85 76 174 253 635 399 995 104-301 211-597 312-901 31-90 52-141 65-153 78-73 172-25 172 114V-12c-105 78-190 68-186-119 4-214 1-435 2-654-44 106-177 513-246 703-26 71-73 104-126 104-48 0-92-54-133-162-42-113-129-337-261-674 7 416 9 459-9 804-41 29-76 44-107 44-75 0-64-100-62-174 5-198-15-855-15-1053 0-132 35-198 104-198" id="v"/><path fill="#fff" d="M836-686c0 187-30 463 2 630-71 75-129 122-171 10-82 53-167 80-256 80C187 34 46-160 46-393c0-281 308-555 614-431 19-27 45-40 76-40 67 0 100 59 100 178zM249-382c0 105 58 213 157 213 80 0 157-36 232-109 3-73 4-181 4-326 1 1-110-58-139-48-132-6-254 139-254 270" id="w"/><path fill="#fff" d="M693-317c70-2 127 82 85 150C718-70 552 31 404 34 201 38 40-151 44-358c4-212 146-388 302-458 115-51 232-54 316 28 45 43 73 95 84 157-37 55-72 83-106 83-41 12-94-120-135-109-108-10-258 167-258 275 0 142 52 213 157 213 43 0 97-25 163-74s108-74 126-74" id="x"/><path fill="#fff" d="M529-872c255 0 326 211 326 503 0 146-10 253-32 320-18 56-52 83-99 83-53 0-95-41-94-94 4-187 101-621-111-619-95 0-163 74-220 216-24 59-14 117-17 192-3 89-6 176-14 261-41 29-77 44-108 44-45 0-71-81-71-130 2-345 13-664 1-1005-5-133-25-201-25-206-1-52 39-92 90-92 54 0 94 31 103 97 19 137 4 374 7 532 83-68 171-102 264-102" id="y"/><path fill="#fff" d="M741-273c50-2 102 44 100 94 0 19-8 40-25 63C764-40 600 34 473 34 251 34 46-175 46-396c0-217 200-459 413-459 160 0 336 211 336 369 0 44-28 73-82 92-62 22-312 32-464 24 15 104 106 205 224 203 39 0 88-18 149-53s100-53 119-53zM572-570c-76-133-187-104-270 20 39-1 129-7 270-20" id="z"/><g id="b"><use transform="matrix(0.026041666666666668,0,0,0.026041666666666668,0,0)" xlink:href="#v"/><use transform="matrix(0.026041666666666668,0,0,0.026041666666666668,33.46354166666667,0)" xlink:href="#w"/><use transform="matrix(0.026041666666666668,0,0,0.026041666666666668,57.03125,0)" xlink:href="#x"/><use transform="matrix(0.026041666666666668,0,0,0.026041666666666668,78.33333333333334,0)" xlink:href="#y"/><use transform="matrix(0.026041666666666668,0,0,0.026041666666666668,101.14583333333334,0)" xlink:href="#q"/><use transform="matrix(0.026041666666666668,0,0,0.026041666666666668,110.13020833333334,0)" xlink:href="#t"/><use transform="matrix(0.026041666666666668,0,0,0.026041666666666668,131.5625,0)" xlink:href="#z"/></g><path fill="#fff" d="M271-154c141 3 362-7 506-8 91 0 136 33 136 99 0 60-38 90-114 90-169 0-530 29-647-12-46-16-67-116-67-288 0-188-19-816-17-1004 0-81 33-122 98-122 66 0 99 54 99 162 0 269 12 805 6 1083" id="A"/><path fill="#fff" d="M468-848c193 0 298 180 298 385 0 53-38 94-92 94-48 0-81-25-95-75-20-75-16-213-105-213-95 0-223 127-223 222v425c-45 29-84 44-116 44-42 0-63-31-63-92 0-166-4-210-4-604 0-125 33-188 99-188 53 0 83 27 91 82 68-53 138-80 210-80" id="B"/><g id="c"><use transform="matrix(0.026041666666666668,0,0,0.026041666666666668,0,0)" xlink:href="#A"/><use transform="matrix(0.026041666666666668,0,0,0.026041666666666668,23.854166666666668,0)" xlink:href="#z"/><use transform="matrix(0.026041666666666668,0,0,0.026041666666666668,46.875,0)" xlink:href="#w"/><use transform="matrix(0.026041666666666668,0,0,0.026041666666666668,70.44270833333334,0)" xlink:href="#B"/><use transform="matrix(0.026041666666666668,0,0,0.026041666666666668,90.70312500000001,0)" xlink:href="#t"/><use transform="matrix(0.026041666666666668,0,0,0.026041666666666668,112.1354166666667,0)" xlink:href="#q"/><use transform="matrix(0.026041666666666668,0,0,0.026041666666666668,121.1197916666667,0)" xlink:href="#t"/><use transform="matrix(0.026041666666666668,0,0,0.026041666666666668,142.55208333333334,0)" xlink:href="#u"/></g><g id="d"><use transform="matrix(0.026041666666666668,0,0,0.026041666666666668,0,0)" xlink:href="#w"/><use transform="matrix(0.026041666666666668,0,0,0.026041666666666668,23.567708333333336,0)" xlink:href="#t"/><use transform="matrix(0.026041666666666668,0,0,0.026041666666666668,45,0)" xlink:href="#s"/></g><path fill="#fff" d="M411-1399c368 0 645 350 645 727 0 378-306 706-681 706-95 0-326-60-319-143 5-59 62-115 128-94-2-146-3-465-3-958-58 5-88-29-77-83 53-121 126-155 307-155zM358-169c284 19 504-231 500-510-3-195-93-378-215-458-76-49-171-76-288-76 2 233 3 581 3 1044" id="C"/><path fill="#fff" d="M241-811c290-144 563 150 563 427 0 269-245 510-522 386 3 148 1 204-14 321-81 99-190 62-178-113 16-227-25-734-25-971 0-93 132-125 176-50zm191 649c100 0 176-118 176-222 0-126-96-273-217-273-53 0-94 27-123 80 5 119 8 237 8 352 56 42 108 63 156 63" id="D"/><g id="e"><use transform="matrix(0.026041666666666668,0,0,0.026041666666666668,0,0)" xlink:href="#C"/><use transform="matrix(0.026041666666666668,0,0,0.026041666666666668,28.671875,0)" xlink:href="#z"/><use transform="matrix(0.026041666666666668,0,0,0.026041666666666668,51.692708333333336,0)" xlink:href="#z"/><use transform="matrix(0.026041666666666668,0,0,0.026041666666666668,74.27083333333334,0)" xlink:href="#D"/></g><path fill="#fff" d="M425-862c217 0 353 210 353 439 0 240-138 457-368 457C191 34 49-155 49-377c0-243 145-485 376-485zm-9 703c111 0 169-142 169-264 0-111-61-246-162-246-123 0-184 93-184 278 0 155 59 232 177 232" id="E"/><path fill="#fff" d="M531-614c-33 0-117-43-150-43-49 0-84 9-103 26 45 67 311 167 362 220 54 56 87 121 87 208C727-59 571 34 418 34 267 34 142-29 43-154c7-41 48-130 87-128 2 0 37 22 104 66s127 66 179 66c66 0 107-17 123-50-5-45-48-90-128-136-72-41-147-78-217-121-80-49-116-111-116-174 0-130 162-224 297-224 79 0 256 66 256 140 0 50-47 101-97 101" id="F"/><g id="f"><use transform="matrix(0.026041666666666668,0,0,0.026041666666666668,0,0)" xlink:href="#v"/><use transform="matrix(0.026041666666666668,0,0,0.026041666666666668,33.46354166666667,0)" xlink:href="#E"/><use transform="matrix(0.026041666666666668,0,0,0.026041666666666668,55.05208333333335,0)" xlink:href="#s"/><use transform="matrix(0.026041666666666668,0,0,0.026041666666666668,76.64062500000001,0)" xlink:href="#z"/><use transform="matrix(0.026041666666666668,0,0,0.026041666666666668,99.66145833333334,0)" xlink:href="#r"/><use transform="matrix(0.026041666666666668,0,0,0.026041666666666668,108.28125,0)" xlink:href="#F"/></g><g id="g"><use transform="matrix(0.026041666666666668,0,0,0.026041666666666668,0,0)" xlink:href="#E"/><use transform="matrix(0.026041666666666668,0,0,0.026041666666666668,21.588541666666668,0)" xlink:href="#t"/></g><path fill="#fff" d="M1034 0L896-382H333L196 0H0l510-1349h217L1228 0h-194zM847-531c-77-225-157-447-231-674-69 231-154 451-232 674h463" id="G"/><use transform="matrix(0.01953125,0,0,0.01953125,0,0)" xlink:href="#G" id="h"/><path fill="#fff" d="M1060-1016c0 191-128 285-295 323v4c154 18 262 91 313 209 14 35 21 72 21 110 0 277-194 390-478 390-292 0-457-129-493-382l186-17c24 161 121 250 307 250 172 1 298-80 291-247-8-208-220-239-446-233v-156c217 9 409-34 409-232 0-152-102-225-264-225-159 0-264 88-278 233l-181-14c33-239 196-367 461-367 264 0 447 102 447 354" id="H"/><path fill="#fff" d="M334-464v-160h560v160H334" id="I"/><path fill="#fff" d="M473-1349c438-1 655 221 652 661C1122-268 945-8 532 0H162v-1349h311zm42 1193c308-4 416-205 418-532 2-330-131-509-459-505H353v1037h162" id="J"/><path fill="#fff" d="M1000-272c3 95 12 159 101 161 21 0 41-3 59-7V-6c-44 10-86 16-139 16-141 2-191-84-197-217h-6C748-76 648 20 446 20c-207 0-318-120-318-322 0-266 194-348 454-354l236-4c12-191-40-305-222-305-140 0-220 47-232 172l-188-17c33-204 181-292 423-292 255 0 401 118 401 364v466zm-683-27c0 109 63 184 175 182 166-3 259-96 306-217 24-65 20-120 20-200-232 7-501-28-501 235" id="K"/><path fill="#fff" d="M168 279c222 39 310-114 368-290L66-1082h192c120 299 249 590 362 896 115-301 235-597 351-896h190L705 0c-65 164-130 320-275 396-67 36-177 35-262 18V279" id="L"/><g id="i"><use transform="matrix(0.01953125,0,0,0.01953125,0,0)" xlink:href="#H"/><use transform="matrix(0.01953125,0,0,0.01953125,24.00390625,0)" xlink:href="#I"/><use transform="matrix(0.01953125,0,0,0.01953125,48.0078125,0)" xlink:href="#J"/><use transform="matrix(0.01953125,0,0,0.01953125,72.01171875,0)" xlink:href="#K"/><use transform="matrix(0.01953125,0,0,0.01953125,96.015625,0)" xlink:href="#L"/></g><path fill="#fff" d="M614-1226c-167 1-283 53-283 213 0 183 186 193 334 234 230 63 463 120 463 409 0 286-219 387-518 390C309 23 131-98 79-338l185-37c34 165 149 248 351 246 184-2 324-58 324-238 0-203-207-221-372-266-210-57-422-111-422-377 0-267 201-356 470-360 279-5 430 101 480 324l-188 33c-28-141-121-215-293-213" id="M"/><path fill="#fff" d="M617-1102c355 0 481 238 477 599H322c5 222 84 388 301 388 144 0 244-59 284-166l158 45C1002-72 854 20 623 20c-342 0-490-220-490-568 0-346 151-554 484-554zm291 461c-18-192-90-328-289-328-194 0-287 128-295 328h584" id="N"/><path fill="#fff" d="M904-1102c199 0 220 177 220 381V0H956v-686c-3-114 0-215-60-264-70-33-125-4-158 71-26 56-39 140-39 252V0H531v-686c-3-114-1-215-61-264-78-41-136 24-157 84-24 69-39 159-39 259V0H105c-3-360 6-732-6-1082h149c6 50 3 123 8 175 36-100 83-195 216-195 135 0 166 79 196 196 42-105 93-196 236-196" id="O"/><path fill="#fff" d="M745-142h380V0H143v-142h422v-798H246v-142h499v940zM545-1292v-192h200v192H545" id="P"/><path fill="#fff" d="M706-1102c241 0 344 136 343 381V0H868v-695c1-168-57-273-220-268-190 6-283 138-283 336V0H185c-3-360 6-732-6-1082h170c4 54 7 126 8 185h3c63-121 164-204 346-205" id="Q"/><path fill="#fff" d="M839-1102c70 0 148 7 206 17v167c-112-18-268-36-363 15-129 69-208 203-208 395V0H294c-10-367 32-789-52-1082h171c21 75 41 161 48 250h5c67-152 152-270 373-270" id="R"/><g id="j"><use transform="matrix(0.01953125,0,0,0.01953125,0,0)" xlink:href="#M"/><use transform="matrix(0.01953125,0,0,0.01953125,24.00390625,0)" xlink:href="#N"/><use transform="matrix(0.01953125,0,0,0.01953125,48.0078125,0)" xlink:href="#O"/><use transform="matrix(0.01953125,0,0,0.01953125,72.01171875,0)" xlink:href="#P"/><use transform="matrix(0.01953125,0,0,0.01953125,96.015625,0)" xlink:href="#Q"/><use transform="matrix(0.01953125,0,0,0.01953125,120.01953125,0)" xlink:href="#K"/><use transform="matrix(0.01953125,0,0,0.01953125,144.0234375,0)" xlink:href="#R"/></g><path fill="#fff" d="M873-819c-18-114-119-146-250-146-163 0-245 50-245 151 0 151 170 148 294 185 182 54 388 94 388 320 0 240-189 325-439 329-245 4-410-69-454-268l159-31c24 133 136 168 295 165 144-2 270-31 270-171 0-164-195-160-331-202-167-52-350-87-350-299 0-218 173-315 413-313 220 2 373 77 412 260" id="S"/><g id="k"><use transform="matrix(0.01953125,0,0,0.01953125,0,0)" xlink:href="#M"/><use transform="matrix(0.01953125,0,0,0.01953125,24.00390625,0)" xlink:href="#N"/><use transform="matrix(0.01953125,0,0,0.01953125,48.0078125,0)" xlink:href="#R"/><use transform="matrix(0.01953125,0,0,0.01953125,72.01171875,0)" xlink:href="#P"/><use transform="matrix(0.01953125,0,0,0.01953125,96.015625,0)" xlink:href="#N"/><use transform="matrix(0.01953125,0,0,0.01953125,120.01953125,0)" xlink:href="#S"/></g><path fill="#f2b32a" d="M67-125c0 54 23 88 75 88 28 0 53-7 68-21v-34h-60v-39h108v91C232-14 192 4 140 4 58 4 20-42 15-125 8-236 126-280 215-234c19 10 29 26 37 47l-47 15c-11-23-29-39-63-39-53 1-75 33-75 86" id="T"/><path fill="#f2b32a" d="M110-194c64 0 96 36 96 99 0 64-35 99-97 99-61 0-95-36-95-99 0-62 34-99 96-99zm-1 164c35 0 45-28 45-65 0-40-10-65-43-65-34 0-45 26-45 65 0 36 10 65 43 65" id="U"/><path fill="#f2b32a" d="M195-6C206 82 75 100 31 46c-4-6-6-13-8-21l49-6c3 16 16 24 34 25 40 0 42-37 40-79-11 22-30 35-61 35-53 0-70-43-70-97 0-56 18-96 73-97 30 0 46 14 59 34l2-30h47zm-90-29c32 0 41-27 41-63 0-35-9-62-40-62-32 0-39 29-40 63 0 36 9 62 39 62" id="V"/><path fill="#f2b32a" d="M25 0v-261h50V0H25" id="W"/><path fill="#f2b32a" d="M185-48c-13 30-37 53-82 52C43 2 14-33 14-96s30-98 90-98c62 0 83 45 84 108H66c0 31 8 55 39 56 18 0 30-7 34-22zm-45-69c5-46-57-63-70-21-2 6-4 13-4 21h74" id="X"/><g id="l"><use transform="matrix(0.14814814814814817,0,0,0.14814814814814817,0,0)" xlink:href="#T"/><use transform="matrix(0.14814814814814817,0,0,0.14814814814814817,41.48148148148149,0)" xlink:href="#U"/><use transform="matrix(0.14814814814814817,0,0,0.14814814814814817,73.92592592592594,0)" xlink:href="#U"/><use transform="matrix(0.14814814814814817,0,0,0.14814814814814817,106.37037037037038,0)" xlink:href="#V"/><use transform="matrix(0.14814814814814817,0,0,0.14814814814814817,138.81481481481484,0)" xlink:href="#W"/><use transform="matrix(0.14814814814814817,0,0,0.14814814814814817,153.62962962962965,0)" xlink:href="#X"/></g><path fill="#e8453c" d="M67-125c0 53 21 87 73 88 37 1 54-22 65-47l45 17C233-25 199 4 140 4 58 4 20-42 15-125 8-235 124-281 211-232c18 10 29 29 36 50l-46 12c-8-25-30-41-62-41-52 0-71 34-72 86" id="Y"/><path fill="#e8453c" d="M25 0v-261h50V0H25" id="Z"/><path fill="#e8453c" d="M110-194c64 0 96 36 96 99 0 64-35 99-97 99-61 0-95-36-95-99 0-62 34-99 96-99zm-1 164c35 0 45-28 45-65 0-40-10-65-43-65-34 0-45 26-45 65 0 36 10 65 43 65" id="aa"/><path fill="#e8453c" d="M85 4C-2 5 27-109 22-190h50c7 57-23 150 33 157 60-5 35-97 40-157h50l1 190h-47c-2-12 1-28-3-38-12 25-28 42-61 42" id="ab"/><path fill="#e8453c" d="M88-194c31-1 46 15 58 34l-1-101h50l1 261h-48c-2-10 0-23-3-31C134-8 116 4 84 4 32 4 16-41 15-95c0-56 19-97 73-99zm17 164c33 0 40-30 41-66 1-37-9-64-41-64s-38 30-39 65c0 43 13 65 39 65" id="ac"/><g id="m"><use transform="matrix(0.14814814814814817,0,0,0.14814814814814817,0,0)" xlink:href="#Y"/><use transform="matrix(0.14814814814814817,0,0,0.14814814814814817,38.370370370370374,0)" xlink:href="#Z"/><use transform="matrix(0.14814814814814817,0,0,0.14814814814814817,53.18518518518519,0)" xlink:href="#aa"/><use transform="matrix(0.14814814814814817,0,0,0.14814814814814817,85.62962962962965,0)" xlink:href="#ab"/><use transform="matrix(0.14814814814814817,0,0,0.14814814814814817,118.0740740740741,0)" xlink:href="#ac"/></g><path fill="#3aa757" d="M24-248c93 1 206-16 204 79-1 75-69 88-152 82V0H24v-248zm52 121c47 0 100 7 100-41 0-47-54-39-100-39v80" id="ad"/><path fill="#3aa757" d="M25 0v-261h50V0H25" id="ae"/><path fill="#3aa757" d="M133-34C117-15 103 5 69 4 32 3 11-16 11-54c-1-60 55-63 116-61 1-26-3-47-28-47-18 1-26 9-28 27l-52-2c7-38 36-58 82-57s74 22 75 68l1 82c-1 14 12 18 25 15v27c-30 8-71 5-69-32zm-48 3c29 0 43-24 42-57-32 0-66-3-65 30 0 17 8 27 23 27" id="af"/><path fill="#3aa757" d="M115-3C79 11 28 4 28-45v-112H4v-33h27l15-45h31v45h36v33H77v99c-1 23 16 31 38 25v30" id="ag"/><path fill="#3aa757" d="M121-226c-27-7-43 5-38 36h38v33H83V0H34v-157H6v-33h28c-9-59 32-81 87-68v32" id="ah"/><path fill="#3aa757" d="M110-194c64 0 96 36 96 99 0 64-35 99-97 99-61 0-95-36-95-99 0-62 34-99 96-99zm-1 164c35 0 45-28 45-65 0-40-10-65-43-65-34 0-45 26-45 65 0 36 10 65 43 65" id="ai"/><path fill="#3aa757" d="M135-150c-39-12-60 13-60 57V0H25l-1-190h47c2 13-1 29 3 40 6-28 27-53 61-41v41" id="aj"/><path fill="#3aa757" d="M220-157c-53 9-28 100-34 157h-49v-107c1-27-5-49-29-50C55-147 81-57 75 0H25l-1-190h47c2 12-1 28 3 38 10-53 101-56 108 0 13-22 24-43 59-42 82 1 51 116 57 194h-49v-107c-1-25-5-48-29-50" id="ak"/><g id="n"><use transform="matrix(0.14814814814814817,0,0,0.14814814814814817,0,0)" xlink:href="#ad"/><use transform="matrix(0.14814814814814817,0,0,0.14814814814814817,35.55555555555556,0)" xlink:href="#ae"/><use transform="matrix(0.14814814814814817,0,0,0.14814814814814817,50.370370370370374,0)" xlink:href="#af"/><use transform="matrix(0.14814814814814817,0,0,0.14814814814814817,80,0)" xlink:href="#ag"/><use transform="matrix(0.14814814814814817,0,0,0.14814814814814817,97.62962962962962,0)" xlink:href="#ah"/><use transform="matrix(0.14814814814814817,0,0,0.14814814814814817,115.25925925925928,0)" xlink:href="#ai"/><use transform="matrix(0.14814814814814817,0,0,0.14814814814814817,147.70370370370372,0)" xlink:href="#aj"/><use transform="matrix(0.14814814814814817,0,0,0.14814814814814817,168.44444444444446,0)" xlink:href="#ak"/></g></defs></g></svg>