<?xml version="1.0" encoding="UTF-8"?>
<svg width="51px" height="51px" viewBox="0 0 51 51" version="1.1" xmlns="http://www.w3.org/2000/svg" xmlns:xlink="http://www.w3.org/1999/xlink">
    <!-- Generator: Sketch 43.1 (39012) - http://www.bohemiancoding.com/sketch -->
    <title>linkedin</title>
    <desc>Created with Sketch.</desc>
    <defs></defs>
    <g id="Page-1" stroke="none" stroke-width="1" fill="none" fill-rule="evenodd">
        <g id="linkedin" fill-rule="nonzero" fill="#FFFFFF">
            <path d="M25.4,0.4 C11.5927083,0.4 0.4,11.5927083 0.4,25.4 C0.4,39.2072917 11.5927083,50.4 25.4,50.4 C39.2072917,50.4 50.4,39.2072917 50.4,25.4 C50.4,11.5927083 39.2072917,0.4 25.4,0.4 Z M19.2802083,35.7619792 L14.2177083,35.7619792 L14.2177083,19.4703125 L19.2802083,19.4703125 L19.2802083,35.7619792 Z M16.7177083,17.4703125 C15.11875,17.4703125 14.0848958,16.3375 14.0848958,14.9364583 C14.0848958,13.5067708 15.15,12.4078125 16.7828125,12.4078125 C18.415625,12.4078125 19.415625,13.5067708 19.446875,14.9364583 C19.446875,16.3375 18.415625,17.4703125 16.7177083,17.4703125 Z M37.7697917,35.7619792 L32.7072917,35.7619792 L32.7072917,26.7333333 C32.7072917,24.6317708 31.9729167,23.2046875 30.1421875,23.2046875 C28.74375,23.2046875 27.9130208,24.1708333 27.5458333,25.1005208 C27.4104167,25.43125 27.3765625,25.9 27.3765625,26.3661458 L27.3765625,35.759375 L22.3114583,35.759375 L22.3114583,24.665625 C22.3114583,22.6317708 22.2463542,20.93125 22.1786458,19.4677083 L26.5770833,19.4677083 L26.8088542,21.7307292 L26.9104167,21.7307292 C27.5770833,20.6682292 29.2098958,19.1005208 31.9416667,19.1005208 C35.2723958,19.1005208 37.7697917,21.3322917 37.7697917,26.1291667 L37.7697917,35.7619792 Z" id="Shape"></path>
        </g>
    </g>
</svg>