<?xml version="1.0" encoding="UTF-8"?>
<svg width="200px" height="200px" viewBox="0 0 200 200" version="1.1" xmlns="http://www.w3.org/2000/svg" xmlns:xlink="http://www.w3.org/1999/xlink">
    <!-- Generator: Sketch 43.1 (39012) - http://www.bohemiancoding.com/sketch -->
    <title>logo</title>
    <desc>Created with Sketch.</desc>
    <defs></defs>
    <g id="Page-1" stroke="none" stroke-width="1" fill="none" fill-rule="evenodd">
        <g id="logo" fill-rule="nonzero" fill="#E87839">
            <path d="M167.002128,117.738298 C170.365957,119.970213 174.393617,121.276596 178.723404,121.276596 C190.455319,121.276596 200,111.731915 200,100 C200,88.2680851 190.455319,78.7234043 178.723404,78.7234043 C174.393617,78.7234043 170.365957,80.0297872 167.002128,82.2617021 L157.655319,72.9170213 L173.206383,41.8021277 C174.970213,42.2765957 176.814894,42.5531915 178.723404,42.5531915 C190.455319,42.5531915 200,33.0085106 200,21.2765957 C200,9.54468085 190.455319,0 178.723404,0 C168.448936,0 159.853191,7.3212766 157.874468,17.0212766 L120.848936,17.0212766 C118.870213,7.3212766 110.274468,0 100,0 C89.7255319,0 81.1297872,7.3212766 79.1531915,17.0212766 L42.1234043,17.0212766 C40.1468085,7.3212766 31.5510638,0 21.2765957,0 C9.54468085,0 0,9.54468085 0,21.2765957 C0,33.0085106 9.54468085,42.5531915 21.2765957,42.5531915 C23.187234,42.5531915 25.0297872,42.2765957 26.7914894,41.8021277 L42.3425532,72.9170213 L32.9978723,82.2617021 C29.6340426,80.0297872 25.606383,78.7234043 21.2765957,78.7234043 C9.54468085,78.7234043 0,88.2680851 0,100 C0,111.731915 9.54468085,121.276596 21.2765957,121.276596 C25.606383,121.276596 29.6340426,119.970213 32.9978723,117.738298 L42.3425532,127.085106 L26.7893617,158.197872 C25.0297872,157.723404 23.1851064,157.446809 21.2765957,157.446809 C9.54468085,157.446809 0,166.991489 0,178.723404 C0,190.455319 9.54468085,200 21.2765957,200 C31.5510638,200 40.1468085,192.678723 42.1234043,182.978723 L79.1510638,182.978723 C81.1276596,192.678723 89.7234043,200 99.9978723,200 C110.27234,200 118.868085,192.678723 120.846809,182.978723 L157.87234,182.978723 C159.851064,192.678723 168.446809,200 178.721277,200 C190.453191,200 199.997872,190.455319 199.997872,178.723404 C199.997872,166.991489 190.453191,157.446809 178.721277,157.446809 C176.812766,157.446809 174.968085,157.723404 173.206383,158.197872 L157.653191,127.085106 L167.002128,117.738298 Z M117.738298,167.002128 L132.034043,152.706383 L159.031915,170.695745 C158.538298,171.902128 158.142553,173.161702 157.874468,174.465957 L120.848936,174.465957 C120.295745,171.757447 119.219149,169.234043 117.738298,167.002128 Z M40.9680851,170.695745 L67.9659574,152.708511 L82.2595745,167.004255 C80.7808511,169.23617 79.7042553,171.757447 79.1510638,174.470213 L42.1234043,174.470213 C41.8574468,173.161702 41.4638298,171.904255 40.9680851,170.695745 Z M42.3851064,97.4510638 L52.8617021,93.9595745 L55.8808511,100 L52.8617021,106.040426 L42.3851064,102.551064 C42.4851064,101.712766 42.5531915,100.86383 42.5531915,100 C42.5531915,99.1361702 42.4851064,98.287234 42.3851064,97.4510638 Z M82.2617021,32.9978723 L67.9680851,47.2914894 L40.9702128,29.3021277 C41.4638298,28.0957447 41.8595745,26.8361702 42.1255319,25.5319149 L79.1531915,25.5319149 C79.7042553,28.2446809 80.7808511,30.7659574 82.2617021,32.9978723 Z M159.029787,29.3021277 L132.031915,47.2914894 L117.738298,33 C119.219149,30.7680851 120.295745,28.2468085 120.848936,25.5340426 L157.874468,25.5340426 C158.140426,26.8382979 158.538298,28.0957447 159.029787,29.3021277 Z M157.614894,102.551064 L147.138298,106.040426 L144.119149,100 L147.13617,93.9617021 L157.614894,97.4531915 C157.512766,98.287234 157.446809,99.1361702 157.446809,100 C157.446809,100.86383 157.512766,101.712766 157.614894,102.551064 Z M84.1106383,112.138298 C83.1595745,113.208511 82.3170213,114.370213 81.593617,115.614894 L75.4617021,113.57234 L80.3234043,107.091489 L84.1106383,112.138298 Z M90.9148936,107.029787 L85.6425532,100 L90.9148936,92.9702128 C93.6744681,94.2808511 96.7468085,95.0361702 100,95.0361702 C103.251064,95.0361702 106.325532,94.2808511 109.085106,92.9702128 L114.357447,100 L109.082979,107.029787 C106.323404,105.719149 103.251064,104.96383 99.9978723,104.96383 C96.7468085,104.96383 93.6744681,105.719149 90.9148936,107.029787 Z M84.1106383,87.8595745 L80.3234043,92.9085106 L75.4638298,86.4297872 L81.5957447,84.387234 C82.3170213,85.6297872 83.1595745,86.7914894 84.1106383,87.8595745 Z M115.889362,87.8595745 C116.838298,86.7914894 117.682979,85.6297872 118.406383,84.3851064 L124.538298,86.4276596 L119.678723,92.906383 L115.889362,87.8595745 Z M115.889362,112.138298 L119.676596,107.091489 L124.53617,113.57234 L118.404255,115.614894 C117.682979,114.370213 116.838298,113.208511 115.889362,112.138298 Z M130.761702,107.687234 L124.995745,100 L130.761702,92.312766 L134.604255,100 L130.761702,107.687234 Z M121.108511,76.3170213 C121.208511,75.4765957 121.276596,74.6255319 121.276596,73.7595745 C121.276596,73.6 121.255319,73.4468085 121.251064,73.287234 L123.097872,76.9808511 L121.108511,76.3170213 Z M112.765957,73.7595745 C112.765957,80.8 107.040426,86.5255319 100,86.5255319 C92.9595745,86.5255319 87.2340426,80.8 87.2340426,73.7595745 C87.2340426,66.7191489 92.9595745,60.993617 100,60.993617 C107.040426,60.993617 112.765957,66.7191489 112.765957,73.7595745 Z M78.893617,76.3170213 L76.9021277,76.9808511 L78.7489362,73.287234 C78.7446809,73.4446809 78.7234043,73.6 78.7234043,73.7595745 C78.7234043,74.6255319 78.7914894,75.4765957 78.893617,76.3170213 Z M69.2382979,92.3106383 L75.0042553,100 L69.2382979,107.687234 L65.3957447,100 L69.2382979,92.3106383 Z M78.893617,123.682979 C78.7914894,124.523404 78.7234043,125.374468 78.7234043,126.240426 C78.7234043,126.397872 78.7446809,126.551064 78.7468085,126.710638 L76.9021277,123.021277 L78.893617,123.682979 Z M87.2340426,126.240426 C87.2340426,119.2 92.9595745,113.474468 100,113.474468 C107.040426,113.474468 112.765957,119.2 112.765957,126.240426 C112.765957,133.280851 107.040426,139.006383 100,139.006383 C92.9595745,139.006383 87.2340426,133.280851 87.2340426,126.240426 Z M121.108511,123.682979 L123.1,123.019149 L121.253191,126.710638 C121.255319,126.553191 121.276596,126.4 121.276596,126.240426 C121.276596,125.374468 121.208511,124.523404 121.108511,123.682979 Z M138.431915,82.087234 L145.444681,72.7361702 L147.304255,74.5957447 L142.82766,83.5510638 L138.431915,82.087234 Z M132.219149,76.1893617 L125.170213,62.0914894 L130.946809,58.2425532 L139.365957,66.6595745 L132.219149,76.1893617 Z M121.334043,54.4170213 L115.548936,42.8446809 L124.808511,52.1042553 L121.334043,54.4170213 Z M138.168085,53.4297872 L160.395745,38.6212766 L144.521277,59.7829787 L138.168085,53.4297872 Z M105.517021,41.8021277 L113.142553,57.0595745 C109.519149,54.2021277 104.959574,52.4829787 100,52.4829787 C95.0382979,52.4829787 90.4808511,54.2042553 86.8574468,57.0595745 L94.4829787,41.8042553 C96.2468085,42.2765957 98.0893617,42.5531915 100,42.5531915 C101.910638,42.5531915 103.753191,42.2765957 105.517021,41.8021277 Z M78.6638298,54.4170213 L75.1914894,52.1021277 L84.4510638,42.8425532 L78.6638298,54.4170213 Z M61.8319149,53.4276596 L55.4787234,59.7808511 L39.6042553,38.6191489 L61.8319149,53.4276596 Z M69.0531915,58.2404255 L74.8297872,62.0893617 L67.7829787,76.187234 L60.6361702,66.6574468 L69.0531915,58.2404255 Z M61.5702128,82.087234 L57.1744681,83.5510638 L52.6978723,74.5957447 L54.5574468,72.7361702 L61.5702128,82.087234 Z M61.5702128,117.910638 L54.5574468,127.261702 L52.7,125.404255 L57.1765957,116.448936 L61.5702128,117.910638 Z M67.7829787,123.810638 L74.8297872,137.908511 L69.0531915,141.759574 L60.6361702,133.340426 L67.7829787,123.810638 Z M78.6638298,145.580851 L84.4489362,157.153191 L75.1893617,147.893617 L78.6638298,145.580851 Z M61.8297872,146.57234 L39.6042553,161.380851 L55.4765957,140.219149 L61.8297872,146.57234 Z M94.4851064,158.197872 L86.8595745,142.940426 C90.4808511,145.797872 95.0404255,147.517021 100,147.517021 C104.961702,147.517021 109.521277,145.795745 113.142553,142.940426 L105.514894,158.197872 C103.753191,157.723404 101.910638,157.446809 100,157.446809 C98.0914894,157.446809 96.2468085,157.723404 94.4851064,158.197872 Z M121.334043,145.580851 L124.810638,147.895745 L115.548936,157.157447 L121.334043,145.580851 Z M138.170213,146.570213 L144.521277,140.219149 L160.395745,161.380851 L138.170213,146.570213 Z M130.948936,141.757447 L125.170213,137.908511 L132.217021,123.810638 L139.365957,133.340426 L130.948936,141.757447 Z M138.431915,117.912766 L142.825532,116.448936 L147.302128,125.404255 L145.442553,127.26383 L138.431915,117.912766 Z M150.982979,113.729787 L160.317021,110.621277 C160.531915,110.993617 160.748936,111.36383 160.985106,111.721277 L153.646809,119.059574 L150.982979,113.729787 Z M178.723404,87.2340426 C185.76383,87.2340426 191.489362,92.9595745 191.489362,100 C191.489362,107.040426 185.76383,112.765957 178.723404,112.765957 C171.682979,112.765957 165.957447,107.040426 165.957447,100 C165.957447,92.9595745 171.682979,87.2340426 178.723404,87.2340426 Z M160.985106,88.2787234 C160.748936,88.6361702 160.529787,89.0085106 160.314894,89.3808511 L150.980851,86.2723404 L153.646809,80.9425532 L160.985106,88.2787234 Z M150.602128,65.8617021 L153.797872,61.6 L151.312766,66.5723404 L150.602128,65.8617021 Z M178.723404,8.5106383 C185.76383,8.5106383 191.489362,14.2361702 191.489362,21.2765957 C191.489362,28.3170213 185.76383,34.0425532 178.723404,34.0425532 C171.682979,34.0425532 165.957447,28.3170213 165.957447,21.2765957 C165.957447,14.2361702 171.682979,8.5106383 178.723404,8.5106383 Z M100,8.5106383 C107.040426,8.5106383 112.765957,14.2361702 112.765957,21.2765957 C112.765957,28.3170213 107.040426,34.0425532 100,34.0425532 C92.9595745,34.0425532 87.2340426,28.3170213 87.2340426,21.2765957 C87.2340426,14.2361702 92.9595745,8.5106383 100,8.5106383 Z M8.5106383,21.2765957 C8.5106383,14.2361702 14.2361702,8.5106383 21.2765957,8.5106383 C28.3170213,8.5106383 34.0425532,14.2361702 34.0425532,21.2765957 C34.0425532,28.3170213 28.3170213,34.0425532 21.2765957,34.0425532 C14.2361702,34.0425532 8.5106383,28.3170213 8.5106383,21.2765957 Z M46.2021277,61.6 L49.3978723,65.8595745 L48.687234,66.5702128 L46.2021277,61.6 Z M49.0191489,86.2702128 L39.6851064,89.3787234 C39.4702128,89.006383 39.2531915,88.6340426 39.0170213,88.2765957 L46.3553191,80.9382979 L49.0191489,86.2702128 Z M21.2765957,112.765957 C14.2361702,112.765957 8.5106383,107.040426 8.5106383,100 C8.5106383,92.9595745 14.2361702,87.2340426 21.2765957,87.2340426 C28.3170213,87.2340426 34.0425532,92.9595745 34.0425532,100 C34.0425532,107.040426 28.3170213,112.765957 21.2765957,112.765957 Z M39.0148936,111.721277 C39.2510638,111.36383 39.4680851,110.993617 39.6829787,110.621277 L49.0170213,113.729787 L46.3531915,119.059574 L39.0148936,111.721277 Z M49.3978723,134.138298 L46.206383,138.393617 L48.6893617,133.42766 L49.3978723,134.138298 Z M21.2765957,191.489362 C14.2361702,191.489362 8.5106383,185.76383 8.5106383,178.723404 C8.5106383,171.682979 14.2361702,165.957447 21.2765957,165.957447 C28.3170213,165.957447 34.0425532,171.682979 34.0425532,178.723404 C34.0425532,185.76383 28.3170213,191.489362 21.2765957,191.489362 Z M100,191.489362 C92.9595745,191.489362 87.2340426,185.76383 87.2340426,178.723404 C87.2340426,171.682979 92.9595745,165.957447 100,165.957447 C107.040426,165.957447 112.765957,171.682979 112.765957,178.723404 C112.765957,185.76383 107.040426,191.489362 100,191.489362 Z M191.489362,178.723404 C191.489362,185.76383 185.76383,191.489362 178.723404,191.489362 C171.682979,191.489362 165.957447,185.76383 165.957447,178.723404 C165.957447,171.682979 171.682979,165.957447 178.723404,165.957447 C185.76383,165.957447 191.489362,171.682979 191.489362,178.723404 Z M153.795745,138.397872 L150.602128,134.138298 L151.312766,133.42766 L153.795745,138.397872 Z" id="Shape"></path>
        </g>
    </g>
</svg>